999
DXF created from QGIS
  0
SECTION
  2
HEADER
  9
$ACADVER
  1
AC1015
  9
$EXTMIN
 10
0.0
 20
0.0
 30
0.0
  9
$EXTMAX
 10
100.0
 20
100.0
 30
0.0
  9
$LTSCALE
 40
1.0
  9
$PDMODE
 70
    33
  9
$PDSIZE
 40
     1
  9
$PSLTSCALE
 70
     0
  9
$HANDSEED
  5
9999999
  9
$DWGCODEPAGE
  3

  0
ENDSEC
  0
SECTION
  2
TABLES
  0
TABLE
  2
LTYPE
  5
64
100
AcDbSymbolTable
 70
     5
  0
LTYPE
  5
65
100
AcDbSymbolTableRecord
100
AcDbLinetypeTableRecord
  2
ByLayer
 70
    64
  3
Defaultstyle
 72
    65
 73
     0
 40
0.0
  0
LTYPE
  5
66
100
AcDbSymbolTableRecord
100
AcDbLinetypeTableRecord
  2
ByBlock
 70
    64
  3
Defaultstyle
 72
    65
 73
     0
 40
0.0
  0
LTYPE
  5
67
100
AcDbSymbolTableRecord
100
AcDbLinetypeTableRecord
  2
CONTINUOUS
 70
    64
  3
Defaultstyle
 72
    65
 73
     0
 40
0.0
  0
LTYPE
  5
68
100
AcDbSymbolTableRecord
100
AcDbLinetypeTableRecord
  2
DASH
 70
    64
  3

 72
    65
 73
     2
 40
26.0
 49
20.0
 74
     0
 49
-5.99999999999999911
 74
     0
  0
LTYPE
  5
69
100
AcDbSymbolTableRecord
100
AcDbLinetypeTableRecord
  2
DOT
 70
    64
  3

 72
    65
 73
     2
 40
11.99999999999999822
 49
5.99999999999999911
 74
     0
 49
-5.99999999999999911
 74
     0
  0
LTYPE
  5
6a
100
AcDbSymbolTableRecord
100
AcDbLinetypeTableRecord
  2
DASHDOT
 70
    64
  3

 72
    65
 73
     4
 40
38.0
 49
20.0
 74
     0
 49
-5.99999999999999911
 74
     0
 49
5.99999999999999911
 74
     0
 49
-5.99999999999999911
 74
     0
  0
LTYPE
  5
6b
100
AcDbSymbolTableRecord
100
AcDbLinetypeTableRecord
  2
DASHDOTDOT
 70
    64
  3

 72
    65
 73
     6
 40
50.0
 49
20.0
 74
     0
 49
-5.99999999999999911
 74
     0
 49
5.99999999999999911
 74
     0
 49
-5.99999999999999911
 74
     0
 49
5.99999999999999911
 74
     0
 49
-5.99999999999999911
 74
     0
  0
ENDTAB
  0
TABLE
  2
BLOCK_RECORD
  5
6c
100
AcDbSymbolTable
 70
     0
  0
BLOCK_RECORD
  5
6d
100
AcDbSymbolTableRecord
100
AcDbBlockTableRecord
  2
*Model_Space
  0
BLOCK_RECORD
  5
6e
100
AcDbSymbolTableRecord
100
AcDbBlockTableRecord
  2
*Paper_Space
  0
BLOCK_RECORD
  5
6f
100
AcDbSymbolTableRecord
100
AcDbBlockTableRecord
  2
*Paper_Space0
  0
ENDTAB
  0
TABLE
  2
APPID
  5
70
100
AcDbSymbolTable
 70
     1
  0
APPID
  5
71
100
AcDbSymbolTableRecord
100
AcDbRegAppTableRecord
  2
ACAD
 70
     0
  0
ENDTAB
  0
TABLE
  2
VIEW
  5
72
100
AcDbSymbolTable
 70
     0
  0
ENDTAB
  0
TABLE
  2
UCS
  5
73
100
AcDbSymbolTable
 70
     0
  0
ENDTAB
  0
TABLE
  2
VPORT
  5
74
100
AcDbSymbolTable
  0
VPORT
  5
75
100
AcDbSymbolTableRecord
100
AcDbViewportTableRecord
  2
*ACTIVE
 70
     0
 10
0.0
 20
0.0
 11
1.0
 21
1.0
 12
0.0
 22
0.0
 13
0.0
 23
0.0
 14
1.0
 24
1.0
 15
1.0
 25
1.0
 16
0.0
 26
0.0
 36
1.0
 17
50.0
 27
50.0
 40
100.0
 41
1.0
 42
50.0
 43
0.0
 44
0.0
 50
0.0
 51
0.0
 71
     0
 72
   100
 73
     1
 74
     1
 75
     0
 76
     0
 77
     0
 78
     0
281
     0
 65
     1
110
0.0
120
0.0
130
0.0
111
1.0
121
0.0
131
0.0
112
0.0
122
1.0
132
0.0
 79
     0
146
0.0
 70
     0
  0
ENDTAB
  0
TABLE
  2
DIMSTYLE
  5
76
100
AcDbSymbolTable
100
AcDbDimStyleTable
 70
     0
  0
ENDTAB
  0
TABLE
  2
LAYER
  5
77
100
AcDbSymbolTable
 70
     2
  0
LAYER
  5
78
100
AcDbSymbolTableRecord
100
AcDbLayerTableRecord
  2
0
 70
    64
 62
     1
  6
CONTINUOUS
390
f
  0
LAYER
  5
79
100
AcDbSymbolTableRecord
100
AcDbLayerTableRecord
  2
output
 70
    64
 62
     1
  6
CONTINUOUS
390
f
  0
ENDTAB
  0
TABLE
  2
STYLE
  5
7a
100
AcDbSymbolTable
 70
     1
  0
STYLE
  5
7b
100
AcDbSymbolTableRecord
100
AcDbTextStyleTableRecord
  2
STANDARD
 70
    64
 40
0.0
 41
1.0
 50
0.0
 71
     0
 42
5.0
  3
romans.shx
  4

  0
ENDTAB
  0
ENDSEC
  0
SECTION
  2
BLOCKS
  0
BLOCK
  5
7c
330
6d
100
AcDbEntity
  8
0
100
AcDbBlockBegin
  2
*Model_Space
 70
     0
 10
0.0
 20
0.0
 30
0.0
  3
*Model_Space
  1

  0
ENDBLK
  5
7d
100
AcDbEntity
  8
0
100
AcDbBlockEnd
  0
BLOCK
  5
7e
330
6e
100
AcDbEntity
  8
0
100
AcDbBlockBegin
  2
*Paper_Space
 70
     0
 10
0.0
 20
0.0
 30
0.0
  3
*Paper_Space
  1

  0
ENDBLK
  5
7f
100
AcDbEntity
  8
0
100
AcDbBlockEnd
  0
BLOCK
  5
80
330
6f
100
AcDbEntity
  8
0
100
AcDbBlockBegin
  2
*Paper_Space0
 70
     0
 10
0.0
 20
0.0
 30
0.0
  3
*Paper_Space0
  1

  0
ENDBLK
  5
81
100
AcDbEntity
  8
0
100
AcDbBlockEnd
  0
ENDSEC
  0
SECTION
  2
ENTITIES
  0
LWPOLYLINE
  5
82
  8
output
100
AcDbEntity
100
AcDbPolyline
  6
CONTINUOUS
420
2302755
 90
     8
 70
   129
 43
2.60000000000000009
 10
0.0
 20
32.52527085033943877
 10
3.3125
 20
34.84375
 10
12.84375
 20
21.09375
 10
22.390625
 20
7.3125
 10
12.8671875
 20
0.6875
 10
3.3046875
 20
14.4375
 10
0.0
 20
19.18629807693650946
 10
0.0
 20
32.52527085033943877
  0
LWPOLYLINE
  5
83
  8
output
100
AcDbEntity
100
AcDbPolyline
  6
CONTINUOUS
420
2302755
 90
    17
 70
   129
 43
2.60000000000000009
 10
32.9609375
 20
34.25
 10
37.3984375
 20
27.875
 10
38.46875
 20
28.625
 10
40.515625
 20
25.71875
 10
39.4375
 20
24.96875
 10
42.1796875
 20
21.03125
 10
40.90625
 20
20.21875
 10
43.6015625
 20
16.28125
 10
45.0859375
 20
17.21875
 10
47.0546875
 20
14.40625
 10
48.921875
 20
15.6875
 10
48.8671875
 20
15.125
 10
47.09818165205069818
 20
0.0
 10
42.1306678921537241
 20
0.0
 10
32.203125
 20
14.3125
 10
23.09375
 20
27.40625
 10
32.9609375
 20
34.25
  0
LWPOLYLINE
  5
84
  8
output
100
AcDbEntity
100
AcDbPolyline
  6
CONTINUOUS
420
2302755
 90
    13
 70
   129
 43
2.60000000000000009
 10
25.7890625
 20
48.125
 10
30.5
 20
41.34375
 10
28.8359375
 20
40.1875
 10
18.96875
 20
33.34375
 10
14.25
 20
40.125
 10
4.5
 20
54.15625
 10
0.0
 20
60.63195332483155653
 10
0.0
 20
70.56901764473877847
 10
5.1875
 20
74.15625
 10
9.4375
 20
68.0625
 10
14.3671875
 20
60.96875
 10
24.12379697657888755
 20
46.97047603520331904
 10
25.7890625
 20
48.125
  0
LWPOLYLINE
  5
85
  8
output
100
AcDbEntity
100
AcDbPolyline
  6
CONTINUOUS
420
2302755
 90
    14
 70
   129
 43
2.60000000000000009
 10
18.34375
 20
74.21875
 10
13.2421875
 20
81.59375
 10
7.9375
 20
89.1875
 10
17.2578125
 20
95.46875
 10
22.46875
 20
88.0
 10
27.6171875
 20
80.59375
 10
31.7890625
 20
74.59375
 10
32.921875
 20
72.96875
 10
38.15625
 20
65.4375
 10
43.3125
 20
58.03125
 10
34.03125
 20
51.6875
 10
28.859375
 20
59.125
 10
23.625
 20
66.625
 10
18.34375
 20
74.21875
  0
LWPOLYLINE
  5
86
  8
output
100
AcDbEntity
100
AcDbPolyline
  6
CONTINUOUS
420
2302755
 90
    16
 70
   129
 43
2.60000000000000009
 10
70.1242264851462096
 20
0.0
 10
66.546875
 20
5.125
 10
63.8515625
 20
5.34375
 10
65.6171875
 20
19.90625
 10
66.0390625
 20
20.65625
 10
68.4140625
 20
21.28125
 10
69.1953125
 20
20.875
 10
75.6640625
 20
11.5625
 10
79.453125
 20
6.09375
 10
79.4296875
 20
5.96875
 10
79.640625
 20
5.84375
 10
80.609375
 20
4.5
 10
80.5390625
 20
4.28125
 10
80.765625
 20
4.21875
 10
83.6953125
 20
0.0
 10
70.1242264851462096
 20
0.0
  0
LWPOLYLINE
  5
87
  8
output
100
AcDbEntity
100
AcDbPolyline
  6
CONTINUOUS
420
2302755
 90
    49
 70
   129
 43
2.60000000000000009
 10
85.796875
 20
18.1875
 10
85.7109375
 20
18.125
 10
85.65625
 20
18.21875
 10
83.3046875
 20
21.59375
 10
83.390625
 20
21.65625
 10
77.90625
 20
29.5625
 10
77.8203125
 20
29.5
 10
75.6015625
 20
32.6875
 10
73.0234375
 20
36.375
 10
73.1015625
 20
36.4375
 10
68.4921875
 20
43.09375
 10
68.3984375
 20
43.09375
 10
69.390625
 20
51.34375
 10
69.4921875
 20
51.34375
 10
70.859375
 20
52.28125
 10
70.8046875
 20
52.375
 10
84.328125
 20
61.375
 10
87.2421875
 20
63.3125
 10
87.296875
 20
63.21875
 10
94.5625
 20
68.0625
 10
94.5078125
 20
68.15625
 10
97.703125
 20
70.28125
 10
100.0
 20
66.97007091215346009
 10
100.0
 20
54.94203284982359037
 10
94.3515625
 20
51.125
 10
93.421875
 20
52.5
 10
91.2265625
 20
51.0
 10
86.984375
 20
57.15625
 10
76.765625
 20
50.21875
 10
79.4375
 20
46.4375
 10
81.59375
 20
47.8125
 10
84.921875
 20
42.84375
 10
83.96875
 20
42.28125
 10
85.84375
 20
39.625
 10
87.6796875
 20
37.0
 10
88.5546875
 20
37.65625
 10
91.75
 20
33.0625
 10
94.984375
 20
28.40625
 10
94.0546875
 20
27.75
 10
95.796875
 20
25.1875
 10
96.7109375
 20
25.8125
 10
100.0
 20
21.14068877551471815
 10
100.0
 20
15.984375
 10
92.3359375
 20
10.875
 10
91.2421875
 20
10.15625
 10
88.046875
 20
14.75
 10
88.1328125
 20
14.8125
 10
85.8515625
 20
18.125
 10
85.796875
 20
18.1875
  0
LWPOLYLINE
  5
88
  8
output
100
AcDbEntity
100
AcDbPolyline
  6
CONTINUOUS
420
2302755
 90
    12
 70
   129
 43
2.60000000000000009
 10
38.4296875
 20
35.03125
 10
43.21875
 20
38.59375
 10
42.9375
 20
38.96875
 10
45.515625
 20
41.0
 10
51.8046875
 20
40.1875
 10
51.5
 20
37.4375
 10
49.28125
 20
19.40625
 10
46.1484375
 20
23.9375
 10
43.4609375
 20
27.78125
 10
41.7265625
 20
30.34375
 10
40.109375
 20
32.59375
 10
38.4296875
 20
35.03125
  0
LWPOLYLINE
  5
89
  8
output
100
AcDbEntity
100
AcDbPolyline
  6
CONTINUOUS
420
2302755
 90
    14
 70
   129
 43
2.60000000000000009
 10
78.84375
 20
73.40625
 10
73.078125
 20
81.78125
 10
73.796875
 20
87.59375
 10
74.28125
 20
87.96875
 10
74.4296875
 20
88.90625
 10
74.03125
 20
89.46875
 10
74.4140625
 20
92.59375
 10
88.6328125
 20
90.8125
 10
87.9609375
 20
84.34375
 10
84.28125
 20
84.0
 10
84.015625
 20
81.84375
 10
86.8515625
 20
77.46875
 10
80.375
 20
73.15625
 10
78.84375
 20
73.40625
  0
LWPOLYLINE
  5
8a
  8
output
100
AcDbEntity
100
AcDbPolyline
  6
CONTINUOUS
420
2302755
 90
    13
 70
   129
 43
2.60000000000000009
 10
47.29552801724639721
 20
100.0
 10
53.3515625
 20
91.21875
 10
53.140625
 20
89.46875
 10
48.8359375
 20
86.5
 10
42.703125
 20
82.1875
 10
40.921875
 20
82.5
 10
29.9375
 20
98.28125
 10
32.2931985294126207
 20
100.0
 10
34.23117897727934178
 20
100.0
 10
38.3671875
 20
94.0625
 10
41.265625
 20
96.28125
 10
46.69122314453125
 20
100.0
 10
47.29552801724639721
 20
100.0
  0
HATCH
  5
8b
330
6d
100
AcDbEntity
  8
output
420
15167816
100
AcDbHatch
 10
0.0
 20
0.0
 30
0.0
210
0.0
220
0.0
230
1.0
  2
SOLID
 70
     1
 71
     0
 91
     1
 92
     2
 72
     0
 73
     1
 93
     8
 10
0.0
 20
32.52527085033943877
 10
3.3125
 20
34.84375
 10
12.84375
 20
21.09375
 10
22.390625
 20
7.3125
 10
12.8671875
 20
0.6875
 10
3.3046875
 20
14.4375
 10
0.0
 20
19.18629807693650946
 10
0.0
 20
32.52527085033943877
 97
     0
 75
     0
 76
     1
 98
     0
  0
HATCH
  5
8c
330
6d
100
AcDbEntity
  8
output
420
15167816
100
AcDbHatch
 10
0.0
 20
0.0
 30
0.0
210
0.0
220
0.0
230
1.0
  2
SOLID
 70
     1
 71
     0
 91
     1
 92
     2
 72
     0
 73
     1
 93
    17
 10
32.9609375
 20
34.25
 10
37.3984375
 20
27.875
 10
38.46875
 20
28.625
 10
40.515625
 20
25.71875
 10
39.4375
 20
24.96875
 10
42.1796875
 20
21.03125
 10
40.90625
 20
20.21875
 10
43.6015625
 20
16.28125
 10
45.0859375
 20
17.21875
 10
47.0546875
 20
14.40625
 10
48.921875
 20
15.6875
 10
48.8671875
 20
15.125
 10
47.09818165205069818
 20
0.0
 10
42.1306678921537241
 20
0.0
 10
32.203125
 20
14.3125
 10
23.09375
 20
27.40625
 10
32.9609375
 20
34.25
 97
     0
 75
     0
 76
     1
 98
     0
  0
HATCH
  5
8d
330
6d
100
AcDbEntity
  8
output
420
15167816
100
AcDbHatch
 10
0.0
 20
0.0
 30
0.0
210
0.0
220
0.0
230
1.0
  2
SOLID
 70
     1
 71
     0
 91
     1
 92
     2
 72
     0
 73
     1
 93
    13
 10
25.7890625
 20
48.125
 10
30.5
 20
41.34375
 10
28.8359375
 20
40.1875
 10
18.96875
 20
33.34375
 10
14.25
 20
40.125
 10
4.5
 20
54.15625
 10
0.0
 20
60.63195332483155653
 10
0.0
 20
70.56901764473877847
 10
5.1875
 20
74.15625
 10
9.4375
 20
68.0625
 10
14.3671875
 20
60.96875
 10
24.12379697657888755
 20
46.97047603520331904
 10
25.7890625
 20
48.125
 97
     0
 75
     0
 76
     1
 98
     0
  0
HATCH
  5
8e
330
6d
100
AcDbEntity
  8
output
420
15167816
100
AcDbHatch
 10
0.0
 20
0.0
 30
0.0
210
0.0
220
0.0
230
1.0
  2
SOLID
 70
     1
 71
     0
 91
     1
 92
     2
 72
     0
 73
     1
 93
    14
 10
18.34375
 20
74.21875
 10
13.2421875
 20
81.59375
 10
7.9375
 20
89.1875
 10
17.2578125
 20
95.46875
 10
22.46875
 20
88.0
 10
27.6171875
 20
80.59375
 10
31.7890625
 20
74.59375
 10
32.921875
 20
72.96875
 10
38.15625
 20
65.4375
 10
43.3125
 20
58.03125
 10
34.03125
 20
51.6875
 10
28.859375
 20
59.125
 10
23.625
 20
66.625
 10
18.34375
 20
74.21875
 97
     0
 75
     0
 76
     1
 98
     0
  0
HATCH
  5
8f
330
6d
100
AcDbEntity
  8
output
420
15167816
100
AcDbHatch
 10
0.0
 20
0.0
 30
0.0
210
0.0
220
0.0
230
1.0
  2
SOLID
 70
     1
 71
     0
 91
     1
 92
     2
 72
     0
 73
     1
 93
    16
 10
70.1242264851462096
 20
0.0
 10
66.546875
 20
5.125
 10
63.8515625
 20
5.34375
 10
65.6171875
 20
19.90625
 10
66.0390625
 20
20.65625
 10
68.4140625
 20
21.28125
 10
69.1953125
 20
20.875
 10
75.6640625
 20
11.5625
 10
79.453125
 20
6.09375
 10
79.4296875
 20
5.96875
 10
79.640625
 20
5.84375
 10
80.609375
 20
4.5
 10
80.5390625
 20
4.28125
 10
80.765625
 20
4.21875
 10
83.6953125
 20
0.0
 10
70.1242264851462096
 20
0.0
 97
     0
 75
     0
 76
     1
 98
     0
  0
HATCH
  5
90
330
6d
100
AcDbEntity
  8
output
420
15167816
100
AcDbHatch
 10
0.0
 20
0.0
 30
0.0
210
0.0
220
0.0
230
1.0
  2
SOLID
 70
     1
 71
     0
 91
     1
 92
     2
 72
     0
 73
     1
 93
    49
 10
85.796875
 20
18.1875
 10
85.7109375
 20
18.125
 10
85.65625
 20
18.21875
 10
83.3046875
 20
21.59375
 10
83.390625
 20
21.65625
 10
77.90625
 20
29.5625
 10
77.8203125
 20
29.5
 10
75.6015625
 20
32.6875
 10
73.0234375
 20
36.375
 10
73.1015625
 20
36.4375
 10
68.4921875
 20
43.09375
 10
68.3984375
 20
43.09375
 10
69.390625
 20
51.34375
 10
69.4921875
 20
51.34375
 10
70.859375
 20
52.28125
 10
70.8046875
 20
52.375
 10
84.328125
 20
61.375
 10
87.2421875
 20
63.3125
 10
87.296875
 20
63.21875
 10
94.5625
 20
68.0625
 10
94.5078125
 20
68.15625
 10
97.703125
 20
70.28125
 10
100.0
 20
66.97007091215346009
 10
100.0
 20
54.94203284982359037
 10
94.3515625
 20
51.125
 10
93.421875
 20
52.5
 10
91.2265625
 20
51.0
 10
86.984375
 20
57.15625
 10
76.765625
 20
50.21875
 10
79.4375
 20
46.4375
 10
81.59375
 20
47.8125
 10
84.921875
 20
42.84375
 10
83.96875
 20
42.28125
 10
85.84375
 20
39.625
 10
87.6796875
 20
37.0
 10
88.5546875
 20
37.65625
 10
91.75
 20
33.0625
 10
94.984375
 20
28.40625
 10
94.0546875
 20
27.75
 10
95.796875
 20
25.1875
 10
96.7109375
 20
25.8125
 10
100.0
 20
21.14068877551471815
 10
100.0
 20
15.984375
 10
92.3359375
 20
10.875
 10
91.2421875
 20
10.15625
 10
88.046875
 20
14.75
 10
88.1328125
 20
14.8125
 10
85.8515625
 20
18.125
 10
85.796875
 20
18.1875
 97
     0
 75
     0
 76
     1
 98
     0
  0
HATCH
  5
91
330
6d
100
AcDbEntity
  8
output
420
15167816
100
AcDbHatch
 10
0.0
 20
0.0
 30
0.0
210
0.0
220
0.0
230
1.0
  2
SOLID
 70
     1
 71
     0
 91
     1
 92
     2
 72
     0
 73
     1
 93
    12
 10
38.4296875
 20
35.03125
 10
43.21875
 20
38.59375
 10
42.9375
 20
38.96875
 10
45.515625
 20
41.0
 10
51.8046875
 20
40.1875
 10
51.5
 20
37.4375
 10
49.28125
 20
19.40625
 10
46.1484375
 20
23.9375
 10
43.4609375
 20
27.78125
 10
41.7265625
 20
30.34375
 10
40.109375
 20
32.59375
 10
38.4296875
 20
35.03125
 97
     0
 75
     0
 76
     1
 98
     0
  0
HATCH
  5
92
330
6d
100
AcDbEntity
  8
output
420
15167816
100
AcDbHatch
 10
0.0
 20
0.0
 30
0.0
210
0.0
220
0.0
230
1.0
  2
SOLID
 70
     1
 71
     0
 91
     1
 92
     2
 72
     0
 73
     1
 93
    14
 10
78.84375
 20
73.40625
 10
73.078125
 20
81.78125
 10
73.796875
 20
87.59375
 10
74.28125
 20
87.96875
 10
74.4296875
 20
88.90625
 10
74.03125
 20
89.46875
 10
74.4140625
 20
92.59375
 10
88.6328125
 20
90.8125
 10
87.9609375
 20
84.34375
 10
84.28125
 20
84.0
 10
84.015625
 20
81.84375
 10
86.8515625
 20
77.46875
 10
80.375
 20
73.15625
 10
78.84375
 20
73.40625
 97
     0
 75
     0
 76
     1
 98
     0
  0
HATCH
  5
93
330
6d
100
AcDbEntity
  8
output
420
15167816
100
AcDbHatch
 10
0.0
 20
0.0
 30
0.0
210
0.0
220
0.0
230
1.0
  2
SOLID
 70
     1
 71
     0
 91
     1
 92
     2
 72
     0
 73
     1
 93
    13
 10
47.29552801724639721
 20
100.0
 10
53.3515625
 20
91.21875
 10
53.140625
 20
89.46875
 10
48.8359375
 20
86.5
 10
42.703125
 20
82.1875
 10
40.921875
 20
82.5
 10
29.9375
 20
98.28125
 10
32.2931985294126207
 20
100.0
 10
34.23117897727934178
 20
100.0
 10
38.3671875
 20
94.0625
 10
41.265625
 20
96.28125
 10
46.69122314453125
 20
100.0
 10
47.29552801724639721
 20
100.0
 97
     0
 75
     0
 76
     1
 98
     0
  0
ENDSEC
0
SECTION
2
OBJECTS
0
DICTIONARY
5
C
330
0
100
AcDbDictionary
281
   1
3
ACAD_GROUP
350
D
3
ACAD_LAYOUT
350
1A
3
ACAD_MLEADERSTYLE
350
43
3
ACAD_MLINESTYLE
350
17
3
ACAD_PLOTSETTINGS
350
19
3
ACAD_PLOTSTYLENAME
350
E
3
ACAD_TABLESTYLE
350
42
3
ACAD_VISUALSTYLE
350
2A
0
DICTIONARY
5
D
102
{ACAD_REACTORS
330
C
102
}
330
C
100
AcDbDictionary
281
   1
0
DICTIONARY
5
1A
102
{ACAD_REACTORS
330
C
102
}
330
C
100
AcDbDictionary
281
   1
3
Layout1
350
1E
3
Layout2
350
26
3
Model
350
22
0
DICTIONARY
5
43
102
{ACAD_REACTORS
330
C
102
}
330
C
100
AcDbDictionary
281
   1
0
DICTIONARY
5
17
102
{ACAD_REACTORS
330
C
102
}
330
C
100
AcDbDictionary
281
   1
3
Standard
350
18
0
DICTIONARY
5
19
102
{ACAD_REACTORS
330
C
102
}
330
C
100
AcDbDictionary
281
   1
0
ACDBDICTIONARYWDFLT
5
E
102
{ACAD_REACTORS
330
C
102
}
330
C
100
AcDbDictionary
281
   1
3
Normal
350
F
100
AcDbDictionaryWithDefault
340
F
0
DICTIONARY
5
42
102
{ACAD_REACTORS
330
C
102
}
330
C
100
AcDbDictionary
281
   1
0
DICTIONARY
5
2A
102
{ACAD_REACTORS
330
C
102
}
330
C
100
AcDbDictionary
281
   1
3
2dWireframe
350
2F
3
3D Hidden
350
31
3
3dWireframe
350
30
3
Basic
350
32
3
Brighten
350
36
3
ColorChange
350
3A
3
Conceptual
350
34
3
Dim
350
35
3
Facepattern
350
39
3
Flat
350
2B
3
FlatWithEdges
350
2C
3
Gouraud
350
2D
3
GouraudWithEdges
350
2E
3
Linepattern
350
38
3
Realistic
350
33
3
Thicken
350
37
0
LAYOUT
5
1E
102
{ACAD_REACTORS
330
1A
102
}
330
1A
100
AcDbPlotSettings
1

2
none_device
4

6

40
0.0
41
0.0
42
0.0
43
0.0
44
0.0
45
0.0
46
0.0
47
0.0
48
0.0
49
0.0
140
0.0
141
0.0
142
1.0
143
1.0
70
 688
72
   0
73
   0
74
   5
7

75
  16
76
   0
77
   2
78
 300
147
1.0
148
0.0
149
0.0
100
AcDbLayout
1
Layout1
70
   1
71
   1
10
0.0
20
0.0
11
12.0
21
9.0
12
0.0
22
0.0
32
0.0
14
1.000000000000000E+20
24
1.000000000000000E+20
34
1.000000000000000E+20
15
-1.000000000000000E+20
25
-1.000000000000000E+20
35
-1.000000000000000E+20
146
0.0
13
0.0
23
0.0
33
0.0
16
1.0
26
0.0
36
0.0
17
0.0
27
1.0
37
0.0
76
   0
330
1B
0
LAYOUT
5
26
102
{ACAD_REACTORS
330
1A
102
}
330
1A
100
AcDbPlotSettings
1

2
none_device
4

6

40
0.0
41
0.0
42
0.0
43
0.0
44
0.0
45
0.0
46
0.0
47
0.0
48
0.0
49
0.0
140
0.0
141
0.0
142
1.0
143
1.0
70
 688
72
   0
73
   0
74
   5
7

75
  16
76
   0
77
   2
78
 300
147
1.0
148
0.0
149
0.0
100
AcDbLayout
1
Layout2
70
   1
71
   2
10
0.0
20
0.0
11
0.0
21
0.0
12
0.0
22
0.0
32
0.0
14
0.0
24
0.0
34
0.0
15
0.0
25
0.0
35
0.0
146
0.0
13
0.0
23
0.0
33
0.0
16
1.0
26
0.0
36
0.0
17
0.0
27
1.0
37
0.0
76
   0
330
23
0
LAYOUT
5
22
102
{ACAD_REACTORS
330
1A
102
}
330
1A
100
AcDbPlotSettings
1

2
none_device
4

6

40
0.0
41
0.0
42
0.0
43
0.0
44
0.0
45
0.0
46
0.0
47
0.0
48
0.0
49
0.0
140
0.0
141
0.0
142
1.0
143
1.0
70
1712
72
   0
73
   0
74
   0
7

75
   0
76
   0
77
   2
78
 300
147
1.0
148
0.0
149
0.0
100
AcDbLayout
1
Model
70
   1
71
   0
10
0.0
20
0.0
11
12.0
21
9.0
12
0.0
22
0.0
32
0.0
14
30.0
24
49.75
34
0.0
15
130.5
25
163.1318914119703
35
0.0
146
0.0
13
0.0
23
0.0
33
0.0
16
1.0
26
0.0
36
0.0
17
0.0
27
1.0
37
0.0
76
   0
330
1F
331
29
0
MLINESTYLE
5
18
102
{ACAD_REACTORS
330
17
102
}
330
17
100
AcDbMlineStyle
2
Standard
70
   0
3

62
 256
51
90.0
52
90.0
71
   2
49
0.5
62
 256
6
BYLAYER
49
-0.5
62
 256
6
BYLAYER
0
ACDBPLACEHOLDER
5
F
102
{ACAD_REACTORS
330
E
102
}
330
E
0
VISUALSTYLE
5
2F
102
{ACAD_REACTORS
330
2A
102
}
330
2A
100
AcDbVisualStyle
2
2dWireframe
70
   4
71
   0
72
   2
73
   0
90
      0
40
-0.6
41
-30.0
62
   5
63
   7
421
16777215
74
   1
91
      4
64
   7
65
 257
75
   1
175
   1
42
1.0
92
      0
66
 257
43
1.0
76
   1
77
   6
78
   2
67
   7
79
   5
170
   0
171
   0
290
   0
174
   0
93
      1
44
0.0
173
   0
291
   0
45
0.0
1001
ACAD
1000
AcDbSavedByObjectVersion
1070
   0
0
VISUALSTYLE
5
31
102
{ACAD_REACTORS
330
2A
102
}
330
2A
100
AcDbVisualStyle
2
3D Hidden
70
   6
71
   1
72
   2
73
   2
90
      0
40
-0.6
41
-30.0
62
   5
63
   7
421
16777215
74
   2
91
      2
64
   7
65
 257
75
   2
175
   1
42
40.0
92
      0
66
 257
43
1.0
76
   1
77
   6
78
   2
67
   7
79
   3
170
   0
171
   0
290
   0
174
   0
93
      1
44
0.0
173
   0
291
   0
45
0.0
1001
ACAD
1000
AcDbSavedByObjectVersion
1070
   0
0
VISUALSTYLE
5
30
102
{ACAD_REACTORS
330
2A
102
}
330
2A
100
AcDbVisualStyle
2
3dWireframe
70
   5
71
   0
72
   2
73
   0
90
      0
40
-0.6
41
-30.0
62
   5
63
   7
421
16777215
74
   1
91
      4
64
   7
65
 257
75
   1
175
   1
42
1.0
92
      0
66
 257
43
1.0
76
   1
77
   6
78
   2
67
   7
79
   5
170
   0
171
   0
290
   0
174
   0
93
      1
44
0.0
173
   0
291
   0
45
0.0
1001
ACAD
1000
AcDbSavedByObjectVersion
1070
   0
0
VISUALSTYLE
5
32
102
{ACAD_REACTORS
330
2A
102
}
330
2A
100
AcDbVisualStyle
2
Basic
70
   7
71
   1
72
   0
73
   1
90
      0
40
-0.6
41
-30.0
62
   5
63
   7
421
16777215
74
   0
91
      4
64
   7
65
 257
75
   1
175
   1
42
1.0
92
      8
66
   7
43
1.0
76
   1
77
   6
78
   2
67
   7
79
   5
170
   0
171
   0
290
   0
174
   0
93
      1
44
0.0
173
   0
291
   1
45
0.0
1001
ACAD
1000
AcDbSavedByObjectVersion
1070
   0
0
VISUALSTYLE
5
36
102
{ACAD_REACTORS
330
2A
102
}
330
2A
100
AcDbVisualStyle
2
Brighten
70
  12
71
   2
72
   2
73
   0
90
      0
40
-0.6
41
-30.0
62
   5
63
   7
421
16777215
74
   1
91
      4
64
   7
65
 257
75
   1
175
   1
42
1.0
92
      8
66
   7
43
1.0
76
   1
77
   6
78
   2
67
   7
79
   5
170
   0
171
   0
290
   0
174
   0
93
      1
44
50.0
173
   0
291
   1
45
0.0
1001
ACAD
1000
AcDbSavedByObjectVersion
1070
   0
0
VISUALSTYLE
5
3A
102
{ACAD_REACTORS
330
2A
102
}
330
2A
100
AcDbVisualStyle
2
ColorChange
70
  16
71
   2
72
   2
73
   3
90
      0
40
-0.6
41
-30.0
62
   5
63
   8
421
8421504
74
   1
91
      4
64
   7
65
 257
75
   1
175
   1
42
1.0
92
      8
66
   8
424
8421504
43
1.0
76
   1
77
   6
78
   2
67
   7
79
   5
170
   0
171
   0
290
   0
174
   0
93
      1
44
0.0
173
   0
291
   1
45
0.0
1001
ACAD
1000
AcDbSavedByObjectVersion
1070
   0
0
VISUALSTYLE
5
34
102
{ACAD_REACTORS
330
2A
102
}
330
2A
100
AcDbVisualStyle
2
Conceptual
70
   9
71
   3
72
   2
73
   0
90
      0
40
-0.6
41
-30.0
62
   5
63
   7
421
16777215
74
   2
91
      2
64
   7
65
 257
75
   1
175
   1
42
40.0
92
      8
66
   7
43
1.0
76
   1
77
   6
78
   2
67
   7
79
   3
170
   0
171
   0
290
   0
174
   0
93
      1
44
0.0
173
   0
291
   0
45
0.0
1001
ACAD
1000
AcDbSavedByObjectVersion
1070
   0
0
VISUALSTYLE
5
35
102
{ACAD_REACTORS
330
2A
102
}
330
2A
100
AcDbVisualStyle
2
Dim
70
  11
71
   2
72
   2
73
   0
90
      0
40
-0.6
41
-30.0
62
   5
63
   7
421
16777215
74
   1
91
      4
64
   7
65
 257
75
   1
175
   1
42
1.0
92
      8
66
   7
43
1.0
76
   1
77
   6
78
   2
67
   7
79
   5
170
   0
171
   0
290
   0
174
   0
93
      1
44
-50.0
173
   0
291
   1
45
0.0
1001
ACAD
1000
AcDbSavedByObjectVersion
1070
   0
0
VISUALSTYLE
5
39
102
{ACAD_REACTORS
330
2A
102
}
330
2A
100
AcDbVisualStyle
2
Facepattern
70
  15
71
   2
72
   2
73
   0
90
      0
40
-0.6
41
-30.0
62
   5
63
   7
421
16777215
74
   1
91
      4
64
   7
65
 257
75
   1
175
   1
42
1.0
92
      8
66
   7
43
1.0
76
   1
77
   6
78
   2
67
   7
79
   5
170
   0
171
   0
290
   0
174
   0
93
      1
44
0.0
173
   0
291
   1
45
0.0
1001
ACAD
1000
AcDbSavedByObjectVersion
1070
   0
0
VISUALSTYLE
5
2B
102
{ACAD_REACTORS
330
2A
102
}
330
2A
100
AcDbVisualStyle
2
Flat
70
   0
71
   2
72
   1
73
   1
90
      2
40
-0.6
41
30.0
62
   5
63
   7
421
16777215
74
   0
91
      4
64
   7
65
 257
75
   1
175
   1
42
1.0
92
      8
66
   7
43
1.0
76
   1
77
   6
78
   2
67
   7
79
   5
170
   0
171
   0
290
   0
174
   0
93
     13
44
0.0
173
   0
291
   1
45
0.0
1001
ACAD
1000
AcDbSavedByObjectVersion
1070
   0
0
VISUALSTYLE
5
2C
102
{ACAD_REACTORS
330
2A
102
}
330
2A
100
AcDbVisualStyle
2
FlatWithEdges
70
   1
71
   2
72
   1
73
   1
90
      2
40
-0.6
41
30.0
62
   5
63
   7
421
16777215
74
   1
91
      4
64
   7
65
 257
75
   1
175
   1
42
1.0
92
      0
66
 257
43
1.0
76
   1
77
   6
78
   2
67
   7
79
   5
170
   0
171
   0
290
   0
174
   0
93
     13
44
0.0
173
   0
291
   1
45
0.0
1001
ACAD
1000
AcDbSavedByObjectVersion
1070
   0
0
VISUALSTYLE
5
2D
102
{ACAD_REACTORS
330
2A
102
}
330
2A
100
AcDbVisualStyle
2
Gouraud
70
   2
71
   2
72
   2
73
   1
90
      2
40
-0.6
41
30.0
62
   5
63
   7
421
16777215
74
   0
91
      4
64
   7
65
 257
75
   1
175
   1
42
1.0
92
      0
66
   7
43
1.0
76
   1
77
   6
78
   2
67
   7
79
   5
170
   0
171
   0
290
   0
174
   0
93
     13
44
0.0
173
   0
291
   1
45
0.0
1001
ACAD
1000
AcDbSavedByObjectVersion
1070
   0
0
VISUALSTYLE
5
2E
102
{ACAD_REACTORS
330
2A
102
}
330
2A
100
AcDbVisualStyle
2
GouraudWithEdges
70
   3
71
   2
72
   2
73
   1
90
      2
40
-0.6
41
30.0
62
   5
63
   7
421
16777215
74
   1
91
      4
64
   7
65
 257
75
   1
175
   1
42
1.0
92
      0
66
 257
43
1.0
76
   1
77
   6
78
   2
67
   7
79
   5
170
   0
171
   0
290
   0
174
   0
93
     13
44
0.0
173
   0
291
   1
45
0.0
1001
ACAD
1000
AcDbSavedByObjectVersion
1070
   0
0
VISUALSTYLE
5
38
102
{ACAD_REACTORS
330
2A
102
}
330
2A
100
AcDbVisualStyle
2
Linepattern
70
  14
71
   2
72
   2
73
   0
90
      0
40
-0.6
41
-30.0
62
   5
63
   7
421
16777215
74
   1
91
      4
64
   7
65
 257
75
   7
175
   7
42
1.0
92
      8
66
   7
43
1.0
76
   1
77
   6
78
   2
67
   7
79
   5
170
   0
171
   0
290
   0
174
   0
93
      1
44
0.0
173
   0
291
   1
45
0.0
1001
ACAD
1000
AcDbSavedByObjectVersion
1070
   0
0
VISUALSTYLE
5
33
102
{ACAD_REACTORS
330
2A
102
}
330
2A
100
AcDbVisualStyle
2
Realistic
70
   8
71
   2
72
   2
73
   0
90
      0
40
-0.6
41
-30.0
62
   5
63
   7
421
16777215
74
   1
91
      0
64
   7
65
 257
75
   1
175
   1
42
1.0
92
      8
66
   8
424
7895160
43
1.0
76
   1
77
   6
78
   2
67
   7
79
   5
170
   0
171
   0
290
   0
174
   0
93
     13
44
0.0
173
   0
291
   0
45
0.0
1001
ACAD
1000
AcDbSavedByObjectVersion
1070
   0
0
VISUALSTYLE
5
37
102
{ACAD_REACTORS
330
2A
102
}
330
2A
100
AcDbVisualStyle
2
Thicken
70
  13
71
   2
72
   2
73
   0
90
      0
40
-0.6
41
-30.0
62
   5
63
   7
421
16777215
74
   1
91
      4
64
   7
65
 257
75
   1
175
   1
42
1.0
92
     12
66
   7
43
1.0
76
   1
77
   6
78
   2
67
   7
79
   5
170
   0
171
   0
290
   0
174
   0
93
      1
44
0.0
173
   0
291
   1
45
0.0
1001
ACAD
1000
AcDbSavedByObjectVersion
1070
   0
0
ENDSEC
  0
EOF
