999
DXF created from QGIS
  0
SECTION
  2
HEADER
  9
$ACADVER
  1
AC1015
  9
$EXTMIN
 10
0.0
 20
0.0
 30
0.0
  9
$EXTMAX
 10
100.0
 20
100.0
 30
0.0
  9
$LTSCALE
 40
1.0
  9
$PDMODE
 70
    33
  9
$PDSIZE
 40
     1
  9
$PSLTSCALE
 70
     0
  9
$HANDSEED
  5
9999999
  9
$DWGCODEPAGE
  3

  0
ENDSEC
  0
SECTION
  2
TABLES
  0
TABLE
  2
LTYPE
  5
64
100
AcDbSymbolTable
 70
     5
  0
LTYPE
  5
65
100
AcDbSymbolTableRecord
100
AcDbLinetypeTableRecord
  2
ByLayer
 70
    64
  3
Defaultstyle
 72
    65
 73
     0
 40
0.0
  0
LTYPE
  5
66
100
AcDbSymbolTableRecord
100
AcDbLinetypeTableRecord
  2
ByBlock
 70
    64
  3
Defaultstyle
 72
    65
 73
     0
 40
0.0
  0
LTYPE
  5
67
100
AcDbSymbolTableRecord
100
AcDbLinetypeTableRecord
  2
CONTINUOUS
 70
    64
  3
Defaultstyle
 72
    65
 73
     0
 40
0.0
  0
LTYPE
  5
68
100
AcDbSymbolTableRecord
100
AcDbLinetypeTableRecord
  2
DASH
 70
    64
  3

 72
    65
 73
     2
 40
26.0
 49
20.0
 74
     0
 49
-5.99999999999999911
 74
     0
  0
LTYPE
  5
69
100
AcDbSymbolTableRecord
100
AcDbLinetypeTableRecord
  2
DOT
 70
    64
  3

 72
    65
 73
     2
 40
11.99999999999999822
 49
5.99999999999999911
 74
     0
 49
-5.99999999999999911
 74
     0
  0
LTYPE
  5
6a
100
AcDbSymbolTableRecord
100
AcDbLinetypeTableRecord
  2
DASHDOT
 70
    64
  3

 72
    65
 73
     4
 40
38.0
 49
20.0
 74
     0
 49
-5.99999999999999911
 74
     0
 49
5.99999999999999911
 74
     0
 49
-5.99999999999999911
 74
     0
  0
LTYPE
  5
6b
100
AcDbSymbolTableRecord
100
AcDbLinetypeTableRecord
  2
DASHDOTDOT
 70
    64
  3

 72
    65
 73
     6
 40
50.0
 49
20.0
 74
     0
 49
-5.99999999999999911
 74
     0
 49
5.99999999999999911
 74
     0
 49
-5.99999999999999911
 74
     0
 49
5.99999999999999911
 74
     0
 49
-5.99999999999999911
 74
     0
  0
ENDTAB
  0
TABLE
  2
BLOCK_RECORD
  5
6c
100
AcDbSymbolTable
 70
     0
  0
BLOCK_RECORD
  5
6d
100
AcDbSymbolTableRecord
100
AcDbBlockTableRecord
  2
*Model_Space
  0
BLOCK_RECORD
  5
6e
100
AcDbSymbolTableRecord
100
AcDbBlockTableRecord
  2
*Paper_Space
  0
BLOCK_RECORD
  5
6f
100
AcDbSymbolTableRecord
100
AcDbBlockTableRecord
  2
*Paper_Space0
  0
ENDTAB
  0
TABLE
  2
APPID
  5
70
100
AcDbSymbolTable
 70
     1
  0
APPID
  5
71
100
AcDbSymbolTableRecord
100
AcDbRegAppTableRecord
  2
ACAD
 70
     0
  0
ENDTAB
  0
TABLE
  2
VIEW
  5
72
100
AcDbSymbolTable
 70
     0
  0
ENDTAB
  0
TABLE
  2
UCS
  5
73
100
AcDbSymbolTable
 70
     0
  0
ENDTAB
  0
TABLE
  2
VPORT
  5
74
100
AcDbSymbolTable
  0
VPORT
  5
75
100
AcDbSymbolTableRecord
100
AcDbViewportTableRecord
  2
*ACTIVE
 70
     0
 10
0.0
 20
0.0
 11
1.0
 21
1.0
 12
0.0
 22
0.0
 13
0.0
 23
0.0
 14
1.0
 24
1.0
 15
1.0
 25
1.0
 16
0.0
 26
0.0
 36
1.0
 17
50.0
 27
50.0
 40
100.0
 41
1.0
 42
50.0
 43
0.0
 44
0.0
 50
0.0
 51
0.0
 71
     0
 72
   100
 73
     1
 74
     1
 75
     0
 76
     0
 77
     0
 78
     0
281
     0
 65
     1
110
0.0
120
0.0
130
0.0
111
1.0
121
0.0
131
0.0
112
0.0
122
1.0
132
0.0
 79
     0
146
0.0
 70
     0
  0
ENDTAB
  0
TABLE
  2
DIMSTYLE
  5
76
100
AcDbSymbolTable
100
AcDbDimStyleTable
 70
     0
  0
ENDTAB
  0
TABLE
  2
LAYER
  5
77
100
AcDbSymbolTable
 70
     2
  0
LAYER
  5
78
100
AcDbSymbolTableRecord
100
AcDbLayerTableRecord
  2
0
 70
    64
 62
     1
  6
CONTINUOUS
390
f
  0
LAYER
  5
79
100
AcDbSymbolTableRecord
100
AcDbLayerTableRecord
  2
output
 70
    64
 62
     1
  6
CONTINUOUS
390
f
  0
ENDTAB
  0
TABLE
  2
STYLE
  5
7a
100
AcDbSymbolTable
 70
     1
  0
STYLE
  5
7b
100
AcDbSymbolTableRecord
100
AcDbTextStyleTableRecord
  2
STANDARD
 70
    64
 40
0.0
 41
1.0
 50
0.0
 71
     0
 42
5.0
  3
romans.shx
  4

  0
ENDTAB
  0
ENDSEC
  0
SECTION
  2
BLOCKS
  0
BLOCK
  5
7c
330
6d
100
AcDbEntity
  8
0
100
AcDbBlockBegin
  2
*Model_Space
 70
     0
 10
0.0
 20
0.0
 30
0.0
  3
*Model_Space
  1

  0
ENDBLK
  5
7d
100
AcDbEntity
  8
0
100
AcDbBlockEnd
  0
BLOCK
  5
7e
330
6e
100
AcDbEntity
  8
0
100
AcDbBlockBegin
  2
*Paper_Space
 70
     0
 10
0.0
 20
0.0
 30
0.0
  3
*Paper_Space
  1

  0
ENDBLK
  5
7f
100
AcDbEntity
  8
0
100
AcDbBlockEnd
  0
BLOCK
  5
80
330
6f
100
AcDbEntity
  8
0
100
AcDbBlockBegin
  2
*Paper_Space0
 70
     0
 10
0.0
 20
0.0
 30
0.0
  3
*Paper_Space0
  1

  0
ENDBLK
  5
81
100
AcDbEntity
  8
0
100
AcDbBlockEnd
  0
ENDSEC
  0
SECTION
  2
ENTITIES
  0
LWPOLYLINE
  5
82
  8
output
100
AcDbEntity
100
AcDbPolyline
  6
CONTINUOUS
420
2302755
 90
    17
 70
   129
 43
2.60000000000000009
 10
44.921875
 20
18.375
 10
48.203125
 20
13.4375
 10
43.3359375
 20
10.21875
 10
44.609375
 20
8.3125
 10
49.453125
 20
11.53125
 10
49.7734375
 20
11.0625
 10
50.84375
 20
11.78125
 10
53.3828125
 20
8.0
 10
48.640625
 20
4.8125
 10
50.2265625
 20
2.46875
 10
50.390625
 20
2.5625
 10
52.09417040359403472
 20
0.0
 10
37.14338755303469952
 20
0.0
 10
34.015625
 20
4.6875
 10
37.78125
 20
7.28125
 10
34.828125
 20
11.65625
 10
44.921875
 20
18.375
  0
LWPOLYLINE
  5
83
  8
output
100
AcDbEntity
100
AcDbPolyline
  6
CONTINUOUS
420
2302755
 90
    17
 70
   129
 43
2.60000000000000009
 10
80.46875
 20
5.71875
 10
87.75
 20
10.59375
 10
84.6015625
 20
15.34375
 10
88.3984375
 20
17.875
 10
91.4140625
 20
13.3125
 10
93.7734375
 20
14.875
 10
90.71875
 20
19.53125
 10
94.140625
 20
21.78125
 10
94.9765625
 20
20.53125
 10
96.53125
 20
21.5625
 10
100.0
 20
16.32349137932760641
 10
100.0
 20
0.0
 10
64.7987069780647289
 20
0.0
 10
64.5078125
 20
0.4375
 10
69.484375
 20
3.71875
 10
71.9140625
 20
0.0625
 10
80.46875
 20
5.71875
  0
LWPOLYLINE
  5
84
  8
output
100
AcDbEntity
100
AcDbPolyline
  6
CONTINUOUS
420
2302755
 90
    13
 70
   129
 43
2.60000000000000009
 10
41.84375
 20
26.96875
 10
44.3203125
 20
23.1875
 10
42.0546875
 20
21.71875
 10
32.2265625
 20
15.15625
 10
26.9609375
 20
23.125
 10
28.9296875
 20
24.4375
 10
27.5859375
 20
26.4375
 10
25.625
 20
25.125
 10
20.4453125
 20
32.9375
 10
30.28125
 20
39.46875
 10
32.671875
 20
35.875
 10
34.890625
 20
37.34375
 10
41.84375
 20
26.96875
  0
LWPOLYLINE
  5
85
  8
output
100
AcDbEntity
100
AcDbPolyline
  6
CONTINUOUS
420
2302755
 90
    15
 70
   129
 43
2.60000000000000009
 10
51.0625
 20
41.0625
 10
44.640625
 20
50.78125
 10
52.6796875
 20
56.125
 10
55.0
 20
52.625
 10
56.015625
 20
53.3125
 10
57.0390625
 20
53.96875
 10
54.71875
 20
57.5
 10
62.828125
 20
62.875
 10
69.3515625
 20
53.03125
 10
68.8828125
 20
52.71875
 10
65.4765625
 20
50.46875
 10
66.8671875
 20
48.3125
 10
56.328125
 20
41.3125
 10
54.8515625
 20
43.59375
 10
51.0625
 20
41.0625
  0
LWPOLYLINE
  5
86
  8
output
100
AcDbEntity
100
AcDbPolyline
  6
CONTINUOUS
420
2302755
 90
    21
 70
   129
 43
2.60000000000000009
 10
10.6640625
 20
57.375
 10
9.9921875
 20
58.40625
 10
9.3203125
 20
59.40625
 10
7.34375
 20
58.125
 10
4.453125
 20
62.46875
 10
0.0
 20
69.16730667371302843
 10
0.0
 20
89.67827436741208658
 10
0.5078125
 20
90.0
 10
2.796875
 20
86.53125
 10
4.96875
 20
88.03125
 10
8.5
 20
82.6875
 10
11.7890625
 20
77.75
 10
9.5234375
 20
76.21875
 10
14.2890625
 20
69.09375
 10
16.3984375
 20
70.46875
 10
23.359375
 20
60.0
 10
21.203125
 20
58.59375
 10
26.28125
 20
50.90625
 10
16.46875
 20
44.375
 10
8.6953125
 20
56.09375
 10
10.6640625
 20
57.375
  0
LWPOLYLINE
  5
87
  8
output
100
AcDbEntity
100
AcDbPolyline
  6
CONTINUOUS
420
2302755
 90
    20
 70
   129
 43
2.60000000000000009
 10
81.90625
 20
57.15625
 10
79.28125
 20
61.125
 10
78.4765625
 20
60.5625
 10
72.625
 20
69.375
 10
77.3359375
 20
72.5
 10
80.453125
 20
67.8125
 10
88.5078125
 20
73.1875
 10
96.96875
 20
78.84375
 10
93.8828125
 20
83.5
 10
96.1953125
 20
85.03125
 10
93.375
 20
89.28125
 10
100.0
 20
93.67629283963469788
 10
100.0
 20
65.04130244755651802
 10
98.3515625
 20
67.53125
 10
94.125
 20
64.71875
 10
90.3125
 20
62.1875
 10
95.8984375
 20
53.78125
 10
86.9453125
 20
47.8125
 10
81.1015625
 20
56.625
 10
81.90625
 20
57.15625
  0
LWPOLYLINE
  5
88
  8
output
100
AcDbEntity
100
AcDbPolyline
  6
CONTINUOUS
420
2302755
 90
    13
 70
   129
 43
2.60000000000000009
 10
29.6796875
 20
73.28125
 10
23.078125
 20
83.125
 10
26.7421875
 20
85.59375
 10
25.2421875
 20
87.78125
 10
35.6875
 20
94.78125
 10
37.1875
 20
92.5
 10
41.0625
 20
95.0625
 10
47.5546875
 20
85.1875
 10
39.7578125
 20
80.0
 10
37.4296875
 20
83.5
 10
35.390625
 20
82.125
 10
37.7265625
 20
78.625
 10
29.6796875
 20
73.28125
  0
LWPOLYLINE
  5
89
  8
output
100
AcDbEntity
100
AcDbPolyline
  6
CONTINUOUS
420
2302755
 90
    11
 70
   129
 43
2.60000000000000009
 10
53.37632275132637005
 20
100.0
 10
65.02417568897362798
 20
100.0
 10
67.0859375
 20
96.9375
 10
71.296875
 20
99.75
 10
74.4140625
 20
95.0625
 10
73.578125
 20
94.5
 10
70.0625
 20
92.1875
 10
75.703125
 20
83.59375
 10
66.984375
 20
77.875
 10
52.625
 20
99.5
 10
53.37632275132637005
 20
100.0
  0
HATCH
  5
8a
330
6d
100
AcDbEntity
  8
output
420
15167816
100
AcDbHatch
 10
0.0
 20
0.0
 30
0.0
210
0.0
220
0.0
230
1.0
  2
SOLID
 70
     1
 71
     0
 91
     1
 92
     2
 72
     0
 73
     1
 93
    17
 10
44.921875
 20
18.375
 10
48.203125
 20
13.4375
 10
43.3359375
 20
10.21875
 10
44.609375
 20
8.3125
 10
49.453125
 20
11.53125
 10
49.7734375
 20
11.0625
 10
50.84375
 20
11.78125
 10
53.3828125
 20
8.0
 10
48.640625
 20
4.8125
 10
50.2265625
 20
2.46875
 10
50.390625
 20
2.5625
 10
52.09417040359403472
 20
0.0
 10
37.14338755303469952
 20
0.0
 10
34.015625
 20
4.6875
 10
37.78125
 20
7.28125
 10
34.828125
 20
11.65625
 10
44.921875
 20
18.375
 97
     0
 75
     0
 76
     1
 98
     0
  0
HATCH
  5
8b
330
6d
100
AcDbEntity
  8
output
420
15167816
100
AcDbHatch
 10
0.0
 20
0.0
 30
0.0
210
0.0
220
0.0
230
1.0
  2
SOLID
 70
     1
 71
     0
 91
     1
 92
     2
 72
     0
 73
     1
 93
    17
 10
80.46875
 20
5.71875
 10
87.75
 20
10.59375
 10
84.6015625
 20
15.34375
 10
88.3984375
 20
17.875
 10
91.4140625
 20
13.3125
 10
93.7734375
 20
14.875
 10
90.71875
 20
19.53125
 10
94.140625
 20
21.78125
 10
94.9765625
 20
20.53125
 10
96.53125
 20
21.5625
 10
100.0
 20
16.32349137932760641
 10
100.0
 20
0.0
 10
64.7987069780647289
 20
0.0
 10
64.5078125
 20
0.4375
 10
69.484375
 20
3.71875
 10
71.9140625
 20
0.0625
 10
80.46875
 20
5.71875
 97
     0
 75
     0
 76
     1
 98
     0
  0
HATCH
  5
8c
330
6d
100
AcDbEntity
  8
output
420
15167816
100
AcDbHatch
 10
0.0
 20
0.0
 30
0.0
210
0.0
220
0.0
230
1.0
  2
SOLID
 70
     1
 71
     0
 91
     1
 92
     2
 72
     0
 73
     1
 93
    13
 10
41.84375
 20
26.96875
 10
44.3203125
 20
23.1875
 10
42.0546875
 20
21.71875
 10
32.2265625
 20
15.15625
 10
26.9609375
 20
23.125
 10
28.9296875
 20
24.4375
 10
27.5859375
 20
26.4375
 10
25.625
 20
25.125
 10
20.4453125
 20
32.9375
 10
30.28125
 20
39.46875
 10
32.671875
 20
35.875
 10
34.890625
 20
37.34375
 10
41.84375
 20
26.96875
 97
     0
 75
     0
 76
     1
 98
     0
  0
HATCH
  5
8d
330
6d
100
AcDbEntity
  8
output
420
15167816
100
AcDbHatch
 10
0.0
 20
0.0
 30
0.0
210
0.0
220
0.0
230
1.0
  2
SOLID
 70
     1
 71
     0
 91
     1
 92
     2
 72
     0
 73
     1
 93
    15
 10
51.0625
 20
41.0625
 10
44.640625
 20
50.78125
 10
52.6796875
 20
56.125
 10
55.0
 20
52.625
 10
56.015625
 20
53.3125
 10
57.0390625
 20
53.96875
 10
54.71875
 20
57.5
 10
62.828125
 20
62.875
 10
69.3515625
 20
53.03125
 10
68.8828125
 20
52.71875
 10
65.4765625
 20
50.46875
 10
66.8671875
 20
48.3125
 10
56.328125
 20
41.3125
 10
54.8515625
 20
43.59375
 10
51.0625
 20
41.0625
 97
     0
 75
     0
 76
     1
 98
     0
  0
HATCH
  5
8e
330
6d
100
AcDbEntity
  8
output
420
15167816
100
AcDbHatch
 10
0.0
 20
0.0
 30
0.0
210
0.0
220
0.0
230
1.0
  2
SOLID
 70
     1
 71
     0
 91
     1
 92
     2
 72
     0
 73
     1
 93
    21
 10
10.6640625
 20
57.375
 10
9.9921875
 20
58.40625
 10
9.3203125
 20
59.40625
 10
7.34375
 20
58.125
 10
4.453125
 20
62.46875
 10
0.0
 20
69.16730667371302843
 10
0.0
 20
89.67827436741208658
 10
0.5078125
 20
90.0
 10
2.796875
 20
86.53125
 10
4.96875
 20
88.03125
 10
8.5
 20
82.6875
 10
11.7890625
 20
77.75
 10
9.5234375
 20
76.21875
 10
14.2890625
 20
69.09375
 10
16.3984375
 20
70.46875
 10
23.359375
 20
60.0
 10
21.203125
 20
58.59375
 10
26.28125
 20
50.90625
 10
16.46875
 20
44.375
 10
8.6953125
 20
56.09375
 10
10.6640625
 20
57.375
 97
     0
 75
     0
 76
     1
 98
     0
  0
HATCH
  5
8f
330
6d
100
AcDbEntity
  8
output
420
15167816
100
AcDbHatch
 10
0.0
 20
0.0
 30
0.0
210
0.0
220
0.0
230
1.0
  2
SOLID
 70
     1
 71
     0
 91
     1
 92
     2
 72
     0
 73
     1
 93
    20
 10
81.90625
 20
57.15625
 10
79.28125
 20
61.125
 10
78.4765625
 20
60.5625
 10
72.625
 20
69.375
 10
77.3359375
 20
72.5
 10
80.453125
 20
67.8125
 10
88.5078125
 20
73.1875
 10
96.96875
 20
78.84375
 10
93.8828125
 20
83.5
 10
96.1953125
 20
85.03125
 10
93.375
 20
89.28125
 10
100.0
 20
93.67629283963469788
 10
100.0
 20
65.04130244755651802
 10
98.3515625
 20
67.53125
 10
94.125
 20
64.71875
 10
90.3125
 20
62.1875
 10
95.8984375
 20
53.78125
 10
86.9453125
 20
47.8125
 10
81.1015625
 20
56.625
 10
81.90625
 20
57.15625
 97
     0
 75
     0
 76
     1
 98
     0
  0
HATCH
  5
90
330
6d
100
AcDbEntity
  8
output
420
15167816
100
AcDbHatch
 10
0.0
 20
0.0
 30
0.0
210
0.0
220
0.0
230
1.0
  2
SOLID
 70
     1
 71
     0
 91
     1
 92
     2
 72
     0
 73
     1
 93
    13
 10
29.6796875
 20
73.28125
 10
23.078125
 20
83.125
 10
26.7421875
 20
85.59375
 10
25.2421875
 20
87.78125
 10
35.6875
 20
94.78125
 10
37.1875
 20
92.5
 10
41.0625
 20
95.0625
 10
47.5546875
 20
85.1875
 10
39.7578125
 20
80.0
 10
37.4296875
 20
83.5
 10
35.390625
 20
82.125
 10
37.7265625
 20
78.625
 10
29.6796875
 20
73.28125
 97
     0
 75
     0
 76
     1
 98
     0
  0
HATCH
  5
91
330
6d
100
AcDbEntity
  8
output
420
15167816
100
AcDbHatch
 10
0.0
 20
0.0
 30
0.0
210
0.0
220
0.0
230
1.0
  2
SOLID
 70
     1
 71
     0
 91
     1
 92
     2
 72
     0
 73
     1
 93
    11
 10
53.37632275132637005
 20
100.0
 10
65.02417568897362798
 20
100.0
 10
67.0859375
 20
96.9375
 10
71.296875
 20
99.75
 10
74.4140625
 20
95.0625
 10
73.578125
 20
94.5
 10
70.0625
 20
92.1875
 10
75.703125
 20
83.59375
 10
66.984375
 20
77.875
 10
52.625
 20
99.5
 10
53.37632275132637005
 20
100.0
 97
     0
 75
     0
 76
     1
 98
     0
  0
ENDSEC
0
SECTION
2
OBJECTS
0
DICTIONARY
5
C
330
0
100
AcDbDictionary
281
   1
3
ACAD_GROUP
350
D
3
ACAD_LAYOUT
350
1A
3
ACAD_MLEADERSTYLE
350
43
3
ACAD_MLINESTYLE
350
17
3
ACAD_PLOTSETTINGS
350
19
3
ACAD_PLOTSTYLENAME
350
E
3
ACAD_TABLESTYLE
350
42
3
ACAD_VISUALSTYLE
350
2A
0
DICTIONARY
5
D
102
{ACAD_REACTORS
330
C
102
}
330
C
100
AcDbDictionary
281
   1
0
DICTIONARY
5
1A
102
{ACAD_REACTORS
330
C
102
}
330
C
100
AcDbDictionary
281
   1
3
Layout1
350
1E
3
Layout2
350
26
3
Model
350
22
0
DICTIONARY
5
43
102
{ACAD_REACTORS
330
C
102
}
330
C
100
AcDbDictionary
281
   1
0
DICTIONARY
5
17
102
{ACAD_REACTORS
330
C
102
}
330
C
100
AcDbDictionary
281
   1
3
Standard
350
18
0
DICTIONARY
5
19
102
{ACAD_REACTORS
330
C
102
}
330
C
100
AcDbDictionary
281
   1
0
ACDBDICTIONARYWDFLT
5
E
102
{ACAD_REACTORS
330
C
102
}
330
C
100
AcDbDictionary
281
   1
3
Normal
350
F
100
AcDbDictionaryWithDefault
340
F
0
DICTIONARY
5
42
102
{ACAD_REACTORS
330
C
102
}
330
C
100
AcDbDictionary
281
   1
0
DICTIONARY
5
2A
102
{ACAD_REACTORS
330
C
102
}
330
C
100
AcDbDictionary
281
   1
3
2dWireframe
350
2F
3
3D Hidden
350
31
3
3dWireframe
350
30
3
Basic
350
32
3
Brighten
350
36
3
ColorChange
350
3A
3
Conceptual
350
34
3
Dim
350
35
3
Facepattern
350
39
3
Flat
350
2B
3
FlatWithEdges
350
2C
3
Gouraud
350
2D
3
GouraudWithEdges
350
2E
3
Linepattern
350
38
3
Realistic
350
33
3
Thicken
350
37
0
LAYOUT
5
1E
102
{ACAD_REACTORS
330
1A
102
}
330
1A
100
AcDbPlotSettings
1

2
none_device
4

6

40
0.0
41
0.0
42
0.0
43
0.0
44
0.0
45
0.0
46
0.0
47
0.0
48
0.0
49
0.0
140
0.0
141
0.0
142
1.0
143
1.0
70
 688
72
   0
73
   0
74
   5
7

75
  16
76
   0
77
   2
78
 300
147
1.0
148
0.0
149
0.0
100
AcDbLayout
1
Layout1
70
   1
71
   1
10
0.0
20
0.0
11
12.0
21
9.0
12
0.0
22
0.0
32
0.0
14
1.000000000000000E+20
24
1.000000000000000E+20
34
1.000000000000000E+20
15
-1.000000000000000E+20
25
-1.000000000000000E+20
35
-1.000000000000000E+20
146
0.0
13
0.0
23
0.0
33
0.0
16
1.0
26
0.0
36
0.0
17
0.0
27
1.0
37
0.0
76
   0
330
1B
0
LAYOUT
5
26
102
{ACAD_REACTORS
330
1A
102
}
330
1A
100
AcDbPlotSettings
1

2
none_device
4

6

40
0.0
41
0.0
42
0.0
43
0.0
44
0.0
45
0.0
46
0.0
47
0.0
48
0.0
49
0.0
140
0.0
141
0.0
142
1.0
143
1.0
70
 688
72
   0
73
   0
74
   5
7

75
  16
76
   0
77
   2
78
 300
147
1.0
148
0.0
149
0.0
100
AcDbLayout
1
Layout2
70
   1
71
   2
10
0.0
20
0.0
11
0.0
21
0.0
12
0.0
22
0.0
32
0.0
14
0.0
24
0.0
34
0.0
15
0.0
25
0.0
35
0.0
146
0.0
13
0.0
23
0.0
33
0.0
16
1.0
26
0.0
36
0.0
17
0.0
27
1.0
37
0.0
76
   0
330
23
0
LAYOUT
5
22
102
{ACAD_REACTORS
330
1A
102
}
330
1A
100
AcDbPlotSettings
1

2
none_device
4

6

40
0.0
41
0.0
42
0.0
43
0.0
44
0.0
45
0.0
46
0.0
47
0.0
48
0.0
49
0.0
140
0.0
141
0.0
142
1.0
143
1.0
70
1712
72
   0
73
   0
74
   0
7

75
   0
76
   0
77
   2
78
 300
147
1.0
148
0.0
149
0.0
100
AcDbLayout
1
Model
70
   1
71
   0
10
0.0
20
0.0
11
12.0
21
9.0
12
0.0
22
0.0
32
0.0
14
30.0
24
49.75
34
0.0
15
130.5
25
163.1318914119703
35
0.0
146
0.0
13
0.0
23
0.0
33
0.0
16
1.0
26
0.0
36
0.0
17
0.0
27
1.0
37
0.0
76
   0
330
1F
331
29
0
MLINESTYLE
5
18
102
{ACAD_REACTORS
330
17
102
}
330
17
100
AcDbMlineStyle
2
Standard
70
   0
3

62
 256
51
90.0
52
90.0
71
   2
49
0.5
62
 256
6
BYLAYER
49
-0.5
62
 256
6
BYLAYER
0
ACDBPLACEHOLDER
5
F
102
{ACAD_REACTORS
330
E
102
}
330
E
0
VISUALSTYLE
5
2F
102
{ACAD_REACTORS
330
2A
102
}
330
2A
100
AcDbVisualStyle
2
2dWireframe
70
   4
71
   0
72
   2
73
   0
90
      0
40
-0.6
41
-30.0
62
   5
63
   7
421
16777215
74
   1
91
      4
64
   7
65
 257
75
   1
175
   1
42
1.0
92
      0
66
 257
43
1.0
76
   1
77
   6
78
   2
67
   7
79
   5
170
   0
171
   0
290
   0
174
   0
93
      1
44
0.0
173
   0
291
   0
45
0.0
1001
ACAD
1000
AcDbSavedByObjectVersion
1070
   0
0
VISUALSTYLE
5
31
102
{ACAD_REACTORS
330
2A
102
}
330
2A
100
AcDbVisualStyle
2
3D Hidden
70
   6
71
   1
72
   2
73
   2
90
      0
40
-0.6
41
-30.0
62
   5
63
   7
421
16777215
74
   2
91
      2
64
   7
65
 257
75
   2
175
   1
42
40.0
92
      0
66
 257
43
1.0
76
   1
77
   6
78
   2
67
   7
79
   3
170
   0
171
   0
290
   0
174
   0
93
      1
44
0.0
173
   0
291
   0
45
0.0
1001
ACAD
1000
AcDbSavedByObjectVersion
1070
   0
0
VISUALSTYLE
5
30
102
{ACAD_REACTORS
330
2A
102
}
330
2A
100
AcDbVisualStyle
2
3dWireframe
70
   5
71
   0
72
   2
73
   0
90
      0
40
-0.6
41
-30.0
62
   5
63
   7
421
16777215
74
   1
91
      4
64
   7
65
 257
75
   1
175
   1
42
1.0
92
      0
66
 257
43
1.0
76
   1
77
   6
78
   2
67
   7
79
   5
170
   0
171
   0
290
   0
174
   0
93
      1
44
0.0
173
   0
291
   0
45
0.0
1001
ACAD
1000
AcDbSavedByObjectVersion
1070
   0
0
VISUALSTYLE
5
32
102
{ACAD_REACTORS
330
2A
102
}
330
2A
100
AcDbVisualStyle
2
Basic
70
   7
71
   1
72
   0
73
   1
90
      0
40
-0.6
41
-30.0
62
   5
63
   7
421
16777215
74
   0
91
      4
64
   7
65
 257
75
   1
175
   1
42
1.0
92
      8
66
   7
43
1.0
76
   1
77
   6
78
   2
67
   7
79
   5
170
   0
171
   0
290
   0
174
   0
93
      1
44
0.0
173
   0
291
   1
45
0.0
1001
ACAD
1000
AcDbSavedByObjectVersion
1070
   0
0
VISUALSTYLE
5
36
102
{ACAD_REACTORS
330
2A
102
}
330
2A
100
AcDbVisualStyle
2
Brighten
70
  12
71
   2
72
   2
73
   0
90
      0
40
-0.6
41
-30.0
62
   5
63
   7
421
16777215
74
   1
91
      4
64
   7
65
 257
75
   1
175
   1
42
1.0
92
      8
66
   7
43
1.0
76
   1
77
   6
78
   2
67
   7
79
   5
170
   0
171
   0
290
   0
174
   0
93
      1
44
50.0
173
   0
291
   1
45
0.0
1001
ACAD
1000
AcDbSavedByObjectVersion
1070
   0
0
VISUALSTYLE
5
3A
102
{ACAD_REACTORS
330
2A
102
}
330
2A
100
AcDbVisualStyle
2
ColorChange
70
  16
71
   2
72
   2
73
   3
90
      0
40
-0.6
41
-30.0
62
   5
63
   8
421
8421504
74
   1
91
      4
64
   7
65
 257
75
   1
175
   1
42
1.0
92
      8
66
   8
424
8421504
43
1.0
76
   1
77
   6
78
   2
67
   7
79
   5
170
   0
171
   0
290
   0
174
   0
93
      1
44
0.0
173
   0
291
   1
45
0.0
1001
ACAD
1000
AcDbSavedByObjectVersion
1070
   0
0
VISUALSTYLE
5
34
102
{ACAD_REACTORS
330
2A
102
}
330
2A
100
AcDbVisualStyle
2
Conceptual
70
   9
71
   3
72
   2
73
   0
90
      0
40
-0.6
41
-30.0
62
   5
63
   7
421
16777215
74
   2
91
      2
64
   7
65
 257
75
   1
175
   1
42
40.0
92
      8
66
   7
43
1.0
76
   1
77
   6
78
   2
67
   7
79
   3
170
   0
171
   0
290
   0
174
   0
93
      1
44
0.0
173
   0
291
   0
45
0.0
1001
ACAD
1000
AcDbSavedByObjectVersion
1070
   0
0
VISUALSTYLE
5
35
102
{ACAD_REACTORS
330
2A
102
}
330
2A
100
AcDbVisualStyle
2
Dim
70
  11
71
   2
72
   2
73
   0
90
      0
40
-0.6
41
-30.0
62
   5
63
   7
421
16777215
74
   1
91
      4
64
   7
65
 257
75
   1
175
   1
42
1.0
92
      8
66
   7
43
1.0
76
   1
77
   6
78
   2
67
   7
79
   5
170
   0
171
   0
290
   0
174
   0
93
      1
44
-50.0
173
   0
291
   1
45
0.0
1001
ACAD
1000
AcDbSavedByObjectVersion
1070
   0
0
VISUALSTYLE
5
39
102
{ACAD_REACTORS
330
2A
102
}
330
2A
100
AcDbVisualStyle
2
Facepattern
70
  15
71
   2
72
   2
73
   0
90
      0
40
-0.6
41
-30.0
62
   5
63
   7
421
16777215
74
   1
91
      4
64
   7
65
 257
75
   1
175
   1
42
1.0
92
      8
66
   7
43
1.0
76
   1
77
   6
78
   2
67
   7
79
   5
170
   0
171
   0
290
   0
174
   0
93
      1
44
0.0
173
   0
291
   1
45
0.0
1001
ACAD
1000
AcDbSavedByObjectVersion
1070
   0
0
VISUALSTYLE
5
2B
102
{ACAD_REACTORS
330
2A
102
}
330
2A
100
AcDbVisualStyle
2
Flat
70
   0
71
   2
72
   1
73
   1
90
      2
40
-0.6
41
30.0
62
   5
63
   7
421
16777215
74
   0
91
      4
64
   7
65
 257
75
   1
175
   1
42
1.0
92
      8
66
   7
43
1.0
76
   1
77
   6
78
   2
67
   7
79
   5
170
   0
171
   0
290
   0
174
   0
93
     13
44
0.0
173
   0
291
   1
45
0.0
1001
ACAD
1000
AcDbSavedByObjectVersion
1070
   0
0
VISUALSTYLE
5
2C
102
{ACAD_REACTORS
330
2A
102
}
330
2A
100
AcDbVisualStyle
2
FlatWithEdges
70
   1
71
   2
72
   1
73
   1
90
      2
40
-0.6
41
30.0
62
   5
63
   7
421
16777215
74
   1
91
      4
64
   7
65
 257
75
   1
175
   1
42
1.0
92
      0
66
 257
43
1.0
76
   1
77
   6
78
   2
67
   7
79
   5
170
   0
171
   0
290
   0
174
   0
93
     13
44
0.0
173
   0
291
   1
45
0.0
1001
ACAD
1000
AcDbSavedByObjectVersion
1070
   0
0
VISUALSTYLE
5
2D
102
{ACAD_REACTORS
330
2A
102
}
330
2A
100
AcDbVisualStyle
2
Gouraud
70
   2
71
   2
72
   2
73
   1
90
      2
40
-0.6
41
30.0
62
   5
63
   7
421
16777215
74
   0
91
      4
64
   7
65
 257
75
   1
175
   1
42
1.0
92
      0
66
   7
43
1.0
76
   1
77
   6
78
   2
67
   7
79
   5
170
   0
171
   0
290
   0
174
   0
93
     13
44
0.0
173
   0
291
   1
45
0.0
1001
ACAD
1000
AcDbSavedByObjectVersion
1070
   0
0
VISUALSTYLE
5
2E
102
{ACAD_REACTORS
330
2A
102
}
330
2A
100
AcDbVisualStyle
2
GouraudWithEdges
70
   3
71
   2
72
   2
73
   1
90
      2
40
-0.6
41
30.0
62
   5
63
   7
421
16777215
74
   1
91
      4
64
   7
65
 257
75
   1
175
   1
42
1.0
92
      0
66
 257
43
1.0
76
   1
77
   6
78
   2
67
   7
79
   5
170
   0
171
   0
290
   0
174
   0
93
     13
44
0.0
173
   0
291
   1
45
0.0
1001
ACAD
1000
AcDbSavedByObjectVersion
1070
   0
0
VISUALSTYLE
5
38
102
{ACAD_REACTORS
330
2A
102
}
330
2A
100
AcDbVisualStyle
2
Linepattern
70
  14
71
   2
72
   2
73
   0
90
      0
40
-0.6
41
-30.0
62
   5
63
   7
421
16777215
74
   1
91
      4
64
   7
65
 257
75
   7
175
   7
42
1.0
92
      8
66
   7
43
1.0
76
   1
77
   6
78
   2
67
   7
79
   5
170
   0
171
   0
290
   0
174
   0
93
      1
44
0.0
173
   0
291
   1
45
0.0
1001
ACAD
1000
AcDbSavedByObjectVersion
1070
   0
0
VISUALSTYLE
5
33
102
{ACAD_REACTORS
330
2A
102
}
330
2A
100
AcDbVisualStyle
2
Realistic
70
   8
71
   2
72
   2
73
   0
90
      0
40
-0.6
41
-30.0
62
   5
63
   7
421
16777215
74
   1
91
      0
64
   7
65
 257
75
   1
175
   1
42
1.0
92
      8
66
   8
424
7895160
43
1.0
76
   1
77
   6
78
   2
67
   7
79
   5
170
   0
171
   0
290
   0
174
   0
93
     13
44
0.0
173
   0
291
   0
45
0.0
1001
ACAD
1000
AcDbSavedByObjectVersion
1070
   0
0
VISUALSTYLE
5
37
102
{ACAD_REACTORS
330
2A
102
}
330
2A
100
AcDbVisualStyle
2
Thicken
70
  13
71
   2
72
   2
73
   0
90
      0
40
-0.6
41
-30.0
62
   5
63
   7
421
16777215
74
   1
91
      4
64
   7
65
 257
75
   1
175
   1
42
1.0
92
     12
66
   7
43
1.0
76
   1
77
   6
78
   2
67
   7
79
   5
170
   0
171
   0
290
   0
174
   0
93
      1
44
0.0
173
   0
291
   1
45
0.0
1001
ACAD
1000
AcDbSavedByObjectVersion
1070
   0
0
ENDSEC
  0
EOF
