999
DXF created from QGIS
  0
SECTION
  2
HEADER
  9
$ACADVER
  1
AC1015
  9
$EXTMIN
 10
10.75
 20
31.6875
 30
0.0
  9
$EXTMAX
 10
99.328125
 20
100.0
 30
0.0
  9
$LTSCALE
 40
1.0
  9
$PDMODE
 70
    33
  9
$PDSIZE
 40
     1
  9
$PSLTSCALE
 70
     0
  9
$HANDSEED
  5
9999999
  9
$DWGCODEPAGE
  3

  0
ENDSEC
  0
SECTION
  2
TABLES
  0
TABLE
  2
LTYPE
  5
64
100
AcDbSymbolTable
 70
     5
  0
LTYPE
  5
65
100
AcDbSymbolTableRecord
100
AcDbLinetypeTableRecord
  2
ByLayer
 70
    64
  3
Defaultstyle
 72
    65
 73
     0
 40
0.0
  0
LTYPE
  5
66
100
AcDbSymbolTableRecord
100
AcDbLinetypeTableRecord
  2
ByBlock
 70
    64
  3
Defaultstyle
 72
    65
 73
     0
 40
0.0
  0
LTYPE
  5
67
100
AcDbSymbolTableRecord
100
AcDbLinetypeTableRecord
  2
CONTINUOUS
 70
    64
  3
Defaultstyle
 72
    65
 73
     0
 40
0.0
  0
LTYPE
  5
68
100
AcDbSymbolTableRecord
100
AcDbLinetypeTableRecord
  2
DASH
 70
    64
  3

 72
    65
 73
     2
 40
26.0
 49
20.0
 74
     0
 49
-5.99999999999999911
 74
     0
  0
LTYPE
  5
69
100
AcDbSymbolTableRecord
100
AcDbLinetypeTableRecord
  2
DOT
 70
    64
  3

 72
    65
 73
     2
 40
11.99999999999999822
 49
5.99999999999999911
 74
     0
 49
-5.99999999999999911
 74
     0
  0
LTYPE
  5
6a
100
AcDbSymbolTableRecord
100
AcDbLinetypeTableRecord
  2
DASHDOT
 70
    64
  3

 72
    65
 73
     4
 40
38.0
 49
20.0
 74
     0
 49
-5.99999999999999911
 74
     0
 49
5.99999999999999911
 74
     0
 49
-5.99999999999999911
 74
     0
  0
LTYPE
  5
6b
100
AcDbSymbolTableRecord
100
AcDbLinetypeTableRecord
  2
DASHDOTDOT
 70
    64
  3

 72
    65
 73
     6
 40
50.0
 49
20.0
 74
     0
 49
-5.99999999999999911
 74
     0
 49
5.99999999999999911
 74
     0
 49
-5.99999999999999911
 74
     0
 49
5.99999999999999911
 74
     0
 49
-5.99999999999999911
 74
     0
  0
ENDTAB
  0
TABLE
  2
BLOCK_RECORD
  5
6c
100
AcDbSymbolTable
 70
     0
  0
BLOCK_RECORD
  5
6d
100
AcDbSymbolTableRecord
100
AcDbBlockTableRecord
  2
*Model_Space
  0
BLOCK_RECORD
  5
6e
100
AcDbSymbolTableRecord
100
AcDbBlockTableRecord
  2
*Paper_Space
  0
BLOCK_RECORD
  5
6f
100
AcDbSymbolTableRecord
100
AcDbBlockTableRecord
  2
*Paper_Space0
  0
ENDTAB
  0
TABLE
  2
APPID
  5
70
100
AcDbSymbolTable
 70
     1
  0
APPID
  5
71
100
AcDbSymbolTableRecord
100
AcDbRegAppTableRecord
  2
ACAD
 70
     0
  0
ENDTAB
  0
TABLE
  2
VIEW
  5
72
100
AcDbSymbolTable
 70
     0
  0
ENDTAB
  0
TABLE
  2
UCS
  5
73
100
AcDbSymbolTable
 70
     0
  0
ENDTAB
  0
TABLE
  2
VPORT
  5
74
100
AcDbSymbolTable
  0
VPORT
  5
75
100
AcDbSymbolTableRecord
100
AcDbViewportTableRecord
  2
*ACTIVE
 70
     0
 10
0.0
 20
0.0
 11
1.0
 21
1.0
 12
0.0
 22
0.0
 13
0.0
 23
0.0
 14
1.0
 24
1.0
 15
1.0
 25
1.0
 16
0.0
 26
0.0
 36
1.0
 17
55.0390625
 27
65.84375
 40
68.3125
 41
1.29666056724611156
 42
50.0
 43
0.0
 44
0.0
 50
0.0
 51
0.0
 71
     0
 72
   100
 73
     1
 74
     1
 75
     0
 76
     0
 77
     0
 78
     0
281
     0
 65
     1
110
0.0
120
0.0
130
0.0
111
1.0
121
0.0
131
0.0
112
0.0
122
1.0
132
0.0
 79
     0
146
0.0
 70
     0
  0
ENDTAB
  0
TABLE
  2
DIMSTYLE
  5
76
100
AcDbSymbolTable
100
AcDbDimStyleTable
 70
     0
  0
ENDTAB
  0
TABLE
  2
LAYER
  5
77
100
AcDbSymbolTable
 70
     2
  0
LAYER
  5
78
100
AcDbSymbolTableRecord
100
AcDbLayerTableRecord
  2
0
 70
    64
 62
     1
  6
CONTINUOUS
390
f
  0
LAYER
  5
79
100
AcDbSymbolTableRecord
100
AcDbLayerTableRecord
  2
output
 70
    64
 62
     1
  6
CONTINUOUS
390
f
  0
ENDTAB
  0
TABLE
  2
STYLE
  5
7a
100
AcDbSymbolTable
 70
     1
  0
STYLE
  5
7b
100
AcDbSymbolTableRecord
100
AcDbTextStyleTableRecord
  2
STANDARD
 70
    64
 40
0.0
 41
1.0
 50
0.0
 71
     0
 42
5.0
  3
romans.shx
  4

  0
ENDTAB
  0
ENDSEC
  0
SECTION
  2
BLOCKS
  0
BLOCK
  5
7c
330
6d
100
AcDbEntity
  8
0
100
AcDbBlockBegin
  2
*Model_Space
 70
     0
 10
0.0
 20
0.0
 30
0.0
  3
*Model_Space
  1

  0
ENDBLK
  5
7d
100
AcDbEntity
  8
0
100
AcDbBlockEnd
  0
BLOCK
  5
7e
330
6e
100
AcDbEntity
  8
0
100
AcDbBlockBegin
  2
*Paper_Space
 70
     0
 10
0.0
 20
0.0
 30
0.0
  3
*Paper_Space
  1

  0
ENDBLK
  5
7f
100
AcDbEntity
  8
0
100
AcDbBlockEnd
  0
BLOCK
  5
80
330
6f
100
AcDbEntity
  8
0
100
AcDbBlockBegin
  2
*Paper_Space0
 70
     0
 10
0.0
 20
0.0
 30
0.0
  3
*Paper_Space0
  1

  0
ENDBLK
  5
81
100
AcDbEntity
  8
0
100
AcDbBlockEnd
  0
ENDSEC
  0
SECTION
  2
ENTITIES
  0
POLYLINE
  5
82
330
6d
100
AcDbEntity
  8
output
  6
CONTINUOUS
420
2302755
100
AcDb3dPolyline
 10
0.0
 20
0.0
 30
0.0
 70
     8
  0
VERTEX
  5
83
330
   130
100
AcDbEntity
  8
output
420
2302755
100
AcDbVertex
100
AcDb3dPolylineVertex
 10
31.8046875
 20
43.5
 30
0.0
 70
    32
  0
VERTEX
  5
84
330
   130
100
AcDbEntity
  8
output
420
2302755
100
AcDbVertex
100
AcDb3dPolylineVertex
 10
32.046875
 20
43.46875
 30
0.0
 70
    32
  0
VERTEX
  5
85
330
   130
100
AcDbEntity
  8
output
420
2302755
100
AcDbVertex
100
AcDb3dPolylineVertex
 10
32.3203125
 20
47.59375
 30
0.0
 70
    32
  0
VERTEX
  5
86
330
   130
100
AcDbEntity
  8
output
420
2302755
100
AcDbVertex
100
AcDb3dPolylineVertex
 10
35.8125
 20
47.375
 30
0.0
 70
    32
  0
VERTEX
  5
87
330
   130
100
AcDbEntity
  8
output
420
2302755
100
AcDbVertex
100
AcDb3dPolylineVertex
 10
35.5546875
 20
43.53125
 30
0.0
 70
    32
  0
VERTEX
  5
88
330
   130
100
AcDbEntity
  8
output
420
2302755
100
AcDbVertex
100
AcDb3dPolylineVertex
 10
36.046875
 20
43.5
 30
0.0
 70
    32
  0
VERTEX
  5
89
330
   130
100
AcDbEntity
  8
output
420
2302755
100
AcDbVertex
100
AcDb3dPolylineVertex
 10
35.6640625
 20
37.6875
 30
0.0
 70
    32
  0
VERTEX
  5
8a
330
   130
100
AcDbEntity
  8
output
420
2302755
100
AcDbVertex
100
AcDb3dPolylineVertex
 10
32.2109375
 20
37.9375
 30
0.0
 70
    32
  0
VERTEX
  5
8b
330
   130
100
AcDbEntity
  8
output
420
2302755
100
AcDbVertex
100
AcDb3dPolylineVertex
 10
31.8046875
 20
31.6875
 30
0.0
 70
    32
  0
VERTEX
  5
8c
330
   130
100
AcDbEntity
  8
output
420
2302755
100
AcDbVertex
100
AcDb3dPolylineVertex
 10
23.6796875
 20
32.25
 30
0.0
 70
    32
  0
VERTEX
  5
8d
330
   130
100
AcDbEntity
  8
output
420
2302755
100
AcDbVertex
100
AcDb3dPolylineVertex
 10
24.5
 20
44.71875
 30
0.0
 70
    32
  0
VERTEX
  5
8e
330
   130
100
AcDbEntity
  8
output
420
2302755
100
AcDbVertex
100
AcDb3dPolylineVertex
 10
28.9453125
 20
44.4375
 30
0.0
 70
    32
  0
VERTEX
  5
8f
330
   130
100
AcDbEntity
  8
output
420
2302755
100
AcDbVertex
100
AcDb3dPolylineVertex
 10
28.8203125
 20
42.59375
 30
0.0
 70
    32
  0
VERTEX
  5
90
330
   130
100
AcDbEntity
  8
output
420
2302755
100
AcDbVertex
100
AcDb3dPolylineVertex
 10
31.734375
 20
42.40625
 30
0.0
 70
    32
  0
VERTEX
  5
91
330
   130
100
AcDbEntity
  8
output
420
2302755
100
AcDbVertex
100
AcDb3dPolylineVertex
 10
31.8046875
 20
43.5
 30
0.0
 70
    32
  0
SEQEND
  5
92
330
   130
100
AcDbEntity
  8
output
420
2302755
  0
POLYLINE
  5
93
330
6d
100
AcDbEntity
  8
output
  6
CONTINUOUS
420
2302755
100
AcDb3dPolyline
 10
0.0
 20
0.0
 30
0.0
 70
     8
  0
VERTEX
  5
94
330
   147
100
AcDbEntity
  8
output
420
2302755
100
AcDbVertex
100
AcDb3dPolylineVertex
 10
13.390625
 20
46.75
 30
0.0
 70
    32
  0
VERTEX
  5
95
330
   147
100
AcDbEntity
  8
output
420
2302755
100
AcDbVertex
100
AcDb3dPolylineVertex
 10
14.4765625
 20
46.9375
 30
0.0
 70
    32
  0
VERTEX
  5
96
330
   147
100
AcDbEntity
  8
output
420
2302755
100
AcDbVertex
100
AcDb3dPolylineVertex
 10
15.5703125
 20
46.90625
 30
0.0
 70
    32
  0
VERTEX
  5
97
330
   147
100
AcDbEntity
  8
output
420
2302755
100
AcDbVertex
100
AcDb3dPolylineVertex
 10
16.640625
 20
46.75
 30
0.0
 70
    32
  0
VERTEX
  5
98
330
   147
100
AcDbEntity
  8
output
420
2302755
100
AcDbVertex
100
AcDb3dPolylineVertex
 10
17.828125
 20
46.28125
 30
0.0
 70
    32
  0
VERTEX
  5
99
330
   147
100
AcDbEntity
  8
output
420
2302755
100
AcDbVertex
100
AcDb3dPolylineVertex
 10
18.78125
 20
45.8125
 30
0.0
 70
    32
  0
VERTEX
  5
9a
330
   147
100
AcDbEntity
  8
output
420
2302755
100
AcDbVertex
100
AcDb3dPolylineVertex
 10
19.328125
 20
52.0625
 30
0.0
 70
    32
  0
VERTEX
  5
9b
330
   147
100
AcDbEntity
  8
output
420
2302755
100
AcDbVertex
100
AcDb3dPolylineVertex
 10
22.515625
 20
51.78125
 30
0.0
 70
    32
  0
VERTEX
  5
9c
330
   147
100
AcDbEntity
  8
output
420
2302755
100
AcDbVertex
100
AcDb3dPolylineVertex
 10
21.7578125
 20
43.03125
 30
0.0
 70
    32
  0
VERTEX
  5
9d
330
   147
100
AcDbEntity
  8
output
420
2302755
100
AcDbVertex
100
AcDb3dPolylineVertex
 10
18.5625
 20
43.28125
 30
0.0
 70
    32
  0
VERTEX
  5
9e
330
   147
100
AcDbEntity
  8
output
420
2302755
100
AcDbVertex
100
AcDb3dPolylineVertex
 10
18.4765625
 20
42.3125
 30
0.0
 70
    32
  0
VERTEX
  5
9f
330
   147
100
AcDbEntity
  8
output
420
2302755
100
AcDbVertex
100
AcDb3dPolylineVertex
 10
18.8359375
 20
42.28125
 30
0.0
 70
    32
  0
VERTEX
  5
a0
330
   147
100
AcDbEntity
  8
output
420
2302755
100
AcDbVertex
100
AcDb3dPolylineVertex
 10
17.921875
 20
32.90625
 30
0.0
 70
    32
  0
VERTEX
  5
a1
330
   147
100
AcDbEntity
  8
output
420
2302755
100
AcDbVertex
100
AcDb3dPolylineVertex
 10
10.75
 20
33.59375
 30
0.0
 70
    32
  0
VERTEX
  5
a2
330
   147
100
AcDbEntity
  8
output
420
2302755
100
AcDbVertex
100
AcDb3dPolylineVertex
 10
11.703125
 20
42.96875
 30
0.0
 70
    32
  0
VERTEX
  5
a3
330
   147
100
AcDbEntity
  8
output
420
2302755
100
AcDbVertex
100
AcDb3dPolylineVertex
 10
12.109375
 20
42.9375
 30
0.0
 70
    32
  0
VERTEX
  5
a4
330
   147
100
AcDbEntity
  8
output
420
2302755
100
AcDbVertex
100
AcDb3dPolylineVertex
 10
12.4453125
 20
46.375
 30
0.0
 70
    32
  0
VERTEX
  5
a5
330
   147
100
AcDbEntity
  8
output
420
2302755
100
AcDbVertex
100
AcDb3dPolylineVertex
 10
13.390625
 20
46.75
 30
0.0
 70
    32
  0
SEQEND
  5
a6
330
   147
100
AcDbEntity
  8
output
420
2302755
  0
POLYLINE
  5
a7
330
6d
100
AcDbEntity
  8
output
  6
CONTINUOUS
420
2302755
100
AcDb3dPolyline
 10
0.0
 20
0.0
 30
0.0
 70
     8
  0
VERTEX
  5
a8
330
   167
100
AcDbEntity
  8
output
420
2302755
100
AcDbVertex
100
AcDb3dPolylineVertex
 10
62.640625
 20
38.8125
 30
0.0
 70
    32
  0
VERTEX
  5
a9
330
   167
100
AcDbEntity
  8
output
420
2302755
100
AcDbVertex
100
AcDb3dPolylineVertex
 10
62.625
 20
33.59375
 30
0.0
 70
    32
  0
VERTEX
  5
aa
330
   167
100
AcDbEntity
  8
output
420
2302755
100
AcDbVertex
100
AcDb3dPolylineVertex
 10
61.96875
 20
33.59375
 30
0.0
 70
    32
  0
VERTEX
  5
ab
330
   167
100
AcDbEntity
  8
output
420
2302755
100
AcDbVertex
100
AcDb3dPolylineVertex
 10
61.9609375
 20
32.90625
 30
0.0
 70
    32
  0
VERTEX
  5
ac
330
   167
100
AcDbEntity
  8
output
420
2302755
100
AcDbVertex
100
AcDb3dPolylineVertex
 10
58.5859375
 20
32.9375
 30
0.0
 70
    32
  0
VERTEX
  5
ad
330
   167
100
AcDbEntity
  8
output
420
2302755
100
AcDbVertex
100
AcDb3dPolylineVertex
 10
58.5859375
 20
33.5625
 30
0.0
 70
    32
  0
VERTEX
  5
ae
330
   167
100
AcDbEntity
  8
output
420
2302755
100
AcDbVertex
100
AcDb3dPolylineVertex
 10
56.203125
 20
33.59375
 30
0.0
 70
    32
  0
VERTEX
  5
af
330
   167
100
AcDbEntity
  8
output
420
2302755
100
AcDbVertex
100
AcDb3dPolylineVertex
 10
56.2265625
 20
39.78125
 30
0.0
 70
    32
  0
VERTEX
  5
b0
330
   167
100
AcDbEntity
  8
output
420
2302755
100
AcDbVertex
100
AcDb3dPolylineVertex
 10
55.2890625
 20
39.78125
 30
0.0
 70
    32
  0
VERTEX
  5
b1
330
   167
100
AcDbEntity
  8
output
420
2302755
100
AcDbVertex
100
AcDb3dPolylineVertex
 10
55.3046875
 20
44.5
 30
0.0
 70
    32
  0
VERTEX
  5
b2
330
   167
100
AcDbEntity
  8
output
420
2302755
100
AcDbVertex
100
AcDb3dPolylineVertex
 10
51.1796875
 20
44.53125
 30
0.0
 70
    32
  0
VERTEX
  5
b3
330
   167
100
AcDbEntity
  8
output
420
2302755
100
AcDbVertex
100
AcDb3dPolylineVertex
 10
51.2109375
 20
53.9375
 30
0.0
 70
    32
  0
VERTEX
  5
b4
330
   167
100
AcDbEntity
  8
output
420
2302755
100
AcDbVertex
100
AcDb3dPolylineVertex
 10
58.6171875
 20
53.90625
 30
0.0
 70
    32
  0
VERTEX
  5
b5
330
   167
100
AcDbEntity
  8
output
420
2302755
100
AcDbVertex
100
AcDb3dPolylineVertex
 10
58.5859375
 20
45.4375
 30
0.0
 70
    32
  0
VERTEX
  5
b6
330
   167
100
AcDbEntity
  8
output
420
2302755
100
AcDbVertex
100
AcDb3dPolylineVertex
 10
62.7578125
 20
45.40625
 30
0.0
 70
    32
  0
VERTEX
  5
b7
330
   167
100
AcDbEntity
  8
output
420
2302755
100
AcDbVertex
100
AcDb3dPolylineVertex
 10
62.75
 20
42.6875
 30
0.0
 70
    32
  0
VERTEX
  5
b8
330
   167
100
AcDbEntity
  8
output
420
2302755
100
AcDbVertex
100
AcDb3dPolylineVertex
 10
62.75
 20
42.125
 30
0.0
 70
    32
  0
VERTEX
  5
b9
330
   167
100
AcDbEntity
  8
output
420
2302755
100
AcDbVertex
100
AcDb3dPolylineVertex
 10
63.5078125
 20
42.125
 30
0.0
 70
    32
  0
VERTEX
  5
ba
330
   167
100
AcDbEntity
  8
output
420
2302755
100
AcDbVertex
100
AcDb3dPolylineVertex
 10
63.4921875
 20
38.8125
 30
0.0
 70
    32
  0
VERTEX
  5
bb
330
   167
100
AcDbEntity
  8
output
420
2302755
100
AcDbVertex
100
AcDb3dPolylineVertex
 10
62.640625
 20
38.8125
 30
0.0
 70
    32
  0
SEQEND
  5
bc
330
   167
100
AcDbEntity
  8
output
420
2302755
  0
POLYLINE
  5
bd
330
6d
100
AcDbEntity
  8
output
  6
CONTINUOUS
420
2302755
100
AcDb3dPolyline
 10
0.0
 20
0.0
 30
0.0
 70
     8
  0
VERTEX
  5
be
330
   189
100
AcDbEntity
  8
output
420
2302755
100
AcDbVertex
100
AcDb3dPolylineVertex
 10
43.7890625
 20
47.40625
 30
0.0
 70
    32
  0
VERTEX
  5
bf
330
   189
100
AcDbEntity
  8
output
420
2302755
100
AcDbVertex
100
AcDb3dPolylineVertex
 10
46.46875
 20
47.34375
 30
0.0
 70
    32
  0
VERTEX
  5
c0
330
   189
100
AcDbEntity
  8
output
420
2302755
100
AcDbVertex
100
AcDb3dPolylineVertex
 10
46.6484375
 20
54.09375
 30
0.0
 70
    32
  0
VERTEX
  5
c1
330
   189
100
AcDbEntity
  8
output
420
2302755
100
AcDbVertex
100
AcDb3dPolylineVertex
 10
50.515625
 20
54.0
 30
0.0
 70
    32
  0
VERTEX
  5
c2
330
   189
100
AcDbEntity
  8
output
420
2302755
100
AcDbVertex
100
AcDb3dPolylineVertex
 10
50.1484375
 20
40.78125
 30
0.0
 70
    32
  0
VERTEX
  5
c3
330
   189
100
AcDbEntity
  8
output
420
2302755
100
AcDbVertex
100
AcDb3dPolylineVertex
 10
46.296875
 20
40.90625
 30
0.0
 70
    32
  0
VERTEX
  5
c4
330
   189
100
AcDbEntity
  8
output
420
2302755
100
AcDbVertex
100
AcDb3dPolylineVertex
 10
46.09375
 20
33.375
 30
0.0
 70
    32
  0
VERTEX
  5
c5
330
   189
100
AcDbEntity
  8
output
420
2302755
100
AcDbVertex
100
AcDb3dPolylineVertex
 10
38.015625
 20
33.59375
 30
0.0
 70
    32
  0
VERTEX
  5
c6
330
   189
100
AcDbEntity
  8
output
420
2302755
100
AcDbVertex
100
AcDb3dPolylineVertex
 10
38.21875
 20
41.15625
 30
0.0
 70
    32
  0
VERTEX
  5
c7
330
   189
100
AcDbEntity
  8
output
420
2302755
100
AcDbVertex
100
AcDb3dPolylineVertex
 10
43.171875
 20
41.0
 30
0.0
 70
    32
  0
VERTEX
  5
c8
330
   189
100
AcDbEntity
  8
output
420
2302755
100
AcDbVertex
100
AcDb3dPolylineVertex
 10
43.296875
 20
45.59375
 30
0.0
 70
    32
  0
VERTEX
  5
c9
330
   189
100
AcDbEntity
  8
output
420
2302755
100
AcDbVertex
100
AcDb3dPolylineVertex
 10
43.734375
 20
45.5625
 30
0.0
 70
    32
  0
VERTEX
  5
ca
330
   189
100
AcDbEntity
  8
output
420
2302755
100
AcDbVertex
100
AcDb3dPolylineVertex
 10
43.7890625
 20
47.40625
 30
0.0
 70
    32
  0
SEQEND
  5
cb
330
   189
100
AcDbEntity
  8
output
420
2302755
  0
POLYLINE
  5
cc
330
6d
100
AcDbEntity
  8
output
  6
CONTINUOUS
420
2302755
100
AcDb3dPolyline
 10
0.0
 20
0.0
 30
0.0
 70
     8
  0
VERTEX
  5
cd
330
   204
100
AcDbEntity
  8
output
420
2302755
100
AcDbVertex
100
AcDb3dPolylineVertex
 10
86.5703125
 20
53.5
 30
0.0
 70
    32
  0
VERTEX
  5
ce
330
   204
100
AcDbEntity
  8
output
420
2302755
100
AcDbVertex
100
AcDb3dPolylineVertex
 10
83.4375
 20
65.78125
 30
0.0
 70
    32
  0
VERTEX
  5
cf
330
   204
100
AcDbEntity
  8
output
420
2302755
100
AcDbVertex
100
AcDb3dPolylineVertex
 10
89.84258159222633822
 20
67.40595362339399799
 30
0.0
 70
    32
  0
VERTEX
  5
d0
330
   204
100
AcDbEntity
  8
output
420
2302755
100
AcDbVertex
100
AcDb3dPolylineVertex
 10
88.984375
 20
70.75
 30
0.0
 70
    32
  0
VERTEX
  5
d1
330
   204
100
AcDbEntity
  8
output
420
2302755
100
AcDbVertex
100
AcDb3dPolylineVertex
 10
82.9765625
 20
69.21875
 30
0.0
 70
    32
  0
VERTEX
  5
d2
330
   204
100
AcDbEntity
  8
output
420
2302755
100
AcDbVertex
100
AcDb3dPolylineVertex
 10
79.359375
 20
83.375
 30
0.0
 70
    32
  0
VERTEX
  5
d3
330
   204
100
AcDbEntity
  8
output
420
2302755
100
AcDbVertex
100
AcDb3dPolylineVertex
 10
90.9375
 20
86.34375
 30
0.0
 70
    32
  0
VERTEX
  5
d4
330
   204
100
AcDbEntity
  8
output
420
2302755
100
AcDbVertex
100
AcDb3dPolylineVertex
 10
92.15625
 20
81.5625
 30
0.0
 70
    32
  0
VERTEX
  5
d5
330
   204
100
AcDbEntity
  8
output
420
2302755
100
AcDbVertex
100
AcDb3dPolylineVertex
 10
88.640625
 20
80.65625
 30
0.0
 70
    32
  0
VERTEX
  5
d6
330
   204
100
AcDbEntity
  8
output
420
2302755
100
AcDbVertex
100
AcDb3dPolylineVertex
 10
91.0
 20
71.4375
 30
0.0
 70
    32
  0
VERTEX
  5
d7
330
   204
100
AcDbEntity
  8
output
420
2302755
100
AcDbVertex
100
AcDb3dPolylineVertex
 10
98.3828125
 20
73.3125
 30
0.0
 70
    32
  0
VERTEX
  5
d8
330
   204
100
AcDbEntity
  8
output
420
2302755
100
AcDbVertex
100
AcDb3dPolylineVertex
 10
99.328125
 20
69.625
 30
0.0
 70
    32
  0
VERTEX
  5
d9
330
   204
100
AcDbEntity
  8
output
420
2302755
100
AcDbVertex
100
AcDb3dPolylineVertex
 10
94.453125
 20
68.375
 30
0.0
 70
    32
  0
VERTEX
  5
da
330
   204
100
AcDbEntity
  8
output
420
2302755
100
AcDbVertex
100
AcDb3dPolylineVertex
 10
95.3046875
 20
65.0625
 30
0.0
 70
    32
  0
VERTEX
  5
db
330
   204
100
AcDbEntity
  8
output
420
2302755
100
AcDbVertex
100
AcDb3dPolylineVertex
 10
93.421875
 20
64.5625
 30
0.0
 70
    32
  0
VERTEX
  5
dc
330
   204
100
AcDbEntity
  8
output
420
2302755
100
AcDbVertex
100
AcDb3dPolylineVertex
 10
95.65625
 20
55.8125
 30
0.0
 70
    32
  0
VERTEX
  5
dd
330
   204
100
AcDbEntity
  8
output
420
2302755
100
AcDbVertex
100
AcDb3dPolylineVertex
 10
86.5703125
 20
53.5
 30
0.0
 70
    32
  0
SEQEND
  5
de
330
   204
100
AcDbEntity
  8
output
420
2302755
  0
POLYLINE
  5
df
330
6d
100
AcDbEntity
  8
output
  6
CONTINUOUS
420
2302755
100
AcDb3dPolyline
 10
0.0
 20
0.0
 30
0.0
 70
     8
  0
VERTEX
  5
e0
330
   223
100
AcDbEntity
  8
output
420
2302755
100
AcDbVertex
100
AcDb3dPolylineVertex
 10
42.78125
 20
82.1875
 30
0.0
 70
    32
  0
VERTEX
  5
e1
330
   223
100
AcDbEntity
  8
output
420
2302755
100
AcDbVertex
100
AcDb3dPolylineVertex
 10
42.28125
 20
82.34375
 30
0.0
 70
    32
  0
VERTEX
  5
e2
330
   223
100
AcDbEntity
  8
output
420
2302755
100
AcDbVertex
100
AcDb3dPolylineVertex
 10
40.8359375
 20
85.8125
 30
0.0
 70
    32
  0
VERTEX
  5
e3
330
   223
100
AcDbEntity
  8
output
420
2302755
100
AcDbVertex
100
AcDb3dPolylineVertex
 10
39.015625
 20
85.0625
 30
0.0
 70
    32
  0
VERTEX
  5
e4
330
   223
100
AcDbEntity
  8
output
420
2302755
100
AcDbVertex
100
AcDb3dPolylineVertex
 10
34.4140625
 20
83.78125
 30
0.0
 70
    32
  0
VERTEX
  5
e5
330
   223
100
AcDbEntity
  8
output
420
2302755
100
AcDbVertex
100
AcDb3dPolylineVertex
 10
33.0859375
 20
87.0
 30
0.0
 70
    32
  0
VERTEX
  5
e6
330
   223
100
AcDbEntity
  8
output
420
2302755
100
AcDbVertex
100
AcDb3dPolylineVertex
 10
31.5234375
 20
86.59375
 30
0.0
 70
    32
  0
VERTEX
  5
e7
330
   223
100
AcDbEntity
  8
output
420
2302755
100
AcDbVertex
100
AcDb3dPolylineVertex
 10
31.2421875
 20
87.4375
 30
0.0
 70
    32
  0
VERTEX
  5
e8
330
   223
100
AcDbEntity
  8
output
420
2302755
100
AcDbVertex
100
AcDb3dPolylineVertex
 10
30.4921875
 20
89.625
 30
0.0
 70
    32
  0
VERTEX
  5
e9
330
   223
100
AcDbEntity
  8
output
420
2302755
100
AcDbVertex
100
AcDb3dPolylineVertex
 10
31.8984375
 20
90.21875
 30
0.0
 70
    32
  0
VERTEX
  5
ea
330
   223
100
AcDbEntity
  8
output
420
2302755
100
AcDbVertex
100
AcDb3dPolylineVertex
 10
31.1484375
 20
92.0
 30
0.0
 70
    32
  0
VERTEX
  5
eb
330
   223
100
AcDbEntity
  8
output
420
2302755
100
AcDbVertex
100
AcDb3dPolylineVertex
 10
27.4140625
 20
90.6875
 30
0.0
 70
    32
  0
VERTEX
  5
ec
330
   223
100
AcDbEntity
  8
output
420
2302755
100
AcDbVertex
100
AcDb3dPolylineVertex
 10
27.53125
 20
90.25
 30
0.0
 70
    32
  0
VERTEX
  5
ed
330
   223
100
AcDbEntity
  8
output
420
2302755
100
AcDbVertex
100
AcDb3dPolylineVertex
 10
26.9609375
 20
90.09375
 30
0.0
 70
    32
  0
VERTEX
  5
ee
330
   223
100
AcDbEntity
  8
output
420
2302755
100
AcDbVertex
100
AcDb3dPolylineVertex
 10
26.65625
 20
89.6875
 30
0.0
 70
    32
  0
VERTEX
  5
ef
330
   223
100
AcDbEntity
  8
output
420
2302755
100
AcDbVertex
100
AcDb3dPolylineVertex
 10
26.7421875
 20
89.15625
 30
0.0
 70
    32
  0
VERTEX
  5
f0
330
   223
100
AcDbEntity
  8
output
420
2302755
100
AcDbVertex
100
AcDb3dPolylineVertex
 10
23.0625
 20
88.125
 30
0.0
 70
    32
  0
VERTEX
  5
f1
330
   223
100
AcDbEntity
  8
output
420
2302755
100
AcDbVertex
100
AcDb3dPolylineVertex
 10
21.609375
 20
92.6875
 30
0.0
 70
    32
  0
VERTEX
  5
f2
330
   223
100
AcDbEntity
  8
output
420
2302755
100
AcDbVertex
100
AcDb3dPolylineVertex
 10
36.0
 20
97.4375
 30
0.0
 70
    32
  0
VERTEX
  5
f3
330
   223
100
AcDbEntity
  8
output
420
2302755
100
AcDbVertex
100
AcDb3dPolylineVertex
 10
36.1171875
 20
97.21875
 30
0.0
 70
    32
  0
VERTEX
  5
f4
330
   223
100
AcDbEntity
  8
output
420
2302755
100
AcDbVertex
100
AcDb3dPolylineVertex
 10
36.6640625
 20
97.375
 30
0.0
 70
    32
  0
VERTEX
  5
f5
330
   223
100
AcDbEntity
  8
output
420
2302755
100
AcDbVertex
100
AcDb3dPolylineVertex
 10
36.625
 20
97.46875
 30
0.0
 70
    32
  0
VERTEX
  5
f6
330
   223
100
AcDbEntity
  8
output
420
2302755
100
AcDbVertex
100
AcDb3dPolylineVertex
 10
42.30022321428572241
 20
100.0
 30
0.0
 70
    32
  0
VERTEX
  5
f7
330
   223
100
AcDbEntity
  8
output
420
2302755
100
AcDbVertex
100
AcDb3dPolylineVertex
 10
46.13785428779067388
 20
100.0
 30
0.0
 70
    32
  0
VERTEX
  5
f8
330
   223
100
AcDbEntity
  8
output
420
2302755
100
AcDbVertex
100
AcDb3dPolylineVertex
 10
48.0703125
 20
96.03125
 30
0.0
 70
    32
  0
VERTEX
  5
f9
330
   223
100
AcDbEntity
  8
output
420
2302755
100
AcDbVertex
100
AcDb3dPolylineVertex
 10
52.40625
 20
87.09375
 30
0.0
 70
    32
  0
VERTEX
  5
fa
330
   223
100
AcDbEntity
  8
output
420
2302755
100
AcDbVertex
100
AcDb3dPolylineVertex
 10
45.53125
 20
83.9375
 30
0.0
 70
    32
  0
VERTEX
  5
fb
330
   223
100
AcDbEntity
  8
output
420
2302755
100
AcDbVertex
100
AcDb3dPolylineVertex
 10
45.4609375
 20
83.6875
 30
0.0
 70
    32
  0
VERTEX
  5
fc
330
   223
100
AcDbEntity
  8
output
420
2302755
100
AcDbVertex
100
AcDb3dPolylineVertex
 10
42.78125
 20
82.1875
 30
0.0
 70
    32
  0
SEQEND
  5
fd
330
   223
100
AcDbEntity
  8
output
420
2302755
  0
HATCH
  5
fe
330
6d
100
AcDbEntity
  8
output
420
9263769
100
AcDbHatch
 10
0.0
 20
0.0
 30
0.0
210
0.0
220
0.0
230
1.0
  2
SOLID
 70
     1
 71
     0
 91
     1
 92
     2
 72
     0
 73
     1
 93
    15
 10
31.8046875
 20
43.5
 30
0.0
 10
32.046875
 20
43.46875
 30
0.0
 10
32.3203125
 20
47.59375
 30
0.0
 10
35.8125
 20
47.375
 30
0.0
 10
35.5546875
 20
43.53125
 30
0.0
 10
36.046875
 20
43.5
 30
0.0
 10
35.6640625
 20
37.6875
 30
0.0
 10
32.2109375
 20
37.9375
 30
0.0
 10
31.8046875
 20
31.6875
 30
0.0
 10
23.6796875
 20
32.25
 30
0.0
 10
24.5
 20
44.71875
 30
0.0
 10
28.9453125
 20
44.4375
 30
0.0
 10
28.8203125
 20
42.59375
 30
0.0
 10
31.734375
 20
42.40625
 30
0.0
 10
31.8046875
 20
43.5
 30
0.0
 97
     0
 75
     0
 76
     1
 98
     0
  0
HATCH
  5
ff
330
6d
100
AcDbEntity
  8
output
420
9263769
100
AcDbHatch
 10
0.0
 20
0.0
 30
0.0
210
0.0
220
0.0
230
1.0
  2
SOLID
 70
     1
 71
     0
 91
     1
 92
     2
 72
     0
 73
     1
 93
    18
 10
13.390625
 20
46.75
 30
0.0
 10
14.4765625
 20
46.9375
 30
0.0
 10
15.5703125
 20
46.90625
 30
0.0
 10
16.640625
 20
46.75
 30
0.0
 10
17.828125
 20
46.28125
 30
0.0
 10
18.78125
 20
45.8125
 30
0.0
 10
19.328125
 20
52.0625
 30
0.0
 10
22.515625
 20
51.78125
 30
0.0
 10
21.7578125
 20
43.03125
 30
0.0
 10
18.5625
 20
43.28125
 30
0.0
 10
18.4765625
 20
42.3125
 30
0.0
 10
18.8359375
 20
42.28125
 30
0.0
 10
17.921875
 20
32.90625
 30
0.0
 10
10.75
 20
33.59375
 30
0.0
 10
11.703125
 20
42.96875
 30
0.0
 10
12.109375
 20
42.9375
 30
0.0
 10
12.4453125
 20
46.375
 30
0.0
 10
13.390625
 20
46.75
 30
0.0
 97
     0
 75
     0
 76
     1
 98
     0
  0
HATCH
  5
100
330
6d
100
AcDbEntity
  8
output
420
9263769
100
AcDbHatch
 10
0.0
 20
0.0
 30
0.0
210
0.0
220
0.0
230
1.0
  2
SOLID
 70
     1
 71
     0
 91
     1
 92
     2
 72
     0
 73
     1
 93
    20
 10
62.640625
 20
38.8125
 30
0.0
 10
62.625
 20
33.59375
 30
0.0
 10
61.96875
 20
33.59375
 30
0.0
 10
61.9609375
 20
32.90625
 30
0.0
 10
58.5859375
 20
32.9375
 30
0.0
 10
58.5859375
 20
33.5625
 30
0.0
 10
56.203125
 20
33.59375
 30
0.0
 10
56.2265625
 20
39.78125
 30
0.0
 10
55.2890625
 20
39.78125
 30
0.0
 10
55.3046875
 20
44.5
 30
0.0
 10
51.1796875
 20
44.53125
 30
0.0
 10
51.2109375
 20
53.9375
 30
0.0
 10
58.6171875
 20
53.90625
 30
0.0
 10
58.5859375
 20
45.4375
 30
0.0
 10
62.7578125
 20
45.40625
 30
0.0
 10
62.75
 20
42.6875
 30
0.0
 10
62.75
 20
42.125
 30
0.0
 10
63.5078125
 20
42.125
 30
0.0
 10
63.4921875
 20
38.8125
 30
0.0
 10
62.640625
 20
38.8125
 30
0.0
 97
     0
 75
     0
 76
     1
 98
     0
  0
HATCH
  5
101
330
6d
100
AcDbEntity
  8
output
420
9263769
100
AcDbHatch
 10
0.0
 20
0.0
 30
0.0
210
0.0
220
0.0
230
1.0
  2
SOLID
 70
     1
 71
     0
 91
     1
 92
     2
 72
     0
 73
     1
 93
    13
 10
43.7890625
 20
47.40625
 30
0.0
 10
46.46875
 20
47.34375
 30
0.0
 10
46.6484375
 20
54.09375
 30
0.0
 10
50.515625
 20
54.0
 30
0.0
 10
50.1484375
 20
40.78125
 30
0.0
 10
46.296875
 20
40.90625
 30
0.0
 10
46.09375
 20
33.375
 30
0.0
 10
38.015625
 20
33.59375
 30
0.0
 10
38.21875
 20
41.15625
 30
0.0
 10
43.171875
 20
41.0
 30
0.0
 10
43.296875
 20
45.59375
 30
0.0
 10
43.734375
 20
45.5625
 30
0.0
 10
43.7890625
 20
47.40625
 30
0.0
 97
     0
 75
     0
 76
     1
 98
     0
  0
HATCH
  5
102
330
6d
100
AcDbEntity
  8
output
420
9263769
100
AcDbHatch
 10
0.0
 20
0.0
 30
0.0
210
0.0
220
0.0
230
1.0
  2
SOLID
 70
     1
 71
     0
 91
     1
 92
     2
 72
     0
 73
     1
 93
    17
 10
86.5703125
 20
53.5
 30
0.0
 10
83.4375
 20
65.78125
 30
0.0
 10
89.84258159222633822
 20
67.40595362339399799
 30
0.0
 10
88.984375
 20
70.75
 30
0.0
 10
82.9765625
 20
69.21875
 30
0.0
 10
79.359375
 20
83.375
 30
0.0
 10
90.9375
 20
86.34375
 30
0.0
 10
92.15625
 20
81.5625
 30
0.0
 10
88.640625
 20
80.65625
 30
0.0
 10
91.0
 20
71.4375
 30
0.0
 10
98.3828125
 20
73.3125
 30
0.0
 10
99.328125
 20
69.625
 30
0.0
 10
94.453125
 20
68.375
 30
0.0
 10
95.3046875
 20
65.0625
 30
0.0
 10
93.421875
 20
64.5625
 30
0.0
 10
95.65625
 20
55.8125
 30
0.0
 10
86.5703125
 20
53.5
 30
0.0
 97
     0
 75
     0
 76
     1
 98
     0
  0
HATCH
  5
103
330
6d
100
AcDbEntity
  8
output
420
9263769
100
AcDbHatch
 10
0.0
 20
0.0
 30
0.0
210
0.0
220
0.0
230
1.0
  2
SOLID
 70
     1
 71
     0
 91
     1
 92
     2
 72
     0
 73
     1
 93
    29
 10
42.78125
 20
82.1875
 30
0.0
 10
42.28125
 20
82.34375
 30
0.0
 10
40.8359375
 20
85.8125
 30
0.0
 10
39.015625
 20
85.0625
 30
0.0
 10
34.4140625
 20
83.78125
 30
0.0
 10
33.0859375
 20
87.0
 30
0.0
 10
31.5234375
 20
86.59375
 30
0.0
 10
31.2421875
 20
87.4375
 30
0.0
 10
30.4921875
 20
89.625
 30
0.0
 10
31.8984375
 20
90.21875
 30
0.0
 10
31.1484375
 20
92.0
 30
0.0
 10
27.4140625
 20
90.6875
 30
0.0
 10
27.53125
 20
90.25
 30
0.0
 10
26.9609375
 20
90.09375
 30
0.0
 10
26.65625
 20
89.6875
 30
0.0
 10
26.7421875
 20
89.15625
 30
0.0
 10
23.0625
 20
88.125
 30
0.0
 10
21.609375
 20
92.6875
 30
0.0
 10
36.0
 20
97.4375
 30
0.0
 10
36.1171875
 20
97.21875
 30
0.0
 10
36.6640625
 20
97.375
 30
0.0
 10
36.625
 20
97.46875
 30
0.0
 10
42.30022321428572241
 20
100.0
 30
0.0
 10
46.13785428779067388
 20
100.0
 30
0.0
 10
48.0703125
 20
96.03125
 30
0.0
 10
52.40625
 20
87.09375
 30
0.0
 10
45.53125
 20
83.9375
 30
0.0
 10
45.4609375
 20
83.6875
 30
0.0
 10
42.78125
 20
82.1875
 30
0.0
 97
     0
 75
     0
 76
     1
 98
     0
  0
ENDSEC
0
SECTION
2
OBJECTS
0
DICTIONARY
5
C
330
0
100
AcDbDictionary
281
   1
3
ACAD_GROUP
350
D
3
ACAD_LAYOUT
350
1A
3
ACAD_MLEADERSTYLE
350
43
3
ACAD_MLINESTYLE
350
17
3
ACAD_PLOTSETTINGS
350
19
3
ACAD_PLOTSTYLENAME
350
E
3
ACAD_TABLESTYLE
350
42
3
ACAD_VISUALSTYLE
350
2A
0
DICTIONARY
5
D
102
{ACAD_REACTORS
330
C
102
}
330
C
100
AcDbDictionary
281
   1
0
DICTIONARY
5
1A
102
{ACAD_REACTORS
330
C
102
}
330
C
100
AcDbDictionary
281
   1
3
Layout1
350
1E
3
Layout2
350
26
3
Model
350
22
0
DICTIONARY
5
43
102
{ACAD_REACTORS
330
C
102
}
330
C
100
AcDbDictionary
281
   1
0
DICTIONARY
5
17
102
{ACAD_REACTORS
330
C
102
}
330
C
100
AcDbDictionary
281
   1
3
Standard
350
18
0
DICTIONARY
5
19
102
{ACAD_REACTORS
330
C
102
}
330
C
100
AcDbDictionary
281
   1
0
ACDBDICTIONARYWDFLT
5
E
102
{ACAD_REACTORS
330
C
102
}
330
C
100
AcDbDictionary
281
   1
3
Normal
350
F
100
AcDbDictionaryWithDefault
340
F
0
DICTIONARY
5
42
102
{ACAD_REACTORS
330
C
102
}
330
C
100
AcDbDictionary
281
   1
0
DICTIONARY
5
2A
102
{ACAD_REACTORS
330
C
102
}
330
C
100
AcDbDictionary
281
   1
3
2dWireframe
350
2F
3
3D Hidden
350
31
3
3dWireframe
350
30
3
Basic
350
32
3
Brighten
350
36
3
ColorChange
350
3A
3
Conceptual
350
34
3
Dim
350
35
3
Facepattern
350
39
3
Flat
350
2B
3
FlatWithEdges
350
2C
3
Gouraud
350
2D
3
GouraudWithEdges
350
2E
3
Linepattern
350
38
3
Realistic
350
33
3
Thicken
350
37
0
LAYOUT
5
1E
102
{ACAD_REACTORS
330
1A
102
}
330
1A
100
AcDbPlotSettings
1

2
none_device
4

6

40
0.0
41
0.0
42
0.0
43
0.0
44
0.0
45
0.0
46
0.0
47
0.0
48
0.0
49
0.0
140
0.0
141
0.0
142
1.0
143
1.0
70
 688
72
   0
73
   0
74
   5
7

75
  16
76
   0
77
   2
78
 300
147
1.0
148
0.0
149
0.0
100
AcDbLayout
1
Layout1
70
   1
71
   1
10
0.0
20
0.0
11
12.0
21
9.0
12
0.0
22
0.0
32
0.0
14
1.000000000000000E+20
24
1.000000000000000E+20
34
1.000000000000000E+20
15
-1.000000000000000E+20
25
-1.000000000000000E+20
35
-1.000000000000000E+20
146
0.0
13
0.0
23
0.0
33
0.0
16
1.0
26
0.0
36
0.0
17
0.0
27
1.0
37
0.0
76
   0
330
1B
0
LAYOUT
5
26
102
{ACAD_REACTORS
330
1A
102
}
330
1A
100
AcDbPlotSettings
1

2
none_device
4

6

40
0.0
41
0.0
42
0.0
43
0.0
44
0.0
45
0.0
46
0.0
47
0.0
48
0.0
49
0.0
140
0.0
141
0.0
142
1.0
143
1.0
70
 688
72
   0
73
   0
74
   5
7

75
  16
76
   0
77
   2
78
 300
147
1.0
148
0.0
149
0.0
100
AcDbLayout
1
Layout2
70
   1
71
   2
10
0.0
20
0.0
11
0.0
21
0.0
12
0.0
22
0.0
32
0.0
14
0.0
24
0.0
34
0.0
15
0.0
25
0.0
35
0.0
146
0.0
13
0.0
23
0.0
33
0.0
16
1.0
26
0.0
36
0.0
17
0.0
27
1.0
37
0.0
76
   0
330
23
0
LAYOUT
5
22
102
{ACAD_REACTORS
330
1A
102
}
330
1A
100
AcDbPlotSettings
1

2
none_device
4

6

40
0.0
41
0.0
42
0.0
43
0.0
44
0.0
45
0.0
46
0.0
47
0.0
48
0.0
49
0.0
140
0.0
141
0.0
142
1.0
143
1.0
70
1712
72
   0
73
   0
74
   0
7

75
   0
76
   0
77
   2
78
 300
147
1.0
148
0.0
149
0.0
100
AcDbLayout
1
Model
70
   1
71
   0
10
0.0
20
0.0
11
12.0
21
9.0
12
0.0
22
0.0
32
0.0
14
30.0
24
49.75
34
0.0
15
130.5
25
163.1318914119703
35
0.0
146
0.0
13
0.0
23
0.0
33
0.0
16
1.0
26
0.0
36
0.0
17
0.0
27
1.0
37
0.0
76
   0
330
1F
331
29
0
MLINESTYLE
5
18
102
{ACAD_REACTORS
330
17
102
}
330
17
100
AcDbMlineStyle
2
Standard
70
   0
3

62
 256
51
90.0
52
90.0
71
   2
49
0.5
62
 256
6
BYLAYER
49
-0.5
62
 256
6
BYLAYER
0
ACDBPLACEHOLDER
5
F
102
{ACAD_REACTORS
330
E
102
}
330
E
0
VISUALSTYLE
5
2F
102
{ACAD_REACTORS
330
2A
102
}
330
2A
100
AcDbVisualStyle
2
2dWireframe
70
   4
71
   0
72
   2
73
   0
90
      0
40
-0.6
41
-30.0
62
   5
63
   7
421
16777215
74
   1
91
      4
64
   7
65
 257
75
   1
175
   1
42
1.0
92
      0
66
 257
43
1.0
76
   1
77
   6
78
   2
67
   7
79
   5
170
   0
171
   0
290
   0
174
   0
93
      1
44
0.0
173
   0
291
   0
45
0.0
1001
ACAD
1000
AcDbSavedByObjectVersion
1070
   0
0
VISUALSTYLE
5
31
102
{ACAD_REACTORS
330
2A
102
}
330
2A
100
AcDbVisualStyle
2
3D Hidden
70
   6
71
   1
72
   2
73
   2
90
      0
40
-0.6
41
-30.0
62
   5
63
   7
421
16777215
74
   2
91
      2
64
   7
65
 257
75
   2
175
   1
42
40.0
92
      0
66
 257
43
1.0
76
   1
77
   6
78
   2
67
   7
79
   3
170
   0
171
   0
290
   0
174
   0
93
      1
44
0.0
173
   0
291
   0
45
0.0
1001
ACAD
1000
AcDbSavedByObjectVersion
1070
   0
0
VISUALSTYLE
5
30
102
{ACAD_REACTORS
330
2A
102
}
330
2A
100
AcDbVisualStyle
2
3dWireframe
70
   5
71
   0
72
   2
73
   0
90
      0
40
-0.6
41
-30.0
62
   5
63
   7
421
16777215
74
   1
91
      4
64
   7
65
 257
75
   1
175
   1
42
1.0
92
      0
66
 257
43
1.0
76
   1
77
   6
78
   2
67
   7
79
   5
170
   0
171
   0
290
   0
174
   0
93
      1
44
0.0
173
   0
291
   0
45
0.0
1001
ACAD
1000
AcDbSavedByObjectVersion
1070
   0
0
VISUALSTYLE
5
32
102
{ACAD_REACTORS
330
2A
102
}
330
2A
100
AcDbVisualStyle
2
Basic
70
   7
71
   1
72
   0
73
   1
90
      0
40
-0.6
41
-30.0
62
   5
63
   7
421
16777215
74
   0
91
      4
64
   7
65
 257
75
   1
175
   1
42
1.0
92
      8
66
   7
43
1.0
76
   1
77
   6
78
   2
67
   7
79
   5
170
   0
171
   0
290
   0
174
   0
93
      1
44
0.0
173
   0
291
   1
45
0.0
1001
ACAD
1000
AcDbSavedByObjectVersion
1070
   0
0
VISUALSTYLE
5
36
102
{ACAD_REACTORS
330
2A
102
}
330
2A
100
AcDbVisualStyle
2
Brighten
70
  12
71
   2
72
   2
73
   0
90
      0
40
-0.6
41
-30.0
62
   5
63
   7
421
16777215
74
   1
91
      4
64
   7
65
 257
75
   1
175
   1
42
1.0
92
      8
66
   7
43
1.0
76
   1
77
   6
78
   2
67
   7
79
   5
170
   0
171
   0
290
   0
174
   0
93
      1
44
50.0
173
   0
291
   1
45
0.0
1001
ACAD
1000
AcDbSavedByObjectVersion
1070
   0
0
VISUALSTYLE
5
3A
102
{ACAD_REACTORS
330
2A
102
}
330
2A
100
AcDbVisualStyle
2
ColorChange
70
  16
71
   2
72
   2
73
   3
90
      0
40
-0.6
41
-30.0
62
   5
63
   8
421
8421504
74
   1
91
      4
64
   7
65
 257
75
   1
175
   1
42
1.0
92
      8
66
   8
424
8421504
43
1.0
76
   1
77
   6
78
   2
67
   7
79
   5
170
   0
171
   0
290
   0
174
   0
93
      1
44
0.0
173
   0
291
   1
45
0.0
1001
ACAD
1000
AcDbSavedByObjectVersion
1070
   0
0
VISUALSTYLE
5
34
102
{ACAD_REACTORS
330
2A
102
}
330
2A
100
AcDbVisualStyle
2
Conceptual
70
   9
71
   3
72
   2
73
   0
90
      0
40
-0.6
41
-30.0
62
   5
63
   7
421
16777215
74
   2
91
      2
64
   7
65
 257
75
   1
175
   1
42
40.0
92
      8
66
   7
43
1.0
76
   1
77
   6
78
   2
67
   7
79
   3
170
   0
171
   0
290
   0
174
   0
93
      1
44
0.0
173
   0
291
   0
45
0.0
1001
ACAD
1000
AcDbSavedByObjectVersion
1070
   0
0
VISUALSTYLE
5
35
102
{ACAD_REACTORS
330
2A
102
}
330
2A
100
AcDbVisualStyle
2
Dim
70
  11
71
   2
72
   2
73
   0
90
      0
40
-0.6
41
-30.0
62
   5
63
   7
421
16777215
74
   1
91
      4
64
   7
65
 257
75
   1
175
   1
42
1.0
92
      8
66
   7
43
1.0
76
   1
77
   6
78
   2
67
   7
79
   5
170
   0
171
   0
290
   0
174
   0
93
      1
44
-50.0
173
   0
291
   1
45
0.0
1001
ACAD
1000
AcDbSavedByObjectVersion
1070
   0
0
VISUALSTYLE
5
39
102
{ACAD_REACTORS
330
2A
102
}
330
2A
100
AcDbVisualStyle
2
Facepattern
70
  15
71
   2
72
   2
73
   0
90
      0
40
-0.6
41
-30.0
62
   5
63
   7
421
16777215
74
   1
91
      4
64
   7
65
 257
75
   1
175
   1
42
1.0
92
      8
66
   7
43
1.0
76
   1
77
   6
78
   2
67
   7
79
   5
170
   0
171
   0
290
   0
174
   0
93
      1
44
0.0
173
   0
291
   1
45
0.0
1001
ACAD
1000
AcDbSavedByObjectVersion
1070
   0
0
VISUALSTYLE
5
2B
102
{ACAD_REACTORS
330
2A
102
}
330
2A
100
AcDbVisualStyle
2
Flat
70
   0
71
   2
72
   1
73
   1
90
      2
40
-0.6
41
30.0
62
   5
63
   7
421
16777215
74
   0
91
      4
64
   7
65
 257
75
   1
175
   1
42
1.0
92
      8
66
   7
43
1.0
76
   1
77
   6
78
   2
67
   7
79
   5
170
   0
171
   0
290
   0
174
   0
93
     13
44
0.0
173
   0
291
   1
45
0.0
1001
ACAD
1000
AcDbSavedByObjectVersion
1070
   0
0
VISUALSTYLE
5
2C
102
{ACAD_REACTORS
330
2A
102
}
330
2A
100
AcDbVisualStyle
2
FlatWithEdges
70
   1
71
   2
72
   1
73
   1
90
      2
40
-0.6
41
30.0
62
   5
63
   7
421
16777215
74
   1
91
      4
64
   7
65
 257
75
   1
175
   1
42
1.0
92
      0
66
 257
43
1.0
76
   1
77
   6
78
   2
67
   7
79
   5
170
   0
171
   0
290
   0
174
   0
93
     13
44
0.0
173
   0
291
   1
45
0.0
1001
ACAD
1000
AcDbSavedByObjectVersion
1070
   0
0
VISUALSTYLE
5
2D
102
{ACAD_REACTORS
330
2A
102
}
330
2A
100
AcDbVisualStyle
2
Gouraud
70
   2
71
   2
72
   2
73
   1
90
      2
40
-0.6
41
30.0
62
   5
63
   7
421
16777215
74
   0
91
      4
64
   7
65
 257
75
   1
175
   1
42
1.0
92
      0
66
   7
43
1.0
76
   1
77
   6
78
   2
67
   7
79
   5
170
   0
171
   0
290
   0
174
   0
93
     13
44
0.0
173
   0
291
   1
45
0.0
1001
ACAD
1000
AcDbSavedByObjectVersion
1070
   0
0
VISUALSTYLE
5
2E
102
{ACAD_REACTORS
330
2A
102
}
330
2A
100
AcDbVisualStyle
2
GouraudWithEdges
70
   3
71
   2
72
   2
73
   1
90
      2
40
-0.6
41
30.0
62
   5
63
   7
421
16777215
74
   1
91
      4
64
   7
65
 257
75
   1
175
   1
42
1.0
92
      0
66
 257
43
1.0
76
   1
77
   6
78
   2
67
   7
79
   5
170
   0
171
   0
290
   0
174
   0
93
     13
44
0.0
173
   0
291
   1
45
0.0
1001
ACAD
1000
AcDbSavedByObjectVersion
1070
   0
0
VISUALSTYLE
5
38
102
{ACAD_REACTORS
330
2A
102
}
330
2A
100
AcDbVisualStyle
2
Linepattern
70
  14
71
   2
72
   2
73
   0
90
      0
40
-0.6
41
-30.0
62
   5
63
   7
421
16777215
74
   1
91
      4
64
   7
65
 257
75
   7
175
   7
42
1.0
92
      8
66
   7
43
1.0
76
   1
77
   6
78
   2
67
   7
79
   5
170
   0
171
   0
290
   0
174
   0
93
      1
44
0.0
173
   0
291
   1
45
0.0
1001
ACAD
1000
AcDbSavedByObjectVersion
1070
   0
0
VISUALSTYLE
5
33
102
{ACAD_REACTORS
330
2A
102
}
330
2A
100
AcDbVisualStyle
2
Realistic
70
   8
71
   2
72
   2
73
   0
90
      0
40
-0.6
41
-30.0
62
   5
63
   7
421
16777215
74
   1
91
      0
64
   7
65
 257
75
   1
175
   1
42
1.0
92
      8
66
   8
424
7895160
43
1.0
76
   1
77
   6
78
   2
67
   7
79
   5
170
   0
171
   0
290
   0
174
   0
93
     13
44
0.0
173
   0
291
   0
45
0.0
1001
ACAD
1000
AcDbSavedByObjectVersion
1070
   0
0
VISUALSTYLE
5
37
102
{ACAD_REACTORS
330
2A
102
}
330
2A
100
AcDbVisualStyle
2
Thicken
70
  13
71
   2
72
   2
73
   0
90
      0
40
-0.6
41
-30.0
62
   5
63
   7
421
16777215
74
   1
91
      4
64
   7
65
 257
75
   1
175
   1
42
1.0
92
     12
66
   7
43
1.0
76
   1
77
   6
78
   2
67
   7
79
   5
170
   0
171
   0
290
   0
174
   0
93
      1
44
0.0
173
   0
291
   1
45
0.0
1001
ACAD
1000
AcDbSavedByObjectVersion
1070
   0
0
ENDSEC
  0
EOF
