999
DXF created from QGIS
  0
SECTION
  2
HEADER
  9
$ACADVER
  1
AC1015
  9
$EXTMIN
 10
29.59563281762530096
 20
7.875
 30
0.0
  9
$EXTMAX
 10
93.6640625
 20
93.3125
 30
0.0
  9
$LTSCALE
 40
1.0
  9
$PDMODE
 70
    33
  9
$PDSIZE
 40
     1
  9
$PSLTSCALE
 70
     0
  9
$HANDSEED
  5
9999999
  9
$DWGCODEPAGE
  3

  0
ENDSEC
  0
SECTION
  2
TABLES
  0
TABLE
  2
LTYPE
  5
64
100
AcDbSymbolTable
 70
     5
  0
LTYPE
  5
65
100
AcDbSymbolTableRecord
100
AcDbLinetypeTableRecord
  2
ByLayer
 70
    64
  3
Defaultstyle
 72
    65
 73
     0
 40
0.0
  0
LTYPE
  5
66
100
AcDbSymbolTableRecord
100
AcDbLinetypeTableRecord
  2
ByBlock
 70
    64
  3
Defaultstyle
 72
    65
 73
     0
 40
0.0
  0
LTYPE
  5
67
100
AcDbSymbolTableRecord
100
AcDbLinetypeTableRecord
  2
CONTINUOUS
 70
    64
  3
Defaultstyle
 72
    65
 73
     0
 40
0.0
  0
LTYPE
  5
68
100
AcDbSymbolTableRecord
100
AcDbLinetypeTableRecord
  2
DASH
 70
    64
  3

 72
    65
 73
     2
 40
26.0
 49
20.0
 74
     0
 49
-5.99999999999999911
 74
     0
  0
LTYPE
  5
69
100
AcDbSymbolTableRecord
100
AcDbLinetypeTableRecord
  2
DOT
 70
    64
  3

 72
    65
 73
     2
 40
11.99999999999999822
 49
5.99999999999999911
 74
     0
 49
-5.99999999999999911
 74
     0
  0
LTYPE
  5
6a
100
AcDbSymbolTableRecord
100
AcDbLinetypeTableRecord
  2
DASHDOT
 70
    64
  3

 72
    65
 73
     4
 40
38.0
 49
20.0
 74
     0
 49
-5.99999999999999911
 74
     0
 49
5.99999999999999911
 74
     0
 49
-5.99999999999999911
 74
     0
  0
LTYPE
  5
6b
100
AcDbSymbolTableRecord
100
AcDbLinetypeTableRecord
  2
DASHDOTDOT
 70
    64
  3

 72
    65
 73
     6
 40
50.0
 49
20.0
 74
     0
 49
-5.99999999999999911
 74
     0
 49
5.99999999999999911
 74
     0
 49
-5.99999999999999911
 74
     0
 49
5.99999999999999911
 74
     0
 49
-5.99999999999999911
 74
     0
  0
ENDTAB
  0
TABLE
  2
BLOCK_RECORD
  5
6c
100
AcDbSymbolTable
 70
     0
  0
BLOCK_RECORD
  5
6d
100
AcDbSymbolTableRecord
100
AcDbBlockTableRecord
  2
*Model_Space
  0
BLOCK_RECORD
  5
6e
100
AcDbSymbolTableRecord
100
AcDbBlockTableRecord
  2
*Paper_Space
  0
BLOCK_RECORD
  5
6f
100
AcDbSymbolTableRecord
100
AcDbBlockTableRecord
  2
*Paper_Space0
  0
ENDTAB
  0
TABLE
  2
APPID
  5
70
100
AcDbSymbolTable
 70
     1
  0
APPID
  5
71
100
AcDbSymbolTableRecord
100
AcDbRegAppTableRecord
  2
ACAD
 70
     0
  0
ENDTAB
  0
TABLE
  2
VIEW
  5
72
100
AcDbSymbolTable
 70
     0
  0
ENDTAB
  0
TABLE
  2
UCS
  5
73
100
AcDbSymbolTable
 70
     0
  0
ENDTAB
  0
TABLE
  2
VPORT
  5
74
100
AcDbSymbolTable
  0
VPORT
  5
75
100
AcDbSymbolTableRecord
100
AcDbViewportTableRecord
  2
*ACTIVE
 70
     0
 10
0.0
 20
0.0
 11
1.0
 21
1.0
 12
0.0
 22
0.0
 13
0.0
 23
0.0
 14
1.0
 24
1.0
 15
1.0
 25
1.0
 16
0.0
 26
0.0
 36
1.0
 17
61.62984765881265048
 27
50.59375
 40
85.4375
 41
0.74988652152011348
 42
50.0
 43
0.0
 44
0.0
 50
0.0
 51
0.0
 71
     0
 72
   100
 73
     1
 74
     1
 75
     0
 76
     0
 77
     0
 78
     0
281
     0
 65
     1
110
0.0
120
0.0
130
0.0
111
1.0
121
0.0
131
0.0
112
0.0
122
1.0
132
0.0
 79
     0
146
0.0
 70
     0
  0
ENDTAB
  0
TABLE
  2
DIMSTYLE
  5
76
100
AcDbSymbolTable
100
AcDbDimStyleTable
 70
     0
  0
ENDTAB
  0
TABLE
  2
LAYER
  5
77
100
AcDbSymbolTable
 70
     2
  0
LAYER
  5
78
100
AcDbSymbolTableRecord
100
AcDbLayerTableRecord
  2
0
 70
    64
 62
     1
  6
CONTINUOUS
390
f
  0
LAYER
  5
79
100
AcDbSymbolTableRecord
100
AcDbLayerTableRecord
  2
output
 70
    64
 62
     1
  6
CONTINUOUS
390
f
  0
ENDTAB
  0
TABLE
  2
STYLE
  5
7a
100
AcDbSymbolTable
 70
     1
  0
STYLE
  5
7b
100
AcDbSymbolTableRecord
100
AcDbTextStyleTableRecord
  2
STANDARD
 70
    64
 40
0.0
 41
1.0
 50
0.0
 71
     0
 42
5.0
  3
romans.shx
  4

  0
ENDTAB
  0
ENDSEC
  0
SECTION
  2
BLOCKS
  0
BLOCK
  5
7c
330
6d
100
AcDbEntity
  8
0
100
AcDbBlockBegin
  2
*Model_Space
 70
     0
 10
0.0
 20
0.0
 30
0.0
  3
*Model_Space
  1

  0
ENDBLK
  5
7d
100
AcDbEntity
  8
0
100
AcDbBlockEnd
  0
BLOCK
  5
7e
330
6e
100
AcDbEntity
  8
0
100
AcDbBlockBegin
  2
*Paper_Space
 70
     0
 10
0.0
 20
0.0
 30
0.0
  3
*Paper_Space
  1

  0
ENDBLK
  5
7f
100
AcDbEntity
  8
0
100
AcDbBlockEnd
  0
BLOCK
  5
80
330
6f
100
AcDbEntity
  8
0
100
AcDbBlockBegin
  2
*Paper_Space0
 70
     0
 10
0.0
 20
0.0
 30
0.0
  3
*Paper_Space0
  1

  0
ENDBLK
  5
81
100
AcDbEntity
  8
0
100
AcDbBlockEnd
  0
ENDSEC
  0
SECTION
  2
ENTITIES
  0
POLYLINE
  5
82
330
6d
100
AcDbEntity
  8
output
  6
CONTINUOUS
420
2302755
100
AcDb3dPolyline
 10
0.0
 20
0.0
 30
0.0
 70
     8
  0
VERTEX
  5
83
330
   130
100
AcDbEntity
  8
output
420
2302755
100
AcDbVertex
100
AcDb3dPolylineVertex
 10
85.0546875
 20
22.28125
 30
0.0
 70
    32
  0
VERTEX
  5
84
330
   130
100
AcDbEntity
  8
output
420
2302755
100
AcDbVertex
100
AcDb3dPolylineVertex
 10
89.9140625
 20
14.71875
 30
0.0
 70
    32
  0
VERTEX
  5
85
330
   130
100
AcDbEntity
  8
output
420
2302755
100
AcDbVertex
100
AcDb3dPolylineVertex
 10
86.0546875
 20
12.21875
 30
0.0
 70
    32
  0
VERTEX
  5
86
330
   130
100
AcDbEntity
  8
output
420
2302755
100
AcDbVertex
100
AcDb3dPolylineVertex
 10
85.3671875
 20
13.3125
 30
0.0
 70
    32
  0
VERTEX
  5
87
330
   130
100
AcDbEntity
  8
output
420
2302755
100
AcDbVertex
100
AcDb3dPolylineVertex
 10
76.9453125
 20
7.875
 30
0.0
 70
    32
  0
VERTEX
  5
88
330
   130
100
AcDbEntity
  8
output
420
2302755
100
AcDbVertex
100
AcDb3dPolylineVertex
 10
72.0703125
 20
15.4375
 30
0.0
 70
    32
  0
VERTEX
  5
89
330
   130
100
AcDbEntity
  8
output
420
2302755
100
AcDbVertex
100
AcDb3dPolylineVertex
 10
75.9609375
 20
17.9375
 30
0.0
 70
    32
  0
VERTEX
  5
8a
330
   130
100
AcDbEntity
  8
output
420
2302755
100
AcDbVertex
100
AcDb3dPolylineVertex
 10
76.65625
 20
16.875
 30
0.0
 70
    32
  0
VERTEX
  5
8b
330
   130
100
AcDbEntity
  8
output
420
2302755
100
AcDbVertex
100
AcDb3dPolylineVertex
 10
78.0859375
 20
17.78125
 30
0.0
 70
    32
  0
VERTEX
  5
8c
330
   130
100
AcDbEntity
  8
output
420
2302755
100
AcDbVertex
100
AcDb3dPolylineVertex
 10
76.2421875
 20
20.65625
 30
0.0
 70
    32
  0
VERTEX
  5
8d
330
   130
100
AcDbEntity
  8
output
420
2302755
100
AcDbVertex
100
AcDb3dPolylineVertex
 10
74.1640625
 20
19.3125
 30
0.0
 70
    32
  0
VERTEX
  5
8e
330
   130
100
AcDbEntity
  8
output
420
2302755
100
AcDbVertex
100
AcDb3dPolylineVertex
 10
71.921875
 20
22.8125
 30
0.0
 70
    32
  0
VERTEX
  5
8f
330
   130
100
AcDbEntity
  8
output
420
2302755
100
AcDbVertex
100
AcDb3dPolylineVertex
 10
77.75
 20
26.5625
 30
0.0
 70
    32
  0
VERTEX
  5
90
330
   130
100
AcDbEntity
  8
output
420
2302755
100
AcDbVertex
100
AcDb3dPolylineVertex
 10
80.0
 20
23.0625
 30
0.0
 70
    32
  0
VERTEX
  5
91
330
   130
100
AcDbEntity
  8
output
420
2302755
100
AcDbVertex
100
AcDb3dPolylineVertex
 10
77.90625
 20
21.71875
 30
0.0
 70
    32
  0
VERTEX
  5
92
330
   130
100
AcDbEntity
  8
output
420
2302755
100
AcDbVertex
100
AcDb3dPolylineVertex
 10
79.75
 20
18.84375
 30
0.0
 70
    32
  0
VERTEX
  5
93
330
   130
100
AcDbEntity
  8
output
420
2302755
100
AcDbVertex
100
AcDb3dPolylineVertex
 10
85.0546875
 20
22.28125
 30
0.0
 70
    32
  0
SEQEND
  5
94
330
   130
100
AcDbEntity
  8
output
420
2302755
  0
POLYLINE
  5
95
330
6d
100
AcDbEntity
  8
output
  6
CONTINUOUS
420
2302755
100
AcDb3dPolyline
 10
0.0
 20
0.0
 30
0.0
 70
     8
  0
VERTEX
  5
96
330
   149
100
AcDbEntity
  8
output
420
2302755
100
AcDbVertex
100
AcDb3dPolylineVertex
 10
66.65625
 20
39.21875
 30
0.0
 70
    32
  0
VERTEX
  5
97
330
   149
100
AcDbEntity
  8
output
420
2302755
100
AcDbVertex
100
AcDb3dPolylineVertex
 10
69.171875
 20
40.84375
 30
0.0
 70
    32
  0
VERTEX
  5
98
330
   149
100
AcDbEntity
  8
output
420
2302755
100
AcDbVertex
100
AcDb3dPolylineVertex
 10
66.09375
 20
45.625
 30
0.0
 70
    32
  0
VERTEX
  5
99
330
   149
100
AcDbEntity
  8
output
420
2302755
100
AcDbVertex
100
AcDb3dPolylineVertex
 10
64.203125
 20
48.65625
 30
0.0
 70
    32
  0
VERTEX
  5
9a
330
   149
100
AcDbEntity
  8
output
420
2302755
100
AcDbVertex
100
AcDb3dPolylineVertex
 10
64.3515625
 20
48.625
 30
0.0
 70
    32
  0
VERTEX
  5
9b
330
   149
100
AcDbEntity
  8
output
420
2302755
100
AcDbVertex
100
AcDb3dPolylineVertex
 10
64.2421875
 20
48.71875
 30
0.0
 70
    32
  0
VERTEX
  5
9c
330
   149
100
AcDbEntity
  8
output
420
2302755
100
AcDbVertex
100
AcDb3dPolylineVertex
 10
64.0546875
 20
49.0625
 30
0.0
 70
    32
  0
VERTEX
  5
9d
330
   149
100
AcDbEntity
  8
output
420
2302755
100
AcDbVertex
100
AcDb3dPolylineVertex
 10
60.4921875
 20
54.59375
 30
0.0
 70
    32
  0
VERTEX
  5
9e
330
   149
100
AcDbEntity
  8
output
420
2302755
100
AcDbVertex
100
AcDb3dPolylineVertex
 10
56.6875
 20
52.15625
 30
0.0
 70
    32
  0
VERTEX
  5
9f
330
   149
100
AcDbEntity
  8
output
420
2302755
100
AcDbVertex
100
AcDb3dPolylineVertex
 10
53.0703125
 20
57.9375
 30
0.0
 70
    32
  0
VERTEX
  5
a0
330
   149
100
AcDbEntity
  8
output
420
2302755
100
AcDbVertex
100
AcDb3dPolylineVertex
 10
53.21875
 20
57.90625
 30
0.0
 70
    32
  0
VERTEX
  5
a1
330
   149
100
AcDbEntity
  8
output
420
2302755
100
AcDbVertex
100
AcDb3dPolylineVertex
 10
52.78125
 20
58.40625
 30
0.0
 70
    32
  0
VERTEX
  5
a2
330
   149
100
AcDbEntity
  8
output
420
2302755
100
AcDbVertex
100
AcDb3dPolylineVertex
 10
64.984375
 20
66.09375
 30
0.0
 70
    32
  0
VERTEX
  5
a3
330
   149
100
AcDbEntity
  8
output
420
2302755
100
AcDbVertex
100
AcDb3dPolylineVertex
 10
65.2265625
 20
65.78125
 30
0.0
 70
    32
  0
VERTEX
  5
a4
330
   149
100
AcDbEntity
  8
output
420
2302755
100
AcDbVertex
100
AcDb3dPolylineVertex
 10
64.7890625
 20
65.5
 30
0.0
 70
    32
  0
VERTEX
  5
a5
330
   149
100
AcDbEntity
  8
output
420
2302755
100
AcDbVertex
100
AcDb3dPolylineVertex
 10
71.96875
 20
54.28125
 30
0.0
 70
    32
  0
VERTEX
  5
a6
330
   149
100
AcDbEntity
  8
output
420
2302755
100
AcDbVertex
100
AcDb3dPolylineVertex
 10
72.765625
 20
54.8125
 30
0.0
 70
    32
  0
VERTEX
  5
a7
330
   149
100
AcDbEntity
  8
output
420
2302755
100
AcDbVertex
100
AcDb3dPolylineVertex
 10
73.0234375
 20
54.40625
 30
0.0
 70
    32
  0
VERTEX
  5
a8
330
   149
100
AcDbEntity
  8
output
420
2302755
100
AcDbVertex
100
AcDb3dPolylineVertex
 10
69.484375
 20
52.0625
 30
0.0
 70
    32
  0
VERTEX
  5
a9
330
   149
100
AcDbEntity
  8
output
420
2302755
100
AcDbVertex
100
AcDb3dPolylineVertex
 10
71.421875
 20
49.03125
 30
0.0
 70
    32
  0
VERTEX
  5
aa
330
   149
100
AcDbEntity
  8
output
420
2302755
100
AcDbVertex
100
AcDb3dPolylineVertex
 10
74.3828125
 20
44.40625
 30
0.0
 70
    32
  0
VERTEX
  5
ab
330
   149
100
AcDbEntity
  8
output
420
2302755
100
AcDbVertex
100
AcDb3dPolylineVertex
 10
77.4765625
 20
46.40625
 30
0.0
 70
    32
  0
VERTEX
  5
ac
330
   149
100
AcDbEntity
  8
output
420
2302755
100
AcDbVertex
100
AcDb3dPolylineVertex
 10
77.671875
 20
46.09375
 30
0.0
 70
    32
  0
VERTEX
  5
ad
330
   149
100
AcDbEntity
  8
output
420
2302755
100
AcDbVertex
100
AcDb3dPolylineVertex
 10
77.0390625
 20
45.6875
 30
0.0
 70
    32
  0
VERTEX
  5
ae
330
   149
100
AcDbEntity
  8
output
420
2302755
100
AcDbVertex
100
AcDb3dPolylineVertex
 10
83.203125
 20
36.0
 30
0.0
 70
    32
  0
VERTEX
  5
af
330
   149
100
AcDbEntity
  8
output
420
2302755
100
AcDbVertex
100
AcDb3dPolylineVertex
 10
83.875
 20
36.4375
 30
0.0
 70
    32
  0
VERTEX
  5
b0
330
   149
100
AcDbEntity
  8
output
420
2302755
100
AcDbVertex
100
AcDb3dPolylineVertex
 10
84.0625
 20
36.125
 30
0.0
 70
    32
  0
VERTEX
  5
b1
330
   149
100
AcDbEntity
  8
output
420
2302755
100
AcDbVertex
100
AcDb3dPolylineVertex
 10
73.1171875
 20
29.125
 30
0.0
 70
    32
  0
VERTEX
  5
b2
330
   149
100
AcDbEntity
  8
output
420
2302755
100
AcDbVertex
100
AcDb3dPolylineVertex
 10
66.65625
 20
39.21875
 30
0.0
 70
    32
  0
SEQEND
  5
b3
330
   149
100
AcDbEntity
  8
output
420
2302755
  0
POLYLINE
  5
b4
330
6d
100
AcDbEntity
  8
output
  6
CONTINUOUS
420
2302755
100
AcDb3dPolyline
 10
0.0
 20
0.0
 30
0.0
 70
     8
  0
VERTEX
  5
b5
330
   180
100
AcDbEntity
  8
output
420
2302755
100
AcDbVertex
100
AcDb3dPolylineVertex
 10
46.43938281762530096
 20
58.67215553089044988
 30
0.0
 70
    32
  0
VERTEX
  5
b6
330
   180
100
AcDbEntity
  8
output
420
2302755
100
AcDbVertex
100
AcDb3dPolylineVertex
 10
47.12688281762530096
 20
57.57840553089044988
 30
0.0
 70
    32
  0
VERTEX
  5
b7
330
   180
100
AcDbEntity
  8
output
420
2302755
100
AcDbVertex
100
AcDb3dPolylineVertex
 10
44.96282031762530096
 20
56.20340553089044988
 30
0.0
 70
    32
  0
VERTEX
  5
b8
330
   180
100
AcDbEntity
  8
output
420
2302755
100
AcDbVertex
100
AcDb3dPolylineVertex
 10
46.19719531762530096
 20
54.26590553089044988
 30
0.0
 70
    32
  0
VERTEX
  5
b9
330
   180
100
AcDbEntity
  8
output
420
2302755
100
AcDbVertex
100
AcDb3dPolylineVertex
 10
37.82219531762530096
 20
48.89090553089044988
 30
0.0
 70
    32
  0
VERTEX
  5
ba
330
   180
100
AcDbEntity
  8
output
420
2302755
100
AcDbVertex
100
AcDb3dPolylineVertex
 10
36.83000781762530096
 20
50.45340553089044988
 30
0.0
 70
    32
  0
VERTEX
  5
bb
330
   180
100
AcDbEntity
  8
output
420
2302755
100
AcDbVertex
100
AcDb3dPolylineVertex
 10
35.99407031762530096
 20
49.92215553089044988
 30
0.0
 70
    32
  0
VERTEX
  5
bc
330
   180
100
AcDbEntity
  8
output
420
2302755
100
AcDbVertex
100
AcDb3dPolylineVertex
 10
33.20500781762530096
 20
54.29715553089044988
 30
0.0
 70
    32
  0
VERTEX
  5
bd
330
   180
100
AcDbEntity
  8
output
420
2302755
100
AcDbVertex
100
AcDb3dPolylineVertex
 10
37.68157031762530096
 20
57.14090553089044988
 30
0.0
 70
    32
  0
VERTEX
  5
be
330
   180
100
AcDbEntity
  8
output
420
2302755
100
AcDbVertex
100
AcDb3dPolylineVertex
 10
34.37688281762530096
 20
62.32840553089044988
 30
0.0
 70
    32
  0
VERTEX
  5
bf
330
   180
100
AcDbEntity
  8
output
420
2302755
100
AcDbVertex
100
AcDb3dPolylineVertex
 10
35.33782031762530096
 20
62.92215553089044988
 30
0.0
 70
    32
  0
VERTEX
  5
c0
330
   180
100
AcDbEntity
  8
output
420
2302755
100
AcDbVertex
100
AcDb3dPolylineVertex
 10
32.67375781762530096
 20
67.10965553089044988
 30
0.0
 70
    32
  0
VERTEX
  5
c1
330
   180
100
AcDbEntity
  8
output
420
2302755
100
AcDbVertex
100
AcDb3dPolylineVertex
 10
31.74407031762530096
 20
66.51590553089044988
 30
0.0
 70
    32
  0
VERTEX
  5
c2
330
   180
100
AcDbEntity
  8
output
420
2302755
100
AcDbVertex
100
AcDb3dPolylineVertex
 10
29.59563281762530096
 20
69.89090553089044988
 30
0.0
 70
    32
  0
VERTEX
  5
c3
330
   180
100
AcDbEntity
  8
output
420
2302755
100
AcDbVertex
100
AcDb3dPolylineVertex
 10
30.52532031762530096
 20
70.48465553089044988
 30
0.0
 70
    32
  0
VERTEX
  5
c4
330
   180
100
AcDbEntity
  8
output
420
2302755
100
AcDbVertex
100
AcDb3dPolylineVertex
 10
30.26750781762530096
 20
70.89090553089044988
 30
0.0
 70
    32
  0
VERTEX
  5
c5
330
   180
100
AcDbEntity
  8
output
420
2302755
100
AcDbVertex
100
AcDb3dPolylineVertex
 10
33.18938281762530096
 20
73.01590553089044988
 30
0.0
 70
    32
  0
VERTEX
  5
c6
330
   180
100
AcDbEntity
  8
output
420
2302755
100
AcDbVertex
100
AcDb3dPolylineVertex
 10
37.50969531762530096
 20
75.54715553089044988
 30
0.0
 70
    32
  0
VERTEX
  5
c7
330
   180
100
AcDbEntity
  8
output
420
2302755
100
AcDbVertex
100
AcDb3dPolylineVertex
 10
39.8564188247905804
 20
71.88992409115223836
 30
0.0
 70
    32
  0
VERTEX
  5
c8
330
   180
100
AcDbEntity
  8
output
420
2302755
100
AcDbVertex
100
AcDb3dPolylineVertex
 10
46.1640625
 20
75.9375
 30
0.0
 70
    32
  0
VERTEX
  5
c9
330
   180
100
AcDbEntity
  8
output
420
2302755
100
AcDbVertex
100
AcDb3dPolylineVertex
 10
43.8984375
 20
79.46875
 30
0.0
 70
    32
  0
VERTEX
  5
ca
330
   180
100
AcDbEntity
  8
output
420
2302755
100
AcDbVertex
100
AcDb3dPolylineVertex
 10
50.0390625
 20
83.4375
 30
0.0
 70
    32
  0
VERTEX
  5
cb
330
   180
100
AcDbEntity
  8
output
420
2302755
100
AcDbVertex
100
AcDb3dPolylineVertex
 10
53.640625
 20
77.8125
 30
0.0
 70
    32
  0
VERTEX
  5
cc
330
   180
100
AcDbEntity
  8
output
420
2302755
100
AcDbVertex
100
AcDb3dPolylineVertex
 10
57.4375
 20
80.25
 30
0.0
 70
    32
  0
VERTEX
  5
cd
330
   180
100
AcDbEntity
  8
output
420
2302755
100
AcDbVertex
100
AcDb3dPolylineVertex
 10
58.0859375
 20
79.25
 30
0.0
 70
    32
  0
VERTEX
  5
ce
330
   180
100
AcDbEntity
  8
output
420
2302755
100
AcDbVertex
100
AcDb3dPolylineVertex
 10
54.7421875
 20
77.09375
 30
0.0
 70
    32
  0
VERTEX
  5
cf
330
   180
100
AcDbEntity
  8
output
420
2302755
100
AcDbVertex
100
AcDb3dPolylineVertex
 10
55.703125
 20
75.59375
 30
0.0
 70
    32
  0
VERTEX
  5
d0
330
   180
100
AcDbEntity
  8
output
420
2302755
100
AcDbVertex
100
AcDb3dPolylineVertex
 10
56.2734375
 20
75.96875
 30
0.0
 70
    32
  0
VERTEX
  5
d1
330
   180
100
AcDbEntity
  8
output
420
2302755
100
AcDbVertex
100
AcDb3dPolylineVertex
 10
56.4140625
 20
75.75
 30
0.0
 70
    32
  0
VERTEX
  5
d2
330
   180
100
AcDbEntity
  8
output
420
2302755
100
AcDbVertex
100
AcDb3dPolylineVertex
 10
57.5078125
 20
76.4375
 30
0.0
 70
    32
  0
VERTEX
  5
d3
330
   180
100
AcDbEntity
  8
output
420
2302755
100
AcDbVertex
100
AcDb3dPolylineVertex
 10
62.0703125
 20
69.34375
 30
0.0
 70
    32
  0
VERTEX
  5
d4
330
   180
100
AcDbEntity
  8
output
420
2302755
100
AcDbVertex
100
AcDb3dPolylineVertex
 10
60.671875
 20
68.4375
 30
0.0
 70
    32
  0
VERTEX
  5
d5
330
   180
100
AcDbEntity
  8
output
420
2302755
100
AcDbVertex
100
AcDb3dPolylineVertex
 10
59.5859375
 20
70.125
 30
0.0
 70
    32
  0
VERTEX
  5
d6
330
   180
100
AcDbEntity
  8
output
420
2302755
100
AcDbVertex
100
AcDb3dPolylineVertex
 10
54.8125
 20
67.0625
 30
0.0
 70
    32
  0
VERTEX
  5
d7
330
   180
100
AcDbEntity
  8
output
420
2302755
100
AcDbVertex
100
AcDb3dPolylineVertex
 10
55.1640625
 20
66.5
 30
0.0
 70
    32
  0
VERTEX
  5
d8
330
   180
100
AcDbEntity
  8
output
420
2302755
100
AcDbVertex
100
AcDb3dPolylineVertex
 10
53.4765625
 20
65.4375
 30
0.0
 70
    32
  0
VERTEX
  5
d9
330
   180
100
AcDbEntity
  8
output
420
2302755
100
AcDbVertex
100
AcDb3dPolylineVertex
 10
53.125
 20
65.96875
 30
0.0
 70
    32
  0
VERTEX
  5
da
330
   180
100
AcDbEntity
  8
output
420
2302755
100
AcDbVertex
100
AcDb3dPolylineVertex
 10
49.9609375
 20
63.9375
 30
0.0
 70
    32
  0
VERTEX
  5
db
330
   180
100
AcDbEntity
  8
output
420
2302755
100
AcDbVertex
100
AcDb3dPolylineVertex
 10
46.53125
 20
69.28125
 30
0.0
 70
    32
  0
VERTEX
  5
dc
330
   180
100
AcDbEntity
  8
output
420
2302755
100
AcDbVertex
100
AcDb3dPolylineVertex
 10
42.50761795353173511
 20
66.69018044685640234
 30
0.0
 70
    32
  0
VERTEX
  5
dd
330
   180
100
AcDbEntity
  8
output
420
2302755
100
AcDbVertex
100
AcDb3dPolylineVertex
 10
47.28313281762530096
 20
59.20340553089044988
 30
0.0
 70
    32
  0
VERTEX
  5
de
330
   180
100
AcDbEntity
  8
output
420
2302755
100
AcDbVertex
100
AcDb3dPolylineVertex
 10
46.43938281762530096
 20
58.67215553089044988
 30
0.0
 70
    32
  0
SEQEND
  5
df
330
   180
100
AcDbEntity
  8
output
420
2302755
  0
POLYLINE
  5
e0
330
6d
100
AcDbEntity
  8
output
  6
CONTINUOUS
420
2302755
100
AcDb3dPolyline
 10
0.0
 20
0.0
 30
0.0
 70
     8
  0
VERTEX
  5
e1
330
   224
100
AcDbEntity
  8
output
420
2302755
100
AcDbVertex
100
AcDb3dPolylineVertex
 10
86.125
 20
72.28125
 30
0.0
 70
    32
  0
VERTEX
  5
e2
330
   224
100
AcDbEntity
  8
output
420
2302755
100
AcDbVertex
100
AcDb3dPolylineVertex
 10
91.4765625
 20
64.0625
 30
0.0
 70
    32
  0
VERTEX
  5
e3
330
   224
100
AcDbEntity
  8
output
420
2302755
100
AcDbVertex
100
AcDb3dPolylineVertex
 10
86.1875
 20
60.625
 30
0.0
 70
    32
  0
VERTEX
  5
e4
330
   224
100
AcDbEntity
  8
output
420
2302755
100
AcDbVertex
100
AcDb3dPolylineVertex
 10
70.3046875
 20
84.9375
 30
0.0
 70
    32
  0
VERTEX
  5
e5
330
   224
100
AcDbEntity
  8
output
420
2302755
100
AcDbVertex
100
AcDb3dPolylineVertex
 10
83.1328125
 20
93.3125
 30
0.0
 70
    32
  0
VERTEX
  5
e6
330
   224
100
AcDbEntity
  8
output
420
2302755
100
AcDbVertex
100
AcDb3dPolylineVertex
 10
93.6640625
 20
77.1875
 30
0.0
 70
    32
  0
VERTEX
  5
e7
330
   224
100
AcDbEntity
  8
output
420
2302755
100
AcDbVertex
100
AcDb3dPolylineVertex
 10
86.125
 20
72.28125
 30
0.0
 70
    32
  0
SEQEND
  5
e8
330
   224
100
AcDbEntity
  8
output
420
2302755
  0
HATCH
  5
e9
330
6d
100
AcDbEntity
  8
output
420
16752151
100
AcDbHatch
 10
0.0
 20
0.0
 30
0.0
210
0.0
220
0.0
230
1.0
  2
SOLID
 70
     1
 71
     0
 91
     1
 92
     2
 72
     0
 73
     1
 93
    17
 10
85.0546875
 20
22.28125
 30
0.0
 10
89.9140625
 20
14.71875
 30
0.0
 10
86.0546875
 20
12.21875
 30
0.0
 10
85.3671875
 20
13.3125
 30
0.0
 10
76.9453125
 20
7.875
 30
0.0
 10
72.0703125
 20
15.4375
 30
0.0
 10
75.9609375
 20
17.9375
 30
0.0
 10
76.65625
 20
16.875
 30
0.0
 10
78.0859375
 20
17.78125
 30
0.0
 10
76.2421875
 20
20.65625
 30
0.0
 10
74.1640625
 20
19.3125
 30
0.0
 10
71.921875
 20
22.8125
 30
0.0
 10
77.75
 20
26.5625
 30
0.0
 10
80.0
 20
23.0625
 30
0.0
 10
77.90625
 20
21.71875
 30
0.0
 10
79.75
 20
18.84375
 30
0.0
 10
85.0546875
 20
22.28125
 30
0.0
 97
     0
 75
     0
 76
     1
 98
     0
  0
HATCH
  5
ea
330
6d
100
AcDbEntity
  8
output
420
16752151
100
AcDbHatch
 10
0.0
 20
0.0
 30
0.0
210
0.0
220
0.0
230
1.0
  2
SOLID
 70
     1
 71
     0
 91
     1
 92
     2
 72
     0
 73
     1
 93
    29
 10
66.65625
 20
39.21875
 30
0.0
 10
69.171875
 20
40.84375
 30
0.0
 10
66.09375
 20
45.625
 30
0.0
 10
64.203125
 20
48.65625
 30
0.0
 10
64.3515625
 20
48.625
 30
0.0
 10
64.2421875
 20
48.71875
 30
0.0
 10
64.0546875
 20
49.0625
 30
0.0
 10
60.4921875
 20
54.59375
 30
0.0
 10
56.6875
 20
52.15625
 30
0.0
 10
53.0703125
 20
57.9375
 30
0.0
 10
53.21875
 20
57.90625
 30
0.0
 10
52.78125
 20
58.40625
 30
0.0
 10
64.984375
 20
66.09375
 30
0.0
 10
65.2265625
 20
65.78125
 30
0.0
 10
64.7890625
 20
65.5
 30
0.0
 10
71.96875
 20
54.28125
 30
0.0
 10
72.765625
 20
54.8125
 30
0.0
 10
73.0234375
 20
54.40625
 30
0.0
 10
69.484375
 20
52.0625
 30
0.0
 10
71.421875
 20
49.03125
 30
0.0
 10
74.3828125
 20
44.40625
 30
0.0
 10
77.4765625
 20
46.40625
 30
0.0
 10
77.671875
 20
46.09375
 30
0.0
 10
77.0390625
 20
45.6875
 30
0.0
 10
83.203125
 20
36.0
 30
0.0
 10
83.875
 20
36.4375
 30
0.0
 10
84.0625
 20
36.125
 30
0.0
 10
73.1171875
 20
29.125
 30
0.0
 10
66.65625
 20
39.21875
 30
0.0
 97
     0
 75
     0
 76
     1
 98
     0
  0
HATCH
  5
eb
330
6d
100
AcDbEntity
  8
output
420
16752151
100
AcDbHatch
 10
0.0
 20
0.0
 30
0.0
210
0.0
220
0.0
230
1.0
  2
SOLID
 70
     1
 71
     0
 91
     1
 92
     2
 72
     0
 73
     1
 93
    42
 10
46.43938281762530096
 20
58.67215553089044988
 30
0.0
 10
47.12688281762530096
 20
57.57840553089044988
 30
0.0
 10
44.96282031762530096
 20
56.20340553089044988
 30
0.0
 10
46.19719531762530096
 20
54.26590553089044988
 30
0.0
 10
37.82219531762530096
 20
48.89090553089044988
 30
0.0
 10
36.83000781762530096
 20
50.45340553089044988
 30
0.0
 10
35.99407031762530096
 20
49.92215553089044988
 30
0.0
 10
33.20500781762530096
 20
54.29715553089044988
 30
0.0
 10
37.68157031762530096
 20
57.14090553089044988
 30
0.0
 10
34.37688281762530096
 20
62.32840553089044988
 30
0.0
 10
35.33782031762530096
 20
62.92215553089044988
 30
0.0
 10
32.67375781762530096
 20
67.10965553089044988
 30
0.0
 10
31.74407031762530096
 20
66.51590553089044988
 30
0.0
 10
29.59563281762530096
 20
69.89090553089044988
 30
0.0
 10
30.52532031762530096
 20
70.48465553089044988
 30
0.0
 10
30.26750781762530096
 20
70.89090553089044988
 30
0.0
 10
33.18938281762530096
 20
73.01590553089044988
 30
0.0
 10
37.50969531762530096
 20
75.54715553089044988
 30
0.0
 10
39.8564188247905804
 20
71.88992409115223836
 30
0.0
 10
46.1640625
 20
75.9375
 30
0.0
 10
43.8984375
 20
79.46875
 30
0.0
 10
50.0390625
 20
83.4375
 30
0.0
 10
53.640625
 20
77.8125
 30
0.0
 10
57.4375
 20
80.25
 30
0.0
 10
58.0859375
 20
79.25
 30
0.0
 10
54.7421875
 20
77.09375
 30
0.0
 10
55.703125
 20
75.59375
 30
0.0
 10
56.2734375
 20
75.96875
 30
0.0
 10
56.4140625
 20
75.75
 30
0.0
 10
57.5078125
 20
76.4375
 30
0.0
 10
62.0703125
 20
69.34375
 30
0.0
 10
60.671875
 20
68.4375
 30
0.0
 10
59.5859375
 20
70.125
 30
0.0
 10
54.8125
 20
67.0625
 30
0.0
 10
55.1640625
 20
66.5
 30
0.0
 10
53.4765625
 20
65.4375
 30
0.0
 10
53.125
 20
65.96875
 30
0.0
 10
49.9609375
 20
63.9375
 30
0.0
 10
46.53125
 20
69.28125
 30
0.0
 10
42.50761795353173511
 20
66.69018044685640234
 30
0.0
 10
47.28313281762530096
 20
59.20340553089044988
 30
0.0
 10
46.43938281762530096
 20
58.67215553089044988
 30
0.0
 97
     0
 75
     0
 76
     1
 98
     0
  0
HATCH
  5
ec
330
6d
100
AcDbEntity
  8
output
420
16752151
100
AcDbHatch
 10
0.0
 20
0.0
 30
0.0
210
0.0
220
0.0
230
1.0
  2
SOLID
 70
     1
 71
     0
 91
     1
 92
     2
 72
     0
 73
     1
 93
     7
 10
86.125
 20
72.28125
 30
0.0
 10
91.4765625
 20
64.0625
 30
0.0
 10
86.1875
 20
60.625
 30
0.0
 10
70.3046875
 20
84.9375
 30
0.0
 10
83.1328125
 20
93.3125
 30
0.0
 10
93.6640625
 20
77.1875
 30
0.0
 10
86.125
 20
72.28125
 30
0.0
 97
     0
 75
     0
 76
     1
 98
     0
  0
ENDSEC
0
SECTION
2
OBJECTS
0
DICTIONARY
5
C
330
0
100
AcDbDictionary
281
   1
3
ACAD_GROUP
350
D
3
ACAD_LAYOUT
350
1A
3
ACAD_MLEADERSTYLE
350
43
3
ACAD_MLINESTYLE
350
17
3
ACAD_PLOTSETTINGS
350
19
3
ACAD_PLOTSTYLENAME
350
E
3
ACAD_TABLESTYLE
350
42
3
ACAD_VISUALSTYLE
350
2A
0
DICTIONARY
5
D
102
{ACAD_REACTORS
330
C
102
}
330
C
100
AcDbDictionary
281
   1
0
DICTIONARY
5
1A
102
{ACAD_REACTORS
330
C
102
}
330
C
100
AcDbDictionary
281
   1
3
Layout1
350
1E
3
Layout2
350
26
3
Model
350
22
0
DICTIONARY
5
43
102
{ACAD_REACTORS
330
C
102
}
330
C
100
AcDbDictionary
281
   1
0
DICTIONARY
5
17
102
{ACAD_REACTORS
330
C
102
}
330
C
100
AcDbDictionary
281
   1
3
Standard
350
18
0
DICTIONARY
5
19
102
{ACAD_REACTORS
330
C
102
}
330
C
100
AcDbDictionary
281
   1
0
ACDBDICTIONARYWDFLT
5
E
102
{ACAD_REACTORS
330
C
102
}
330
C
100
AcDbDictionary
281
   1
3
Normal
350
F
100
AcDbDictionaryWithDefault
340
F
0
DICTIONARY
5
42
102
{ACAD_REACTORS
330
C
102
}
330
C
100
AcDbDictionary
281
   1
0
DICTIONARY
5
2A
102
{ACAD_REACTORS
330
C
102
}
330
C
100
AcDbDictionary
281
   1
3
2dWireframe
350
2F
3
3D Hidden
350
31
3
3dWireframe
350
30
3
Basic
350
32
3
Brighten
350
36
3
ColorChange
350
3A
3
Conceptual
350
34
3
Dim
350
35
3
Facepattern
350
39
3
Flat
350
2B
3
FlatWithEdges
350
2C
3
Gouraud
350
2D
3
GouraudWithEdges
350
2E
3
Linepattern
350
38
3
Realistic
350
33
3
Thicken
350
37
0
LAYOUT
5
1E
102
{ACAD_REACTORS
330
1A
102
}
330
1A
100
AcDbPlotSettings
1

2
none_device
4

6

40
0.0
41
0.0
42
0.0
43
0.0
44
0.0
45
0.0
46
0.0
47
0.0
48
0.0
49
0.0
140
0.0
141
0.0
142
1.0
143
1.0
70
 688
72
   0
73
   0
74
   5
7

75
  16
76
   0
77
   2
78
 300
147
1.0
148
0.0
149
0.0
100
AcDbLayout
1
Layout1
70
   1
71
   1
10
0.0
20
0.0
11
12.0
21
9.0
12
0.0
22
0.0
32
0.0
14
1.000000000000000E+20
24
1.000000000000000E+20
34
1.000000000000000E+20
15
-1.000000000000000E+20
25
-1.000000000000000E+20
35
-1.000000000000000E+20
146
0.0
13
0.0
23
0.0
33
0.0
16
1.0
26
0.0
36
0.0
17
0.0
27
1.0
37
0.0
76
   0
330
1B
0
LAYOUT
5
26
102
{ACAD_REACTORS
330
1A
102
}
330
1A
100
AcDbPlotSettings
1

2
none_device
4

6

40
0.0
41
0.0
42
0.0
43
0.0
44
0.0
45
0.0
46
0.0
47
0.0
48
0.0
49
0.0
140
0.0
141
0.0
142
1.0
143
1.0
70
 688
72
   0
73
   0
74
   5
7

75
  16
76
   0
77
   2
78
 300
147
1.0
148
0.0
149
0.0
100
AcDbLayout
1
Layout2
70
   1
71
   2
10
0.0
20
0.0
11
0.0
21
0.0
12
0.0
22
0.0
32
0.0
14
0.0
24
0.0
34
0.0
15
0.0
25
0.0
35
0.0
146
0.0
13
0.0
23
0.0
33
0.0
16
1.0
26
0.0
36
0.0
17
0.0
27
1.0
37
0.0
76
   0
330
23
0
LAYOUT
5
22
102
{ACAD_REACTORS
330
1A
102
}
330
1A
100
AcDbPlotSettings
1

2
none_device
4

6

40
0.0
41
0.0
42
0.0
43
0.0
44
0.0
45
0.0
46
0.0
47
0.0
48
0.0
49
0.0
140
0.0
141
0.0
142
1.0
143
1.0
70
1712
72
   0
73
   0
74
   0
7

75
   0
76
   0
77
   2
78
 300
147
1.0
148
0.0
149
0.0
100
AcDbLayout
1
Model
70
   1
71
   0
10
0.0
20
0.0
11
12.0
21
9.0
12
0.0
22
0.0
32
0.0
14
30.0
24
49.75
34
0.0
15
130.5
25
163.1318914119703
35
0.0
146
0.0
13
0.0
23
0.0
33
0.0
16
1.0
26
0.0
36
0.0
17
0.0
27
1.0
37
0.0
76
   0
330
1F
331
29
0
MLINESTYLE
5
18
102
{ACAD_REACTORS
330
17
102
}
330
17
100
AcDbMlineStyle
2
Standard
70
   0
3

62
 256
51
90.0
52
90.0
71
   2
49
0.5
62
 256
6
BYLAYER
49
-0.5
62
 256
6
BYLAYER
0
ACDBPLACEHOLDER
5
F
102
{ACAD_REACTORS
330
E
102
}
330
E
0
VISUALSTYLE
5
2F
102
{ACAD_REACTORS
330
2A
102
}
330
2A
100
AcDbVisualStyle
2
2dWireframe
70
   4
71
   0
72
   2
73
   0
90
      0
40
-0.6
41
-30.0
62
   5
63
   7
421
16777215
74
   1
91
      4
64
   7
65
 257
75
   1
175
   1
42
1.0
92
      0
66
 257
43
1.0
76
   1
77
   6
78
   2
67
   7
79
   5
170
   0
171
   0
290
   0
174
   0
93
      1
44
0.0
173
   0
291
   0
45
0.0
1001
ACAD
1000
AcDbSavedByObjectVersion
1070
   0
0
VISUALSTYLE
5
31
102
{ACAD_REACTORS
330
2A
102
}
330
2A
100
AcDbVisualStyle
2
3D Hidden
70
   6
71
   1
72
   2
73
   2
90
      0
40
-0.6
41
-30.0
62
   5
63
   7
421
16777215
74
   2
91
      2
64
   7
65
 257
75
   2
175
   1
42
40.0
92
      0
66
 257
43
1.0
76
   1
77
   6
78
   2
67
   7
79
   3
170
   0
171
   0
290
   0
174
   0
93
      1
44
0.0
173
   0
291
   0
45
0.0
1001
ACAD
1000
AcDbSavedByObjectVersion
1070
   0
0
VISUALSTYLE
5
30
102
{ACAD_REACTORS
330
2A
102
}
330
2A
100
AcDbVisualStyle
2
3dWireframe
70
   5
71
   0
72
   2
73
   0
90
      0
40
-0.6
41
-30.0
62
   5
63
   7
421
16777215
74
   1
91
      4
64
   7
65
 257
75
   1
175
   1
42
1.0
92
      0
66
 257
43
1.0
76
   1
77
   6
78
   2
67
   7
79
   5
170
   0
171
   0
290
   0
174
   0
93
      1
44
0.0
173
   0
291
   0
45
0.0
1001
ACAD
1000
AcDbSavedByObjectVersion
1070
   0
0
VISUALSTYLE
5
32
102
{ACAD_REACTORS
330
2A
102
}
330
2A
100
AcDbVisualStyle
2
Basic
70
   7
71
   1
72
   0
73
   1
90
      0
40
-0.6
41
-30.0
62
   5
63
   7
421
16777215
74
   0
91
      4
64
   7
65
 257
75
   1
175
   1
42
1.0
92
      8
66
   7
43
1.0
76
   1
77
   6
78
   2
67
   7
79
   5
170
   0
171
   0
290
   0
174
   0
93
      1
44
0.0
173
   0
291
   1
45
0.0
1001
ACAD
1000
AcDbSavedByObjectVersion
1070
   0
0
VISUALSTYLE
5
36
102
{ACAD_REACTORS
330
2A
102
}
330
2A
100
AcDbVisualStyle
2
Brighten
70
  12
71
   2
72
   2
73
   0
90
      0
40
-0.6
41
-30.0
62
   5
63
   7
421
16777215
74
   1
91
      4
64
   7
65
 257
75
   1
175
   1
42
1.0
92
      8
66
   7
43
1.0
76
   1
77
   6
78
   2
67
   7
79
   5
170
   0
171
   0
290
   0
174
   0
93
      1
44
50.0
173
   0
291
   1
45
0.0
1001
ACAD
1000
AcDbSavedByObjectVersion
1070
   0
0
VISUALSTYLE
5
3A
102
{ACAD_REACTORS
330
2A
102
}
330
2A
100
AcDbVisualStyle
2
ColorChange
70
  16
71
   2
72
   2
73
   3
90
      0
40
-0.6
41
-30.0
62
   5
63
   8
421
8421504
74
   1
91
      4
64
   7
65
 257
75
   1
175
   1
42
1.0
92
      8
66
   8
424
8421504
43
1.0
76
   1
77
   6
78
   2
67
   7
79
   5
170
   0
171
   0
290
   0
174
   0
93
      1
44
0.0
173
   0
291
   1
45
0.0
1001
ACAD
1000
AcDbSavedByObjectVersion
1070
   0
0
VISUALSTYLE
5
34
102
{ACAD_REACTORS
330
2A
102
}
330
2A
100
AcDbVisualStyle
2
Conceptual
70
   9
71
   3
72
   2
73
   0
90
      0
40
-0.6
41
-30.0
62
   5
63
   7
421
16777215
74
   2
91
      2
64
   7
65
 257
75
   1
175
   1
42
40.0
92
      8
66
   7
43
1.0
76
   1
77
   6
78
   2
67
   7
79
   3
170
   0
171
   0
290
   0
174
   0
93
      1
44
0.0
173
   0
291
   0
45
0.0
1001
ACAD
1000
AcDbSavedByObjectVersion
1070
   0
0
VISUALSTYLE
5
35
102
{ACAD_REACTORS
330
2A
102
}
330
2A
100
AcDbVisualStyle
2
Dim
70
  11
71
   2
72
   2
73
   0
90
      0
40
-0.6
41
-30.0
62
   5
63
   7
421
16777215
74
   1
91
      4
64
   7
65
 257
75
   1
175
   1
42
1.0
92
      8
66
   7
43
1.0
76
   1
77
   6
78
   2
67
   7
79
   5
170
   0
171
   0
290
   0
174
   0
93
      1
44
-50.0
173
   0
291
   1
45
0.0
1001
ACAD
1000
AcDbSavedByObjectVersion
1070
   0
0
VISUALSTYLE
5
39
102
{ACAD_REACTORS
330
2A
102
}
330
2A
100
AcDbVisualStyle
2
Facepattern
70
  15
71
   2
72
   2
73
   0
90
      0
40
-0.6
41
-30.0
62
   5
63
   7
421
16777215
74
   1
91
      4
64
   7
65
 257
75
   1
175
   1
42
1.0
92
      8
66
   7
43
1.0
76
   1
77
   6
78
   2
67
   7
79
   5
170
   0
171
   0
290
   0
174
   0
93
      1
44
0.0
173
   0
291
   1
45
0.0
1001
ACAD
1000
AcDbSavedByObjectVersion
1070
   0
0
VISUALSTYLE
5
2B
102
{ACAD_REACTORS
330
2A
102
}
330
2A
100
AcDbVisualStyle
2
Flat
70
   0
71
   2
72
   1
73
   1
90
      2
40
-0.6
41
30.0
62
   5
63
   7
421
16777215
74
   0
91
      4
64
   7
65
 257
75
   1
175
   1
42
1.0
92
      8
66
   7
43
1.0
76
   1
77
   6
78
   2
67
   7
79
   5
170
   0
171
   0
290
   0
174
   0
93
     13
44
0.0
173
   0
291
   1
45
0.0
1001
ACAD
1000
AcDbSavedByObjectVersion
1070
   0
0
VISUALSTYLE
5
2C
102
{ACAD_REACTORS
330
2A
102
}
330
2A
100
AcDbVisualStyle
2
FlatWithEdges
70
   1
71
   2
72
   1
73
   1
90
      2
40
-0.6
41
30.0
62
   5
63
   7
421
16777215
74
   1
91
      4
64
   7
65
 257
75
   1
175
   1
42
1.0
92
      0
66
 257
43
1.0
76
   1
77
   6
78
   2
67
   7
79
   5
170
   0
171
   0
290
   0
174
   0
93
     13
44
0.0
173
   0
291
   1
45
0.0
1001
ACAD
1000
AcDbSavedByObjectVersion
1070
   0
0
VISUALSTYLE
5
2D
102
{ACAD_REACTORS
330
2A
102
}
330
2A
100
AcDbVisualStyle
2
Gouraud
70
   2
71
   2
72
   2
73
   1
90
      2
40
-0.6
41
30.0
62
   5
63
   7
421
16777215
74
   0
91
      4
64
   7
65
 257
75
   1
175
   1
42
1.0
92
      0
66
   7
43
1.0
76
   1
77
   6
78
   2
67
   7
79
   5
170
   0
171
   0
290
   0
174
   0
93
     13
44
0.0
173
   0
291
   1
45
0.0
1001
ACAD
1000
AcDbSavedByObjectVersion
1070
   0
0
VISUALSTYLE
5
2E
102
{ACAD_REACTORS
330
2A
102
}
330
2A
100
AcDbVisualStyle
2
GouraudWithEdges
70
   3
71
   2
72
   2
73
   1
90
      2
40
-0.6
41
30.0
62
   5
63
   7
421
16777215
74
   1
91
      4
64
   7
65
 257
75
   1
175
   1
42
1.0
92
      0
66
 257
43
1.0
76
   1
77
   6
78
   2
67
   7
79
   5
170
   0
171
   0
290
   0
174
   0
93
     13
44
0.0
173
   0
291
   1
45
0.0
1001
ACAD
1000
AcDbSavedByObjectVersion
1070
   0
0
VISUALSTYLE
5
38
102
{ACAD_REACTORS
330
2A
102
}
330
2A
100
AcDbVisualStyle
2
Linepattern
70
  14
71
   2
72
   2
73
   0
90
      0
40
-0.6
41
-30.0
62
   5
63
   7
421
16777215
74
   1
91
      4
64
   7
65
 257
75
   7
175
   7
42
1.0
92
      8
66
   7
43
1.0
76
   1
77
   6
78
   2
67
   7
79
   5
170
   0
171
   0
290
   0
174
   0
93
      1
44
0.0
173
   0
291
   1
45
0.0
1001
ACAD
1000
AcDbSavedByObjectVersion
1070
   0
0
VISUALSTYLE
5
33
102
{ACAD_REACTORS
330
2A
102
}
330
2A
100
AcDbVisualStyle
2
Realistic
70
   8
71
   2
72
   2
73
   0
90
      0
40
-0.6
41
-30.0
62
   5
63
   7
421
16777215
74
   1
91
      0
64
   7
65
 257
75
   1
175
   1
42
1.0
92
      8
66
   8
424
7895160
43
1.0
76
   1
77
   6
78
   2
67
   7
79
   5
170
   0
171
   0
290
   0
174
   0
93
     13
44
0.0
173
   0
291
   0
45
0.0
1001
ACAD
1000
AcDbSavedByObjectVersion
1070
   0
0
VISUALSTYLE
5
37
102
{ACAD_REACTORS
330
2A
102
}
330
2A
100
AcDbVisualStyle
2
Thicken
70
  13
71
   2
72
   2
73
   0
90
      0
40
-0.6
41
-30.0
62
   5
63
   7
421
16777215
74
   1
91
      4
64
   7
65
 257
75
   1
175
   1
42
1.0
92
     12
66
   7
43
1.0
76
   1
77
   6
78
   2
67
   7
79
   5
170
   0
171
   0
290
   0
174
   0
93
      1
44
0.0
173
   0
291
   1
45
0.0
1001
ACAD
1000
AcDbSavedByObjectVersion
1070
   0
0
ENDSEC
  0
EOF
