999
DXF created from QGIS
  0
SECTION
  2
HEADER
  9
$ACADVER
  1
AC1015
  9
$EXTMIN
 10
7.6953125
 20
0.0
 30
0.0
  9
$EXTMAX
 10
100.0
 20
99.46875
 30
0.0
  9
$LTSCALE
 40
1.0
  9
$PDMODE
 70
    33
  9
$PDSIZE
 40
     1
  9
$PSLTSCALE
 70
     0
  9
$HANDSEED
  5
9999999
  9
$DWGCODEPAGE
  3

  0
ENDSEC
  0
SECTION
  2
TABLES
  0
TABLE
  2
LTYPE
  5
64
100
AcDbSymbolTable
 70
     5
  0
LTYPE
  5
65
100
AcDbSymbolTableRecord
100
AcDbLinetypeTableRecord
  2
ByLayer
 70
    64
  3
Defaultstyle
 72
    65
 73
     0
 40
0.0
  0
LTYPE
  5
66
100
AcDbSymbolTableRecord
100
AcDbLinetypeTableRecord
  2
ByBlock
 70
    64
  3
Defaultstyle
 72
    65
 73
     0
 40
0.0
  0
LTYPE
  5
67
100
AcDbSymbolTableRecord
100
AcDbLinetypeTableRecord
  2
CONTINUOUS
 70
    64
  3
Defaultstyle
 72
    65
 73
     0
 40
0.0
  0
LTYPE
  5
68
100
AcDbSymbolTableRecord
100
AcDbLinetypeTableRecord
  2
DASH
 70
    64
  3

 72
    65
 73
     2
 40
26.0
 49
20.0
 74
     0
 49
-5.99999999999999911
 74
     0
  0
LTYPE
  5
69
100
AcDbSymbolTableRecord
100
AcDbLinetypeTableRecord
  2
DOT
 70
    64
  3

 72
    65
 73
     2
 40
11.99999999999999822
 49
5.99999999999999911
 74
     0
 49
-5.99999999999999911
 74
     0
  0
LTYPE
  5
6a
100
AcDbSymbolTableRecord
100
AcDbLinetypeTableRecord
  2
DASHDOT
 70
    64
  3

 72
    65
 73
     4
 40
38.0
 49
20.0
 74
     0
 49
-5.99999999999999911
 74
     0
 49
5.99999999999999911
 74
     0
 49
-5.99999999999999911
 74
     0
  0
LTYPE
  5
6b
100
AcDbSymbolTableRecord
100
AcDbLinetypeTableRecord
  2
DASHDOTDOT
 70
    64
  3

 72
    65
 73
     6
 40
50.0
 49
20.0
 74
     0
 49
-5.99999999999999911
 74
     0
 49
5.99999999999999911
 74
     0
 49
-5.99999999999999911
 74
     0
 49
5.99999999999999911
 74
     0
 49
-5.99999999999999911
 74
     0
  0
ENDTAB
  0
TABLE
  2
BLOCK_RECORD
  5
6c
100
AcDbSymbolTable
 70
     0
  0
BLOCK_RECORD
  5
6d
100
AcDbSymbolTableRecord
100
AcDbBlockTableRecord
  2
*Model_Space
  0
BLOCK_RECORD
  5
6e
100
AcDbSymbolTableRecord
100
AcDbBlockTableRecord
  2
*Paper_Space
  0
BLOCK_RECORD
  5
6f
100
AcDbSymbolTableRecord
100
AcDbBlockTableRecord
  2
*Paper_Space0
  0
ENDTAB
  0
TABLE
  2
APPID
  5
70
100
AcDbSymbolTable
 70
     1
  0
APPID
  5
71
100
AcDbSymbolTableRecord
100
AcDbRegAppTableRecord
  2
ACAD
 70
     0
  0
ENDTAB
  0
TABLE
  2
VIEW
  5
72
100
AcDbSymbolTable
 70
     0
  0
ENDTAB
  0
TABLE
  2
UCS
  5
73
100
AcDbSymbolTable
 70
     0
  0
ENDTAB
  0
TABLE
  2
VPORT
  5
74
100
AcDbSymbolTable
  0
VPORT
  5
75
100
AcDbSymbolTableRecord
100
AcDbViewportTableRecord
  2
*ACTIVE
 70
     0
 10
0.0
 20
0.0
 11
1.0
 21
1.0
 12
0.0
 22
0.0
 13
0.0
 23
0.0
 14
1.0
 24
1.0
 15
1.0
 25
1.0
 16
0.0
 26
0.0
 36
1.0
 17
53.84765625
 27
49.734375
 40
99.46875
 41
0.92797675149230285
 42
50.0
 43
0.0
 44
0.0
 50
0.0
 51
0.0
 71
     0
 72
   100
 73
     1
 74
     1
 75
     0
 76
     0
 77
     0
 78
     0
281
     0
 65
     1
110
0.0
120
0.0
130
0.0
111
1.0
121
0.0
131
0.0
112
0.0
122
1.0
132
0.0
 79
     0
146
0.0
 70
     0
  0
ENDTAB
  0
TABLE
  2
DIMSTYLE
  5
76
100
AcDbSymbolTable
100
AcDbDimStyleTable
 70
     0
  0
ENDTAB
  0
TABLE
  2
LAYER
  5
77
100
AcDbSymbolTable
 70
     2
  0
LAYER
  5
78
100
AcDbSymbolTableRecord
100
AcDbLayerTableRecord
  2
0
 70
    64
 62
     1
  6
CONTINUOUS
390
f
  0
LAYER
  5
79
100
AcDbSymbolTableRecord
100
AcDbLayerTableRecord
  2
output
 70
    64
 62
     1
  6
CONTINUOUS
390
f
  0
ENDTAB
  0
TABLE
  2
STYLE
  5
7a
100
AcDbSymbolTable
 70
     1
  0
STYLE
  5
7b
100
AcDbSymbolTableRecord
100
AcDbTextStyleTableRecord
  2
STANDARD
 70
    64
 40
0.0
 41
1.0
 50
0.0
 71
     0
 42
5.0
  3
romans.shx
  4

  0
ENDTAB
  0
ENDSEC
  0
SECTION
  2
BLOCKS
  0
BLOCK
  5
7c
330
6d
100
AcDbEntity
  8
0
100
AcDbBlockBegin
  2
*Model_Space
 70
     0
 10
0.0
 20
0.0
 30
0.0
  3
*Model_Space
  1

  0
ENDBLK
  5
7d
100
AcDbEntity
  8
0
100
AcDbBlockEnd
  0
BLOCK
  5
7e
330
6e
100
AcDbEntity
  8
0
100
AcDbBlockBegin
  2
*Paper_Space
 70
     0
 10
0.0
 20
0.0
 30
0.0
  3
*Paper_Space
  1

  0
ENDBLK
  5
7f
100
AcDbEntity
  8
0
100
AcDbBlockEnd
  0
BLOCK
  5
80
330
6f
100
AcDbEntity
  8
0
100
AcDbBlockBegin
  2
*Paper_Space0
 70
     0
 10
0.0
 20
0.0
 30
0.0
  3
*Paper_Space0
  1

  0
ENDBLK
  5
81
100
AcDbEntity
  8
0
100
AcDbBlockEnd
  0
ENDSEC
  0
SECTION
  2
ENTITIES
  0
LWPOLYLINE
  5
82
  8
output
100
AcDbEntity
100
AcDbPolyline
  6
CONTINUOUS
420
2302755
 90
    23
 70
   129
 43
2.60000000000000009
 10
68.3046875
 20
9.6875
 10
67.28125
 20
9.5
 10
67.3203125
 20
7.78125
 10
67.7421875
 20
7.875
 10
67.875
 20
6.84375
 10
68.2734375
 20
6.96875
 10
68.3515625
 20
6.125
 10
67.5234375
 20
6.03125
 10
68.0390625
 20
0.96875
 10
66.3046875
 20
0.84375
 10
66.36796874999708962
 20
0.0
 10
62.92897727272065822
 20
0.0
 10
62.90625
 20
0.25
 10
62.71875
 20
0.3125
 10
61.46875
 20
13.71875
 10
64.359375
 20
14.0
 10
63.6484375
 20
21.59375
 10
67.953125
 20
22.1875
 10
68.671875
 20
14.5
 10
66.609375
 20
14.28125
 10
67.0703125
 20
10.71875
 10
68.0859375
 20
10.8125
 10
68.3046875
 20
9.6875
  0
LWPOLYLINE
  5
83
  8
output
100
AcDbEntity
100
AcDbPolyline
  6
CONTINUOUS
420
2302755
 90
     5
 70
   129
 43
2.60000000000000009
 10
45.75
 20
6.5625
 10
24.6796875
 20
10.71875
 10
25.640625
 20
15.9375
 10
46.578125
 20
11.75
 10
45.75
 20
6.5625
  0
LWPOLYLINE
  5
84
  8
output
100
AcDbEntity
100
AcDbPolyline
  6
CONTINUOUS
420
2302755
 90
     9
 70
   129
 43
2.60000000000000009
 10
53.9375
 20
14.5625
 10
53.40625
 20
11.5
 10
50.4296875
 20
12.03125
 10
50.3125
 20
11.34375
 10
34.5859375
 20
14.15625
 10
35.546875
 20
19.71875
 10
51.296875
 20
17.0
 10
50.9609375
 20
15.09375
 10
53.9375
 20
14.5625
  0
LWPOLYLINE
  5
85
  8
output
100
AcDbEntity
100
AcDbPolyline
  6
CONTINUOUS
420
2302755
 90
    14
 70
   129
 43
2.60000000000000009
 10
93.90625
 20
34.96875
 10
95.15625
 20
24.625
 10
98.765625
 20
25.0625
 10
100.0
 20
23.828125
 10
100.0
 20
9.01943073672009632
 10
82.4765625
 20
6.96875
 10
80.3515625
 20
24.21875
 10
75.9140625
 20
23.65625
 10
74.3671875
 20
36.46875
 10
93.4296875
 20
38.875
 10
93.4765625
 20
38.46875
 10
97.546875
 20
38.96875
 10
97.9765625
 20
35.46875
 10
93.90625
 20
34.96875
  0
LWPOLYLINE
  5
86
  8
output
100
AcDbEntity
100
AcDbPolyline
  6
CONTINUOUS
420
2302755
 90
    13
 70
   129
 43
2.60000000000000009
 10
31.015625
 20
35.25
 10
32.7734375
 20
35.34375
 10
33.65625
 20
34.59375
 10
33.7421875
 20
33.46875
 10
32.9921875
 20
32.59375
 10
31.203125
 20
32.46875
 10
32.125
 20
19.375
 10
17.078125
 20
18.3125
 10
16.46875
 20
26.65625
 10
27.1015625
 20
27.4375
 10
26.421875
 20
36.90625
 10
30.8359375
 20
37.25
 10
31.015625
 20
35.25
  0
LWPOLYLINE
  5
87
  8
output
100
AcDbEntity
100
AcDbPolyline
  6
CONTINUOUS
420
2302755
 90
    11
 70
   129
 43
2.60000000000000009
 10
53.46875
 20
52.375
 10
53.5625
 20
46.625
 10
56.0234375
 20
46.6875
 10
56.2421875
 20
40.625
 10
58.8828125
 20
40.625
 10
58.8984375
 20
38.125
 10
52.484375
 20
38.09375
 10
52.375
 20
40.59375
 10
44.671875
 20
40.65625
 10
44.4765625
 20
52.21875
 10
53.46875
 20
52.375
  0
LWPOLYLINE
  5
88
  8
output
100
AcDbEntity
100
AcDbPolyline
  6
CONTINUOUS
420
2302755
 90
    13
 70
   129
 43
2.60000000000000009
 10
15.34375
 20
63.65625
 10
19.90625
 20
61.59375
 10
21.5546875
 20
65.375
 10
24.25
 20
63.09375
 10
30.984375
 20
71.1875
 10
37.453125
 20
66.09375
 10
27.1171875
 20
53.75
 10
25.6953125
 20
53.125
 10
17.7734375
 20
56.46875
 10
18.6875
 20
58.96875
 10
18.8359375
 20
59.21875
 10
14.296875
 20
61.09375
 10
15.34375
 20
63.65625
  0
LWPOLYLINE
  5
89
  8
output
100
AcDbEntity
100
AcDbPolyline
  6
CONTINUOUS
420
2302755
 90
    21
 70
   129
 43
2.60000000000000009
 10
58.1640625
 20
69.53125
 10
58.7890625
 20
70.46875
 10
58.7265625
 20
70.8125
 10
68.2109375
 20
72.78125
 10
67.78125
 20
74.875
 10
72.0625
 20
75.8125
 10
72.5703125
 20
73.5
 10
72.859375
 20
73.59375
 10
74.6953125
 20
65.4375
 10
73.875
 20
65.28125
 10
75.015625
 20
60.28125
 10
63.421875
 20
57.625
 10
62.1796875
 20
63.3125
 10
62.8828125
 20
63.53125
 10
62.484375
 20
65.5
 10
60.0
 20
64.9375
 10
59.9453125
 20
65.125
 10
59.078125
 20
65.8125
 10
58.8125
 20
65.71875
 10
57.9609375
 20
69.5
 10
58.1640625
 20
69.53125
  0
LWPOLYLINE
  5
8a
  8
output
100
AcDbEntity
100
AcDbPolyline
  6
CONTINUOUS
420
2302755
 90
    12
 70
   129
 43
2.60000000000000009
 10
21.3984375
 20
97.34375
 10
21.671875
 20
95.34375
 10
28.828125
 20
96.3125
 10
29.8046875
 20
89.3125
 10
12.953125
 20
87.0
 10
12.7421875
 20
88.5
 10
9.078125
 20
87.96875
 10
7.796875
 20
96.625
 10
7.6953125
 20
97.75
 10
16.671875
 20
98.625
 10
16.84375
 20
96.78125
 10
21.3984375
 20
97.34375
  0
LWPOLYLINE
  5
8b
  8
output
100
AcDbEntity
100
AcDbPolyline
  6
CONTINUOUS
420
2302755
 90
    15
 70
   129
 43
2.60000000000000009
 10
57.015625
 20
96.0625
 10
57.8046875
 20
94.875
 10
49.953125
 20
89.53125
 10
47.1640625
 20
93.78125
 10
45.6015625
 20
92.8125
 10
45.375
 20
93.125
 10
38.625
 20
88.9375
 10
35.46875
 20
94.21875
 10
47.140625
 20
99.46875
 10
49.109375
 20
95.5
 10
54.90625
 20
99.21875
 10
55.7421875
 20
98.0625
 10
56.6015625
 20
98.15625
 10
57.546875
 20
96.90625
 10
57.015625
 20
96.0625
  0
HATCH
  5
8c
330
6d
100
AcDbEntity
  8
output
420
12504912
100
AcDbHatch
 10
0.0
 20
0.0
 30
0.0
210
0.0
220
0.0
230
1.0
  2
SOLID
 70
     1
 71
     0
 91
     1
 92
     2
 72
     0
 73
     1
 93
    23
 10
68.3046875
 20
9.6875
 10
67.28125
 20
9.5
 10
67.3203125
 20
7.78125
 10
67.7421875
 20
7.875
 10
67.875
 20
6.84375
 10
68.2734375
 20
6.96875
 10
68.3515625
 20
6.125
 10
67.5234375
 20
6.03125
 10
68.0390625
 20
0.96875
 10
66.3046875
 20
0.84375
 10
66.36796874999708962
 20
0.0
 10
62.92897727272065822
 20
0.0
 10
62.90625
 20
0.25
 10
62.71875
 20
0.3125
 10
61.46875
 20
13.71875
 10
64.359375
 20
14.0
 10
63.6484375
 20
21.59375
 10
67.953125
 20
22.1875
 10
68.671875
 20
14.5
 10
66.609375
 20
14.28125
 10
67.0703125
 20
10.71875
 10
68.0859375
 20
10.8125
 10
68.3046875
 20
9.6875
 97
     0
 75
     0
 76
     1
 98
     0
  0
HATCH
  5
8d
330
6d
100
AcDbEntity
  8
output
420
12504912
100
AcDbHatch
 10
0.0
 20
0.0
 30
0.0
210
0.0
220
0.0
230
1.0
  2
SOLID
 70
     1
 71
     0
 91
     1
 92
     2
 72
     0
 73
     1
 93
     5
 10
45.75
 20
6.5625
 10
24.6796875
 20
10.71875
 10
25.640625
 20
15.9375
 10
46.578125
 20
11.75
 10
45.75
 20
6.5625
 97
     0
 75
     0
 76
     1
 98
     0
  0
HATCH
  5
8e
330
6d
100
AcDbEntity
  8
output
420
12504912
100
AcDbHatch
 10
0.0
 20
0.0
 30
0.0
210
0.0
220
0.0
230
1.0
  2
SOLID
 70
     1
 71
     0
 91
     1
 92
     2
 72
     0
 73
     1
 93
     9
 10
53.9375
 20
14.5625
 10
53.40625
 20
11.5
 10
50.4296875
 20
12.03125
 10
50.3125
 20
11.34375
 10
34.5859375
 20
14.15625
 10
35.546875
 20
19.71875
 10
51.296875
 20
17.0
 10
50.9609375
 20
15.09375
 10
53.9375
 20
14.5625
 97
     0
 75
     0
 76
     1
 98
     0
  0
HATCH
  5
8f
330
6d
100
AcDbEntity
  8
output
420
12504912
100
AcDbHatch
 10
0.0
 20
0.0
 30
0.0
210
0.0
220
0.0
230
1.0
  2
SOLID
 70
     1
 71
     0
 91
     1
 92
     2
 72
     0
 73
     1
 93
    14
 10
93.90625
 20
34.96875
 10
95.15625
 20
24.625
 10
98.765625
 20
25.0625
 10
100.0
 20
23.828125
 10
100.0
 20
9.01943073672009632
 10
82.4765625
 20
6.96875
 10
80.3515625
 20
24.21875
 10
75.9140625
 20
23.65625
 10
74.3671875
 20
36.46875
 10
93.4296875
 20
38.875
 10
93.4765625
 20
38.46875
 10
97.546875
 20
38.96875
 10
97.9765625
 20
35.46875
 10
93.90625
 20
34.96875
 97
     0
 75
     0
 76
     1
 98
     0
  0
HATCH
  5
90
330
6d
100
AcDbEntity
  8
output
420
12504912
100
AcDbHatch
 10
0.0
 20
0.0
 30
0.0
210
0.0
220
0.0
230
1.0
  2
SOLID
 70
     1
 71
     0
 91
     1
 92
     2
 72
     0
 73
     1
 93
    13
 10
31.015625
 20
35.25
 10
32.7734375
 20
35.34375
 10
33.65625
 20
34.59375
 10
33.7421875
 20
33.46875
 10
32.9921875
 20
32.59375
 10
31.203125
 20
32.46875
 10
32.125
 20
19.375
 10
17.078125
 20
18.3125
 10
16.46875
 20
26.65625
 10
27.1015625
 20
27.4375
 10
26.421875
 20
36.90625
 10
30.8359375
 20
37.25
 10
31.015625
 20
35.25
 97
     0
 75
     0
 76
     1
 98
     0
  0
HATCH
  5
91
330
6d
100
AcDbEntity
  8
output
420
12504912
100
AcDbHatch
 10
0.0
 20
0.0
 30
0.0
210
0.0
220
0.0
230
1.0
  2
SOLID
 70
     1
 71
     0
 91
     1
 92
     2
 72
     0
 73
     1
 93
    11
 10
53.46875
 20
52.375
 10
53.5625
 20
46.625
 10
56.0234375
 20
46.6875
 10
56.2421875
 20
40.625
 10
58.8828125
 20
40.625
 10
58.8984375
 20
38.125
 10
52.484375
 20
38.09375
 10
52.375
 20
40.59375
 10
44.671875
 20
40.65625
 10
44.4765625
 20
52.21875
 10
53.46875
 20
52.375
 97
     0
 75
     0
 76
     1
 98
     0
  0
HATCH
  5
92
330
6d
100
AcDbEntity
  8
output
420
12504912
100
AcDbHatch
 10
0.0
 20
0.0
 30
0.0
210
0.0
220
0.0
230
1.0
  2
SOLID
 70
     1
 71
     0
 91
     1
 92
     2
 72
     0
 73
     1
 93
    13
 10
15.34375
 20
63.65625
 10
19.90625
 20
61.59375
 10
21.5546875
 20
65.375
 10
24.25
 20
63.09375
 10
30.984375
 20
71.1875
 10
37.453125
 20
66.09375
 10
27.1171875
 20
53.75
 10
25.6953125
 20
53.125
 10
17.7734375
 20
56.46875
 10
18.6875
 20
58.96875
 10
18.8359375
 20
59.21875
 10
14.296875
 20
61.09375
 10
15.34375
 20
63.65625
 97
     0
 75
     0
 76
     1
 98
     0
  0
HATCH
  5
93
330
6d
100
AcDbEntity
  8
output
420
12504912
100
AcDbHatch
 10
0.0
 20
0.0
 30
0.0
210
0.0
220
0.0
230
1.0
  2
SOLID
 70
     1
 71
     0
 91
     1
 92
     2
 72
     0
 73
     1
 93
    21
 10
58.1640625
 20
69.53125
 10
58.7890625
 20
70.46875
 10
58.7265625
 20
70.8125
 10
68.2109375
 20
72.78125
 10
67.78125
 20
74.875
 10
72.0625
 20
75.8125
 10
72.5703125
 20
73.5
 10
72.859375
 20
73.59375
 10
74.6953125
 20
65.4375
 10
73.875
 20
65.28125
 10
75.015625
 20
60.28125
 10
63.421875
 20
57.625
 10
62.1796875
 20
63.3125
 10
62.8828125
 20
63.53125
 10
62.484375
 20
65.5
 10
60.0
 20
64.9375
 10
59.9453125
 20
65.125
 10
59.078125
 20
65.8125
 10
58.8125
 20
65.71875
 10
57.9609375
 20
69.5
 10
58.1640625
 20
69.53125
 97
     0
 75
     0
 76
     1
 98
     0
  0
HATCH
  5
94
330
6d
100
AcDbEntity
  8
output
420
12504912
100
AcDbHatch
 10
0.0
 20
0.0
 30
0.0
210
0.0
220
0.0
230
1.0
  2
SOLID
 70
     1
 71
     0
 91
     1
 92
     2
 72
     0
 73
     1
 93
    12
 10
21.3984375
 20
97.34375
 10
21.671875
 20
95.34375
 10
28.828125
 20
96.3125
 10
29.8046875
 20
89.3125
 10
12.953125
 20
87.0
 10
12.7421875
 20
88.5
 10
9.078125
 20
87.96875
 10
7.796875
 20
96.625
 10
7.6953125
 20
97.75
 10
16.671875
 20
98.625
 10
16.84375
 20
96.78125
 10
21.3984375
 20
97.34375
 97
     0
 75
     0
 76
     1
 98
     0
  0
HATCH
  5
95
330
6d
100
AcDbEntity
  8
output
420
12504912
100
AcDbHatch
 10
0.0
 20
0.0
 30
0.0
210
0.0
220
0.0
230
1.0
  2
SOLID
 70
     1
 71
     0
 91
     1
 92
     2
 72
     0
 73
     1
 93
    15
 10
57.015625
 20
96.0625
 10
57.8046875
 20
94.875
 10
49.953125
 20
89.53125
 10
47.1640625
 20
93.78125
 10
45.6015625
 20
92.8125
 10
45.375
 20
93.125
 10
38.625
 20
88.9375
 10
35.46875
 20
94.21875
 10
47.140625
 20
99.46875
 10
49.109375
 20
95.5
 10
54.90625
 20
99.21875
 10
55.7421875
 20
98.0625
 10
56.6015625
 20
98.15625
 10
57.546875
 20
96.90625
 10
57.015625
 20
96.0625
 97
     0
 75
     0
 76
     1
 98
     0
  0
ENDSEC
0
SECTION
2
OBJECTS
0
DICTIONARY
5
C
330
0
100
AcDbDictionary
281
   1
3
ACAD_GROUP
350
D
3
ACAD_LAYOUT
350
1A
3
ACAD_MLEADERSTYLE
350
43
3
ACAD_MLINESTYLE
350
17
3
ACAD_PLOTSETTINGS
350
19
3
ACAD_PLOTSTYLENAME
350
E
3
ACAD_TABLESTYLE
350
42
3
ACAD_VISUALSTYLE
350
2A
0
DICTIONARY
5
D
102
{ACAD_REACTORS
330
C
102
}
330
C
100
AcDbDictionary
281
   1
0
DICTIONARY
5
1A
102
{ACAD_REACTORS
330
C
102
}
330
C
100
AcDbDictionary
281
   1
3
Layout1
350
1E
3
Layout2
350
26
3
Model
350
22
0
DICTIONARY
5
43
102
{ACAD_REACTORS
330
C
102
}
330
C
100
AcDbDictionary
281
   1
0
DICTIONARY
5
17
102
{ACAD_REACTORS
330
C
102
}
330
C
100
AcDbDictionary
281
   1
3
Standard
350
18
0
DICTIONARY
5
19
102
{ACAD_REACTORS
330
C
102
}
330
C
100
AcDbDictionary
281
   1
0
ACDBDICTIONARYWDFLT
5
E
102
{ACAD_REACTORS
330
C
102
}
330
C
100
AcDbDictionary
281
   1
3
Normal
350
F
100
AcDbDictionaryWithDefault
340
F
0
DICTIONARY
5
42
102
{ACAD_REACTORS
330
C
102
}
330
C
100
AcDbDictionary
281
   1
0
DICTIONARY
5
2A
102
{ACAD_REACTORS
330
C
102
}
330
C
100
AcDbDictionary
281
   1
3
2dWireframe
350
2F
3
3D Hidden
350
31
3
3dWireframe
350
30
3
Basic
350
32
3
Brighten
350
36
3
ColorChange
350
3A
3
Conceptual
350
34
3
Dim
350
35
3
Facepattern
350
39
3
Flat
350
2B
3
FlatWithEdges
350
2C
3
Gouraud
350
2D
3
GouraudWithEdges
350
2E
3
Linepattern
350
38
3
Realistic
350
33
3
Thicken
350
37
0
LAYOUT
5
1E
102
{ACAD_REACTORS
330
1A
102
}
330
1A
100
AcDbPlotSettings
1

2
none_device
4

6

40
0.0
41
0.0
42
0.0
43
0.0
44
0.0
45
0.0
46
0.0
47
0.0
48
0.0
49
0.0
140
0.0
141
0.0
142
1.0
143
1.0
70
 688
72
   0
73
   0
74
   5
7

75
  16
76
   0
77
   2
78
 300
147
1.0
148
0.0
149
0.0
100
AcDbLayout
1
Layout1
70
   1
71
   1
10
0.0
20
0.0
11
12.0
21
9.0
12
0.0
22
0.0
32
0.0
14
1.000000000000000E+20
24
1.000000000000000E+20
34
1.000000000000000E+20
15
-1.000000000000000E+20
25
-1.000000000000000E+20
35
-1.000000000000000E+20
146
0.0
13
0.0
23
0.0
33
0.0
16
1.0
26
0.0
36
0.0
17
0.0
27
1.0
37
0.0
76
   0
330
1B
0
LAYOUT
5
26
102
{ACAD_REACTORS
330
1A
102
}
330
1A
100
AcDbPlotSettings
1

2
none_device
4

6

40
0.0
41
0.0
42
0.0
43
0.0
44
0.0
45
0.0
46
0.0
47
0.0
48
0.0
49
0.0
140
0.0
141
0.0
142
1.0
143
1.0
70
 688
72
   0
73
   0
74
   5
7

75
  16
76
   0
77
   2
78
 300
147
1.0
148
0.0
149
0.0
100
AcDbLayout
1
Layout2
70
   1
71
   2
10
0.0
20
0.0
11
0.0
21
0.0
12
0.0
22
0.0
32
0.0
14
0.0
24
0.0
34
0.0
15
0.0
25
0.0
35
0.0
146
0.0
13
0.0
23
0.0
33
0.0
16
1.0
26
0.0
36
0.0
17
0.0
27
1.0
37
0.0
76
   0
330
23
0
LAYOUT
5
22
102
{ACAD_REACTORS
330
1A
102
}
330
1A
100
AcDbPlotSettings
1

2
none_device
4

6

40
0.0
41
0.0
42
0.0
43
0.0
44
0.0
45
0.0
46
0.0
47
0.0
48
0.0
49
0.0
140
0.0
141
0.0
142
1.0
143
1.0
70
1712
72
   0
73
   0
74
   0
7

75
   0
76
   0
77
   2
78
 300
147
1.0
148
0.0
149
0.0
100
AcDbLayout
1
Model
70
   1
71
   0
10
0.0
20
0.0
11
12.0
21
9.0
12
0.0
22
0.0
32
0.0
14
30.0
24
49.75
34
0.0
15
130.5
25
163.1318914119703
35
0.0
146
0.0
13
0.0
23
0.0
33
0.0
16
1.0
26
0.0
36
0.0
17
0.0
27
1.0
37
0.0
76
   0
330
1F
331
29
0
MLINESTYLE
5
18
102
{ACAD_REACTORS
330
17
102
}
330
17
100
AcDbMlineStyle
2
Standard
70
   0
3

62
 256
51
90.0
52
90.0
71
   2
49
0.5
62
 256
6
BYLAYER
49
-0.5
62
 256
6
BYLAYER
0
ACDBPLACEHOLDER
5
F
102
{ACAD_REACTORS
330
E
102
}
330
E
0
VISUALSTYLE
5
2F
102
{ACAD_REACTORS
330
2A
102
}
330
2A
100
AcDbVisualStyle
2
2dWireframe
70
   4
71
   0
72
   2
73
   0
90
      0
40
-0.6
41
-30.0
62
   5
63
   7
421
16777215
74
   1
91
      4
64
   7
65
 257
75
   1
175
   1
42
1.0
92
      0
66
 257
43
1.0
76
   1
77
   6
78
   2
67
   7
79
   5
170
   0
171
   0
290
   0
174
   0
93
      1
44
0.0
173
   0
291
   0
45
0.0
1001
ACAD
1000
AcDbSavedByObjectVersion
1070
   0
0
VISUALSTYLE
5
31
102
{ACAD_REACTORS
330
2A
102
}
330
2A
100
AcDbVisualStyle
2
3D Hidden
70
   6
71
   1
72
   2
73
   2
90
      0
40
-0.6
41
-30.0
62
   5
63
   7
421
16777215
74
   2
91
      2
64
   7
65
 257
75
   2
175
   1
42
40.0
92
      0
66
 257
43
1.0
76
   1
77
   6
78
   2
67
   7
79
   3
170
   0
171
   0
290
   0
174
   0
93
      1
44
0.0
173
   0
291
   0
45
0.0
1001
ACAD
1000
AcDbSavedByObjectVersion
1070
   0
0
VISUALSTYLE
5
30
102
{ACAD_REACTORS
330
2A
102
}
330
2A
100
AcDbVisualStyle
2
3dWireframe
70
   5
71
   0
72
   2
73
   0
90
      0
40
-0.6
41
-30.0
62
   5
63
   7
421
16777215
74
   1
91
      4
64
   7
65
 257
75
   1
175
   1
42
1.0
92
      0
66
 257
43
1.0
76
   1
77
   6
78
   2
67
   7
79
   5
170
   0
171
   0
290
   0
174
   0
93
      1
44
0.0
173
   0
291
   0
45
0.0
1001
ACAD
1000
AcDbSavedByObjectVersion
1070
   0
0
VISUALSTYLE
5
32
102
{ACAD_REACTORS
330
2A
102
}
330
2A
100
AcDbVisualStyle
2
Basic
70
   7
71
   1
72
   0
73
   1
90
      0
40
-0.6
41
-30.0
62
   5
63
   7
421
16777215
74
   0
91
      4
64
   7
65
 257
75
   1
175
   1
42
1.0
92
      8
66
   7
43
1.0
76
   1
77
   6
78
   2
67
   7
79
   5
170
   0
171
   0
290
   0
174
   0
93
      1
44
0.0
173
   0
291
   1
45
0.0
1001
ACAD
1000
AcDbSavedByObjectVersion
1070
   0
0
VISUALSTYLE
5
36
102
{ACAD_REACTORS
330
2A
102
}
330
2A
100
AcDbVisualStyle
2
Brighten
70
  12
71
   2
72
   2
73
   0
90
      0
40
-0.6
41
-30.0
62
   5
63
   7
421
16777215
74
   1
91
      4
64
   7
65
 257
75
   1
175
   1
42
1.0
92
      8
66
   7
43
1.0
76
   1
77
   6
78
   2
67
   7
79
   5
170
   0
171
   0
290
   0
174
   0
93
      1
44
50.0
173
   0
291
   1
45
0.0
1001
ACAD
1000
AcDbSavedByObjectVersion
1070
   0
0
VISUALSTYLE
5
3A
102
{ACAD_REACTORS
330
2A
102
}
330
2A
100
AcDbVisualStyle
2
ColorChange
70
  16
71
   2
72
   2
73
   3
90
      0
40
-0.6
41
-30.0
62
   5
63
   8
421
8421504
74
   1
91
      4
64
   7
65
 257
75
   1
175
   1
42
1.0
92
      8
66
   8
424
8421504
43
1.0
76
   1
77
   6
78
   2
67
   7
79
   5
170
   0
171
   0
290
   0
174
   0
93
      1
44
0.0
173
   0
291
   1
45
0.0
1001
ACAD
1000
AcDbSavedByObjectVersion
1070
   0
0
VISUALSTYLE
5
34
102
{ACAD_REACTORS
330
2A
102
}
330
2A
100
AcDbVisualStyle
2
Conceptual
70
   9
71
   3
72
   2
73
   0
90
      0
40
-0.6
41
-30.0
62
   5
63
   7
421
16777215
74
   2
91
      2
64
   7
65
 257
75
   1
175
   1
42
40.0
92
      8
66
   7
43
1.0
76
   1
77
   6
78
   2
67
   7
79
   3
170
   0
171
   0
290
   0
174
   0
93
      1
44
0.0
173
   0
291
   0
45
0.0
1001
ACAD
1000
AcDbSavedByObjectVersion
1070
   0
0
VISUALSTYLE
5
35
102
{ACAD_REACTORS
330
2A
102
}
330
2A
100
AcDbVisualStyle
2
Dim
70
  11
71
   2
72
   2
73
   0
90
      0
40
-0.6
41
-30.0
62
   5
63
   7
421
16777215
74
   1
91
      4
64
   7
65
 257
75
   1
175
   1
42
1.0
92
      8
66
   7
43
1.0
76
   1
77
   6
78
   2
67
   7
79
   5
170
   0
171
   0
290
   0
174
   0
93
      1
44
-50.0
173
   0
291
   1
45
0.0
1001
ACAD
1000
AcDbSavedByObjectVersion
1070
   0
0
VISUALSTYLE
5
39
102
{ACAD_REACTORS
330
2A
102
}
330
2A
100
AcDbVisualStyle
2
Facepattern
70
  15
71
   2
72
   2
73
   0
90
      0
40
-0.6
41
-30.0
62
   5
63
   7
421
16777215
74
   1
91
      4
64
   7
65
 257
75
   1
175
   1
42
1.0
92
      8
66
   7
43
1.0
76
   1
77
   6
78
   2
67
   7
79
   5
170
   0
171
   0
290
   0
174
   0
93
      1
44
0.0
173
   0
291
   1
45
0.0
1001
ACAD
1000
AcDbSavedByObjectVersion
1070
   0
0
VISUALSTYLE
5
2B
102
{ACAD_REACTORS
330
2A
102
}
330
2A
100
AcDbVisualStyle
2
Flat
70
   0
71
   2
72
   1
73
   1
90
      2
40
-0.6
41
30.0
62
   5
63
   7
421
16777215
74
   0
91
      4
64
   7
65
 257
75
   1
175
   1
42
1.0
92
      8
66
   7
43
1.0
76
   1
77
   6
78
   2
67
   7
79
   5
170
   0
171
   0
290
   0
174
   0
93
     13
44
0.0
173
   0
291
   1
45
0.0
1001
ACAD
1000
AcDbSavedByObjectVersion
1070
   0
0
VISUALSTYLE
5
2C
102
{ACAD_REACTORS
330
2A
102
}
330
2A
100
AcDbVisualStyle
2
FlatWithEdges
70
   1
71
   2
72
   1
73
   1
90
      2
40
-0.6
41
30.0
62
   5
63
   7
421
16777215
74
   1
91
      4
64
   7
65
 257
75
   1
175
   1
42
1.0
92
      0
66
 257
43
1.0
76
   1
77
   6
78
   2
67
   7
79
   5
170
   0
171
   0
290
   0
174
   0
93
     13
44
0.0
173
   0
291
   1
45
0.0
1001
ACAD
1000
AcDbSavedByObjectVersion
1070
   0
0
VISUALSTYLE
5
2D
102
{ACAD_REACTORS
330
2A
102
}
330
2A
100
AcDbVisualStyle
2
Gouraud
70
   2
71
   2
72
   2
73
   1
90
      2
40
-0.6
41
30.0
62
   5
63
   7
421
16777215
74
   0
91
      4
64
   7
65
 257
75
   1
175
   1
42
1.0
92
      0
66
   7
43
1.0
76
   1
77
   6
78
   2
67
   7
79
   5
170
   0
171
   0
290
   0
174
   0
93
     13
44
0.0
173
   0
291
   1
45
0.0
1001
ACAD
1000
AcDbSavedByObjectVersion
1070
   0
0
VISUALSTYLE
5
2E
102
{ACAD_REACTORS
330
2A
102
}
330
2A
100
AcDbVisualStyle
2
GouraudWithEdges
70
   3
71
   2
72
   2
73
   1
90
      2
40
-0.6
41
30.0
62
   5
63
   7
421
16777215
74
   1
91
      4
64
   7
65
 257
75
   1
175
   1
42
1.0
92
      0
66
 257
43
1.0
76
   1
77
   6
78
   2
67
   7
79
   5
170
   0
171
   0
290
   0
174
   0
93
     13
44
0.0
173
   0
291
   1
45
0.0
1001
ACAD
1000
AcDbSavedByObjectVersion
1070
   0
0
VISUALSTYLE
5
38
102
{ACAD_REACTORS
330
2A
102
}
330
2A
100
AcDbVisualStyle
2
Linepattern
70
  14
71
   2
72
   2
73
   0
90
      0
40
-0.6
41
-30.0
62
   5
63
   7
421
16777215
74
   1
91
      4
64
   7
65
 257
75
   7
175
   7
42
1.0
92
      8
66
   7
43
1.0
76
   1
77
   6
78
   2
67
   7
79
   5
170
   0
171
   0
290
   0
174
   0
93
      1
44
0.0
173
   0
291
   1
45
0.0
1001
ACAD
1000
AcDbSavedByObjectVersion
1070
   0
0
VISUALSTYLE
5
33
102
{ACAD_REACTORS
330
2A
102
}
330
2A
100
AcDbVisualStyle
2
Realistic
70
   8
71
   2
72
   2
73
   0
90
      0
40
-0.6
41
-30.0
62
   5
63
   7
421
16777215
74
   1
91
      0
64
   7
65
 257
75
   1
175
   1
42
1.0
92
      8
66
   8
424
7895160
43
1.0
76
   1
77
   6
78
   2
67
   7
79
   5
170
   0
171
   0
290
   0
174
   0
93
     13
44
0.0
173
   0
291
   0
45
0.0
1001
ACAD
1000
AcDbSavedByObjectVersion
1070
   0
0
VISUALSTYLE
5
37
102
{ACAD_REACTORS
330
2A
102
}
330
2A
100
AcDbVisualStyle
2
Thicken
70
  13
71
   2
72
   2
73
   0
90
      0
40
-0.6
41
-30.0
62
   5
63
   7
421
16777215
74
   1
91
      4
64
   7
65
 257
75
   1
175
   1
42
1.0
92
     12
66
   7
43
1.0
76
   1
77
   6
78
   2
67
   7
79
   5
170
   0
171
   0
290
   0
174
   0
93
      1
44
0.0
173
   0
291
   1
45
0.0
1001
ACAD
1000
AcDbSavedByObjectVersion
1070
   0
0
ENDSEC
  0
EOF
